<?xml version="1.0" encoding="UTF-8" standalone="no"?>
<svg
   xmlns:dc="http://purl.org/dc/elements/1.1/"
   xmlns:cc="http://creativecommons.org/ns#"
   xmlns:rdf="http://www.w3.org/1999/02/22-rdf-syntax-ns#"
   xmlns:svg="http://www.w3.org/2000/svg"
   xmlns="http://www.w3.org/2000/svg"
   viewBox="0 0 81.679611 80.5"
   height="80.5"
   width="81.679611"
   id="svg2"
   version="1.1">
  <metadata
     id="metadata8">
    <rdf:RDF>
      <cc:Work
         rdf:about="">
        <dc:format>image/svg+xml</dc:format>
        <dc:type
           rdf:resource="http://purl.org/dc/dcmitype/StillImage" />
        <dc:title></dc:title>
      </cc:Work>
    </rdf:RDF>
  </metadata>
  <defs
     id="defs6" />
  <g
     transform="translate(-1.1704934,-0.5)"
     id="g24">
    <path
       id="path28"
       d="M 51.094364,80.75 C 51.329598,80.6125 53.317098,78.925 55.511031,77 L 59.5,73.5 56.053833,77.25 C 54.158441,79.3125 52.170941,81 51.637167,81 51.103392,81 50.859131,80.8875 51.094364,80.75 Z M 40.75,78.337719 c 0.6875,-0.277412 1.8125,-0.277412 2.5,0 0.6875,0.277413 0.125,0.504386 -1.25,0.504386 -1.375,0 -1.9375,-0.226973 -1.25,-0.504386 z M 26.404988,75.75 24.5,73.5 26.75,75.404988 C 28.864445,77.195206 29.455241,78 28.654988,78 c -0.189757,0 -1.202257,-1.0125 -2.25,-2.25 z M 18.25,73.310674 c 0.9625,-0.251527 2.5375,-0.251527 3.5,0 0.9625,0.251528 0.175,0.457323 -1.75,0.457323 -1.925,0 -2.7125,-0.205795 -1.75,-0.457323 z M 30.924314,71.25 28.5,68.5 l 2.75,2.424314 c 1.5125,1.333373 2.75,2.570873 2.75,2.75 0,0.784274 -0.809799,0.145975 -3.075686,-2.424314 z m 30.806654,2.094063 c 0.677033,-0.273923 2.027033,-0.290597 3,-0.03705 0.972968,0.25354 0.419032,0.477659 -1.230968,0.498038 -1.65,0.02038 -2.446064,-0.187065 -1.769032,-0.460988 z M 23.8125,67.316886 c 0.721875,-0.288871 1.584375,-0.253344 1.916667,0.07895 0.332291,0.332292 -0.258334,0.568641 -1.3125,0.52522 -1.164943,-0.04798 -1.4019,-0.284941 -0.604167,-0.604167 z m 35,0 c 0.721875,-0.288871 1.584375,-0.253344 1.916667,0.07895 0.332291,0.332292 -0.258334,0.568641 -1.3125,0.52522 -1.164943,-0.04798 -1.4019,-0.284941 -0.604167,-0.604167 z M 49.25,62.310674 c 0.9625,-0.251527 2.5375,-0.251527 3.5,0 0.9625,0.251528 0.175,0.457323 -1.75,0.457323 -1.925,0 -2.7125,-0.205795 -1.75,-0.457323 z M 28.402488,47 c 0,-8.525 0.153369,-12.0125 0.34082,-7.75 0.187451,4.2625 0.187451,11.2375 0,15.5 -0.187451,4.2625 -0.34082,0.775 -0.34082,-7.75 z m 5.82407,-4.180449 C 34.001706,23.287271 33.98306,23.135839 31.75,22.705733 l -2.25,-0.433369 2.281385,-0.136182 c 1.254761,-0.0749 2.502554,0.440175 2.772871,1.144611 0.270318,0.704437 0.358146,9.816937 0.195173,20.25 L 34.453116,62.5 Z M 57.5,60 c 0.995486,-1.1 2.034975,-2 2.309975,-2 0.275,0 -0.314489,0.9 -1.309975,2 -0.995486,1.1 -2.034975,2 -2.309975,2 -0.275,0 0.314489,-0.9 1.309975,-2 z M 67,58.622445 c 0,-0.207656 0.7875,-0.995156 1.75,-1.75 C 70.336056,55.628574 70.371426,55.663944 69.127555,57.25 67.821186,58.915748 67,59.445479 67,58.622445 Z M 60.34281,48.5 c 0.0036,-4.4 0.179441,-6.075605 0.390687,-3.723567 0.211245,2.352038 0.208273,5.952038 -0.0066,8 C 60.512015,54.824395 60.339178,52.9 60.34281,48.5 Z m 19.852139,5 c 0.02038,-1.65 0.244498,-2.203936 0.498042,-1.230968 0.253543,0.972967 0.236869,2.322967 -0.03705,3 C 80.382014,55.946064 80.174569,55.15 80.194949,53.5 Z M 54.320074,49 c 0,-3.575 0.181495,-5.0375 0.403322,-3.25 0.221826,1.7875 0.221826,4.7125 0,6.5 -0.221827,1.7875 -0.403322,0.325 -0.403322,-3.25 z M 3.0789474,52.416667 c 0.047984,-1.164943 0.2849403,-1.4019 0.6041666,-0.604167 0.2888706,0.721875 0.2533443,1.584375 -0.078947,1.916667 -0.3322917,0.332291 -0.5686404,-0.258334 -0.5252196,-1.3125 z M 4.1949487,47.5 c 0.02038,-1.65 0.2444986,-2.203936 0.498042,-1.230968 0.2535434,0.972967 0.2368691,2.322967 -0.037054,3 C 4.3820136,49.946064 4.174569,49.15 4.1949487,47.5 Z M 43.25,49.310674 c 0.9625,-0.251527 2.5375,-0.251527 3.5,0 0.9625,0.251528 0.175,0.457323 -1.75,0.457323 -1.925,0 -2.7125,-0.205795 -1.75,-0.457323 z M 79.232003,47 c 0,-1.925 0.205795,-2.7125 0.457323,-1.75 0.251527,0.9625 0.251527,2.5375 0,3.5 -0.251528,0.9625 -0.457323,0.175 -0.457323,-1.75 z m -7.153056,-0.583333 c 0.04798,-1.164943 0.284941,-1.4019 0.604167,-0.604167 0.288871,0.721875 0.253344,1.584375 -0.07895,1.916667 -0.332292,0.332291 -0.568641,-0.258334 -0.52522,-1.3125 z M 43.25,45.310674 c 0.9625,-0.251527 2.5375,-0.251527 3.5,0 0.9625,0.251528 0.175,0.457323 -1.75,0.457323 -1.925,0 -2.7125,-0.205795 -1.75,-0.457323 z M 51.5,41 C 49.869592,40.29939 49.812487,40.127582 51.190983,40.070285 52.121024,40.031628 53.160081,40.45 53.5,41 c 0.710664,1.149879 0.675913,1.149879 -2,0 z m -3.331897,-7.75 c 0.155158,-4.384213 0.198407,-4.459608 0.561614,-0.979062 0.269057,2.578327 0.769353,3.545474 1.581896,3.058041 0.691849,-0.41503 0.614945,-0.006 -0.184058,0.979063 C 48.140909,38.757191 47.981981,38.509157 48.168103,33.25 Z M 42.299664,32 c 0,-3.025 0.187466,-4.2625 0.41659,-2.75 0.229125,1.5125 0.229125,3.9875 0,5.5 -0.229124,1.5125 -0.41659,0.275 -0.41659,-2.75 z m 29.159217,-0.06653 c -0.362533,-0.586592 -0.444683,-1.281 -0.182555,-1.543128 0.262128,-0.262129 0.743066,0.21781 1.068751,1.066531 0.676184,1.762107 0.09985,2.072058 -0.886196,0.476597 z M 23.315355,30.078328 C 23.41691,28.746408 24.175,27.474649 25,27.252197 25.991104,26.984956 26.115167,27.128015 25.365682,27.673869 24.741807,28.128241 23.983717,29.4 23.681037,30.5 23.247104,32.077003 23.169762,31.98782 23.315355,30.078328 Z M 13,25.559017 c 0,-1.892541 0.345782,-3.654688 0.768404,-3.915883 0.422622,-0.261195 0.600356,1.287248 0.394965,3.440983 C 13.702237,29.919535 13,30.206196 13,25.559017 Z m 56.951148,-0.282958 c -0.274466,-2.323167 -0.117977,-3.842888 0.347754,-3.377157 0.46573,0.46573 0.690294,2.366504 0.499029,4.22394 -0.339192,3.294022 -0.360038,3.273177 -0.846783,-0.846783 z M 59.116001,25.790442 C 59.000884,23.101533 58.937132,23.078317 50.75,22.743988 l -8.25,-0.336897 8.281385,-0.203546 c 8.699313,-0.213817 9.971594,0.426381 8.91919,4.488042 -0.311048,1.200461 -0.50757,0.897515 -0.584574,-0.901145 z M 7,18.622445 c 0,-0.207656 0.7875,-0.995156 1.75,-1.75 C 10.336056,15.628574 10.371426,15.663944 9.1275553,17.25 7.8211855,18.915748 7,19.445479 7,18.622445 Z M 66.404988,12.75 64.5,10.5 l 2.25,1.904988 c 1.2375,1.047743 2.25,2.060243 2.25,2.25 0,0.800253 -0.804794,0.209457 -2.595012,-1.904988 z M 16,13.622445 c 0,-0.207656 0.7875,-0.995156 1.75,-1.75 C 19.336056,10.628574 19.371426,10.663944 18.127555,12.25 16.821186,13.915748 16,14.445479 16,13.622445 Z m 12.8125,-2.305559 c 0.721875,-0.288871 1.584375,-0.253344 1.916667,0.07895 0.332291,0.332292 -0.258334,0.568641 -1.3125,0.52522 -1.164943,-0.04798 -1.4019,-0.284941 -0.604167,-0.604167 z m 4,0 c 0.721875,-0.288871 1.584375,-0.253344 1.916667,0.07895 0.332291,0.332292 -0.258334,0.568641 -1.3125,0.52522 -1.164943,-0.04798 -1.4019,-0.284941 -0.604167,-0.604167 z m 22,0 c 0.721875,-0.288871 1.584375,-0.253344 1.916667,0.07895 0.332291,0.332292 -0.258334,0.568641 -1.3125,0.52522 -1.164943,-0.04798 -1.4019,-0.284941 -0.604167,-0.604167 z M 43.457866,8.9318263 C 43.094774,8.3443308 42.055717,8.1459914 41.148849,8.491072 39.822336,8.9958361 39.745761,8.870923 40.757143,7.8521028 41.770908,6.8308821 42.344782,6.9162104 43.721429,8.2928571 44.660357,9.2317857 45.133701,10 44.773303,10 44.412905,10 43.820959,9.5193219 43.457866,8.9318263 Z M 51.75,5.3377193 c 0.6875,-0.2774123 1.8125,-0.2774123 2.5,0 0.6875,0.2774123 0.125,0.504386 -1.25,0.504386 -1.375,0 -1.9375,-0.2269737 -1.25,-0.504386 z m -27,-1 c 0.6875,-0.2774123 1.8125,-0.2774123 2.5,0 0.6875,0.2774123 0.125,0.504386 -1.25,0.504386 -1.375,0 -1.9375,-0.2269737 -1.25,-0.504386 z M 57.8125,4.316886 c 0.721875,-0.2888706 1.584375,-0.2533443 1.916667,0.078947 0.332291,0.3322917 -0.258334,0.5686404 -1.3125,0.5252193 -1.164943,-0.047984 -1.4019,-0.28494 -0.604167,-0.6041663 z"
       style="fill:#f79ea1" />
    <path
       id="path26"
       d="M 28.720941,77.389211 C 25.968279,74.555208 24.214681,73.665809 20.569559,73.254951 15.71276,72.707519 13,70.353743 13,66.687085 13,65.659738 10.79352,62.692496 8.0967119,60.093214 L 3.1934238,55.367247 4.2445928,50.77363 C 5.1619043,46.76497 5.0222474,45.655263 3.1478808,42.059212 0.34699048,36.685587 0.42576045,35.723615 4,31.652781 c 2.3748129,-2.704762 3,-4.34688 3,-7.879808 0,-4.912915 1.0720442,-6.255759 7.20481,-9.02476 2.209296,-0.997518 4.384878,-2.999907 5.389532,-4.9604847 2.247336,-4.3856661 3.049931,-4.8012452 8.951073,-4.6348158 3.682818,0.1038663 6.176314,-0.5052164 9.232906,-2.2553085 L 41.965812,0.5 l 4.90723,2.7459282 c 4.075883,2.2807332 5.663209,2.6423097 9.369583,2.1342947 4.814757,-0.6599359 5.084802,-0.4942129 9.024696,5.5383261 1.297153,1.986126 3.641338,3.889585 5.594513,4.5427 C 75.273884,16.936576 77,19.469445 77,24.468268 c 0,3.143437 0.692049,4.843706 3,7.370589 3.525066,3.859453 3.699771,5.60111 0.969103,9.661143 -1.700568,2.528452 -1.91834,3.969825 -1.385475,9.170053 l 0.632243,6.170054 -3.580846,2.329946 C 74.66556,60.451524 72.562827,62.85 71.962286,64.5 c -2.631542,7.23022 -3.325627,7.95574 -8.290447,8.665927 -3.472753,0.496755 -5.830368,1.64801 -8.718729,4.25747 C 52.775731,79.390529 50.779641,81 50.517356,81 c -0.262286,0 -2.28599,-0.723861 -4.49712,-1.60858 -3.694151,-1.478106 -4.346321,-1.478106 -8.040472,0 -5.324566,2.130469 -5.223543,2.152315 -9.258823,-2.002209 z m 9.415854,-4.548342 c 3.03063,-0.907999 4.732686,-0.874033 7.856057,0.156772 3.803214,1.255174 4.097396,1.197026 6.374474,-1.259983 2.082192,-2.246722 7.937579,-4.715291 11.224386,-4.732081 0.600442,-0.0031 1.629127,-1.799307 2.285967,-3.991644 0.72233,-2.410922 2.544088,-5.063124 4.610145,-6.71167 3.18072,-2.537956 3.375168,-3.022705 2.824391,-7.041059 -0.411363,-3.001223 -0.06804,-5.476287 1.127355,-8.127195 1.698497,-3.766592 1.688307,-3.856754 -0.860358,-7.612421 C 71.9222,31.079844 71,28.357329 71,25.907248 71,22.350618 70.697622,21.959833 66.513479,20.108987 63.342245,18.7062 61.537939,17.098902 60.358885,14.626401 58.743602,11.239115 58.524438,11.134295 53.43357,11.314208 49.337052,11.45898 47.494506,10.996623 45.088164,9.2200626 L 42,6.9401252 39.112656,9.0748311 c -2.154771,1.5930909 -4.269194,2.1181999 -8.333726,2.0696509 -5.212925,-0.06227 -5.514534,0.07786 -7.036315,3.269069 -1.061764,2.226544 -3.110171,4.070059 -6.166274,5.549493 C 13.254687,22.055121 13,22.40472 13,26.244815 c 0,2.844217 -0.785763,5.096592 -2.614354,7.493999 -2.598776,3.40717 -2.6040013,3.450555 -0.8768909,7.280601 1.2579029,2.789532 1.5547109,5.071694 1.0753419,8.268351 -0.6286734,4.192296 -0.484973,4.550462 2.844623,7.090068 2.186216,1.667509 3.947802,4.146844 4.678,6.584029 1.046017,3.491294 1.594995,3.980895 5.134126,4.578828 2.242564,0.378878 5.329498,1.913488 7.111012,3.535102 3.707174,3.374436 2.970702,3.207456 7.784937,1.765076 z M 29,47 V 32 h -2.5 c -3.369717,0 -3.350596,-3.291413 0.02807,-4.830833 1.390436,-0.633525 2.788581,-1.830757 3.106989,-2.660515 C 29.953462,23.678893 31.065833,23 32.106989,23 33.899619,23 34,24.034032 34,42.5 V 62 H 31.5 29 Z m 16.047789,13.23978 c -1.356207,-1.098189 -2.387662,-3.354829 -2.742453,-6 C 41.743508,50.051046 41.773603,50 44.804972,50 c 2.728987,0 3.102965,0.358512 3.38167,3.241811 0.3431,3.549503 2.836574,4.813737 5.361397,2.71832 1.870087,-1.552034 1.960364,-11.88259 0.125765,-14.391552 C 51.975565,39.246098 48,40.296296 48,43.067388 48,44.567537 47.296809,45 44.857544,45 h -3.142457 l 0.642457,-6.146691 C 42.710895,35.472629 43,30.522629 43,27.853309 V 23 h 8 c 7.82112,0 8,0.05473 8,2.44774 0,2.247781 -0.42888,2.472433 -5.25,2.75 L 48.5,28.5 48.186533,33.462424 c -0.303973,4.812141 -0.256162,4.910565 1.578741,3.25 C 52.283352,34.433594 55.547589,34.547589 58,37 c 1.714051,1.714051 2,3.333333 2,11.325686 0,8.455061 -0.216072,9.528675 -2.314451,11.5 -2.908835,2.732708 -9.507384,2.948919 -12.63776,0.414094 z"
       style="fill:#f36166" />
  </g>
</svg>
