<?xml version="1.0" encoding="utf-8"?>
<!-- Generator: Adobe Illustrator 21.0.2, SVG Export Plug-In . SVG Version: 6.00 Build 0)  -->
<svg version="1.1" id="Слой_1" xmlns="http://www.w3.org/2000/svg" xmlns:xlink="http://www.w3.org/1999/xlink" x="0px" y="0px"
	 viewBox="0 0 82.2 80.3" style="enable-background:new 0 0 82.2 80.3;" xml:space="preserve">
<style type="text/css">
	.st0{fill:#F46267;}
</style>
<path class="st0" d="M52.8,34.2L52.8,34.2c-2.2-0.1-4.3,1-5.4,2.9l0.5-9.5h10.8v-5.7H42.1l-1.2,23h6.2v-1.2c0-2.6,1.1-3.9,3.2-3.9
	c2.2,0,3.2,1.3,3.2,3.9v8.7c0,2.6-1.1,3.9-3.2,3.9c-2.1,0-3.2-1.3-3.2-3.9v-3.7h-6.2v3.3c0,3.2,0.8,5.6,2.5,7.4
	c1.9,1.8,4.5,2.7,7.1,2.6c3,0,5.3-0.9,6.9-2.6s2.4-4.2,2.4-7.4v-8.9c0-3-0.6-5.2-1.7-6.7C56.8,34.9,54.8,34,52.8,34.2z"/>
<path class="st0" d="M79.6,31.4c-2.7-2.1-4-5.5-3.4-8.8c0.5-4.3-1.3-6.8-5.6-7.8c-3.2-0.5-5.9-2.9-6.8-6c-1.4-4.1-4.6-5.8-8.7-4.5
	c-3.3,1.2-7,0.3-9.4-2.2c-2.8-2.6-6.2-2.7-9-0.1c-2.6,2.6-6.4,3.4-9.8,2.2c-3.2-1.2-6.8,0.5-7.9,3.8c0,0.1-0.1,0.2-0.1,0.4
	c-1.2,3.7-3.6,5.7-7.6,6.6c-3.8,0.8-5.8,3.8-5.1,7.6c0.6,3.5-0.4,6.3-3.4,8.9c-3.3,2.8-3.6,6.2-1,9.6c2,2.5,2.5,5.9,1.3,8.8
	c-1.7,4.6-0.6,7.4,3.7,9.5c2.8,1.3,4.7,3.9,5.1,6.9c0.8,5.2,2.8,6.9,8.1,6.8c3-0.2,5.9,1.3,7.5,3.9c1.6,2.3,3.4,3.5,5.5,3.5
	c1.6-0.1,3.1-0.6,4.4-1.5c2.3-1.6,5.3-1.6,7.5,0c4,2.4,7.1,1.8,9.9-2.1c1.9-2.7,4.3-3.8,7.8-3.8c0.1,0,0.2,0,0.3,0
	c5.4,0,6.7-2.3,7.5-7c0.4-3,2.3-5.6,5.1-6.7c2.8-1.3,5.7-3.9,3.7-9.2c-1.3-3.5-0.9-6.5,1.3-9.3C83.1,37.5,82.8,34.1,79.6,31.4z
	 M74.7,37.7c-3.1,3.8-3.9,9-2,13.5c0.6,1.7,0.4,2-1,2.6c-4.1,1.8-7,5.5-7.6,10c-0.1,0.9-0.3,1.7-0.6,2.5c-0.6,0.2-1.2,0.2-1.7,0.2
	c-4.6-0.3-9.1,1.8-11.7,5.7c-1.2,1.7-1.3,1.7-3,0.7c-3.7-2.4-8.5-2.4-12.2,0c-1.7,1-1.8,1-2.9-0.6c-2.4-3.7-6.5-5.8-10.9-5.7h-0.2
	c-0.8,0.1-1.5,0-2.3-0.2c-0.4-0.7-0.6-1.4-0.6-2.2c-0.6-4.4-3.4-8.2-7.4-10.1c-1.9-0.9-1.9-0.9-1.1-3c1.7-4.4,1-9.3-1.9-13
	c-0.9-1.3-0.9-1.6,0.3-2.6c4.1-3.6,5.7-7.9,4.8-13c-0.2-1.1,0-1.4,1.1-1.7c5.5-1.2,9.1-4.4,10.8-9.5c0.1-0.6,0.7-1,1.3-0.9
	c0.1,0,0.3,0.1,0.4,0.1c4.9,1.7,10.3,0.5,14-3.1c0.7-0.6,1-0.8,1.9,0.1c3.6,3.6,8.9,4.8,13.6,3.2c1.3-0.4,1.7-0.3,2.2,1.3
	c1.4,4.5,5.3,7.9,10,8.8c1.8,0.4,1.8,0.7,1.6,2.1c-0.8,4.8,1.1,9.7,4.9,12.7C75.5,36.3,75.6,36.6,74.7,37.7z"/>
<path class="st0" d="M28.7,23.5L28.7,23.5c-0.2,0.5-0.5,0.9-0.8,1.3c-0.3,0.5-0.7,0.8-1.2,1.1c-0.5,0.3-1.1,0.5-1.7,0.7
	c-0.8,0.2-1.6,0.3-2.5,0.3v4.4h4.8v30.3h6.2V21.9h-4.2C29.1,22.6,28.9,23.1,28.7,23.5z"/>
</svg>
