<?xml version="1.0" encoding="utf-8"?>
<!-- Generator: Adobe Illustrator 21.0.2, SVG Export Plug-In . SVG Version: 6.00 Build 0)  -->
<svg version="1.1" id="Слой_1" xmlns="http://www.w3.org/2000/svg" xmlns:xlink="http://www.w3.org/1999/xlink" x="0px" y="0px"
	 viewBox="0 0 80 70.5" style="enable-background:new 0 0 80 70.5;" xml:space="preserve">
<style type="text/css">
	.st0{fill:#8A91C1;}
</style>
<path class="st0" d="M74.6,34.2v-1.4c2.6-0.7,3.1-1.3,3.1-4c0-0.9,0-1.7,0-2.6c0-3-0.3-3.4-3.1-4.2c0-2.6,0-5.2,0-7.8
	c-0.1-0.7,0.3-1.4,1-1.6c2.8-1,4.6-3.8,4.3-6.7c-0.2-2.1-1.3-4-3.1-5.1c-3.1-1.9-7.1-0.9-9,2.1c-0.3,0.6-1,0.9-1.6,0.9
	c-2.6,0.3-5.2,0.6-7.9,0.9c-6.2,0.7-12.4,1.4-18.6,2.2c-0.6,0.1-1.3-0.2-1.5-0.8c-0.7-1.3-1.6-2.4-2.3-3.7c-0.6-1-1.6-1.6-2.7-1.5
	c-5.8,0-11.7,0-17.5,0c-2.2,0-3.1,1-3.1,3.3c0,1.9,0,3.8,0,5.8c-3.3,0.4-6.4,0.7-9.5,1.1c-2.2,0.3-3,1.5-2.6,3.6
	c0.6,3.1,1.1,6.3,1.7,9.5c0.4,2.6,1.7,3.4,4.2,2.8c2-0.5,4.1-1,6.2-1.5c0.3,2.7,1.3,3.6,3.8,3.4c0.9-0.1,1.8,0,2.9,0v41.5h19.5V28.9
	h2.7c2.6,0,3.5-0.9,3.5-3.6c0-2.1,0-4.2,0-6.3c0-0.1,0-0.1,0-0.2c0-0.7,0.5-1.3,1.2-1.4c7.5-1.8,15-3.7,22.6-5.4
	c1.1-0.2,2.4,0.7,3.6,1.1c0.1,0.1,0.2,0.3,0.2,0.5c0,2.9,0,5.7,0,8.5c-2.8,0.6-3.2,1.2-3.2,3.8c0,1.3,0,2.6,0,4
	c-0.1,1.3,0.9,2.5,2.3,2.7c0.3,0.1,0.6,0.2,1,0.3c0,0.4,0,0.7,0,1.1c0,2.2,0,2.2,2.2,2.6c0,0,0,0,0.1,0c2.4,0.7,3.8,3.2,3.1,5.6
	c-0.5,1.8-2.1,3.1-4,3.1c-2,0.1-3.8-1.1-4.4-3.1c-0.3-0.8-0.6-1.5-1.6-1.2c-1.1,0.3-0.9,1.2-0.6,2c0.8,2.3,2.8,4,5.2,4.5
	c3.7,0.7,7.2-1.8,7.9-5.4C80.7,38.4,78.2,34.9,74.6,34.2z M11.7,22.6c-0.1,0.4-0.4,0.6-0.8,0.8c-2.3,0.6-4.5,1.1-7,1.8
	c-0.7-3.9-1.4-7.6-2.1-11.5c3.4-0.4,6.5-0.7,9.9-1.1l0,0C11.8,15.9,11.8,19.2,11.7,22.6z M20.5,29h15.5c0,0.6-0.2,1.2-0.5,1.7
	c-2.4,2.4-4.8,4.7-7.2,7.1c-2.5-2.4-5-4.8-7.4-7.2C20.8,30.1,20.6,29.5,20.5,29L20.5,29z M28.4,56.4c-2.6-2.8-5-5.4-7.2-7.7
	c2.3-2.4,4.7-5,7.2-7.7c2.5,2.6,4.9,5.2,7.2,7.7C33.4,51.1,31,53.7,28.4,56.4z M20.8,52.6c1.7,1.7,3.5,3.6,5.4,5.6h0
	c-1.6,1.6-3.4,3.4-5.4,5.3V52.6z M20.7,45.1V34c1.8,1.8,3.7,3.7,5.4,5.4h0C24.4,41.2,22.6,43.1,20.7,45.1z M30.6,57.8
	c1.6-1.6,3.4-3.4,5.2-5.3v10.4C34.2,61.3,32.4,59.5,30.6,57.8L30.6,57.8z M30.5,39.4c1.8-1.7,3.6-3.5,5.4-5.3v10.7
	C34,43,32.2,41.2,30.5,39.4z M20.3,68.4c0.3-0.7,0.7-1.4,1.1-2c2.2-2.3,4.6-4.5,7-6.8c1.1,1,2.1,2,3.1,3c1.2,1.2,2.5,2.3,3.6,3.6
	c0.5,0.7,0.9,1.4,1.2,2.2H20.3z M43.9,15.6c-1.3-2-2.6-4-4-6.3c9-1,17.7-2,26.5-2.9c0.3,1.3,0.6,2.4,0.9,3.6
	C59.5,11.8,51.7,13.7,43.9,15.6z"/>
</svg>
