<?xml version="1.0" encoding="UTF-8" standalone="no"?>
<svg
   xmlns:dc="http://purl.org/dc/elements/1.1/"
   xmlns:cc="http://creativecommons.org/ns#"
   xmlns:rdf="http://www.w3.org/1999/02/22-rdf-syntax-ns#"
   xmlns:svg="http://www.w3.org/2000/svg"
   xmlns="http://www.w3.org/2000/svg"
   viewBox="0 0 80.342102 71.378548"
   height="71.378548"
   width="80.342102"
   id="svg2"
   version="1.1">
  <metadata
     id="metadata8">
    <rdf:RDF>
      <cc:Work
         rdf:about="">
        <dc:format>image/svg+xml</dc:format>
        <dc:type
           rdf:resource="http://purl.org/dc/dcmitype/StillImage" />
        <dc:title></dc:title>
      </cc:Work>
    </rdf:RDF>
  </metadata>
  <defs
     id="defs6" />
  <g
     transform="translate(-0.15789474,-0.12144871)"
     id="g30">
    <path
       id="path34"
       d="m 19,50.569551 c 0,-20.39206 -0.0042,-20.431263 -2.25,-20.863818 -1.929146,-0.37157 -1.857845,-0.452789 0.5,-0.569551 L 20,29 V 50 C 20,61.55 19.775,71 19.5,71 19.225,71 19,61.806298 19,50.569551 Z M 38.228102,50.25 C 38.017031,30.586656 38.130666,29.001143 39.75,29.015313 c 1.223559,0.01071 1.380395,0.250107 0.521356,0.795818 -0.889666,0.565167 -1.309552,6.423744 -1.521899,21.234687 L 38.456203,71.5 Z m -6.281935,13 L 28.5,59.5 l 3.75,3.446167 c 2.0625,1.895392 3.75,3.582892 3.75,3.75 0,0.76362 -0.846216,0.04425 -4.053833,-3.446167 z m -8.71182,-1.78838 2.734347,-3.038381 -2.71162,-2.711619 C 21.765683,54.220229 20.788536,53 21.085636,53 c 0.2971,0 1.751214,1.264045 3.231364,2.808989 l 2.691182,2.808989 -3.254091,2.941011 L 20.5,64.5 Z M 36.180248,58.575686 36,53.651372 l -2.75,2.39611 -2.75,2.396111 2.719697,-2.918766 c 1.495833,-1.605322 2.984965,-2.653499 3.309181,-2.329282 0.324216,0.324216 0.418964,2.775352 0.210551,5.446969 L 36.360496,63.5 Z M 24.452948,52.75 20.5,48.5 l 4.159733,3.864805 c 2.603862,2.419245 4.625319,3.577057 5.404509,3.095491 0.80344,-0.496553 0.991795,-0.359982 0.53125,0.385196 -1.131528,1.83085 -1.93901,1.423926 -6.142544,-3.095492 z m 7.984143,-7 L 29.5,42.5 32.75,45.437091 C 35.779455,48.174872 36.459652,49 35.687091,49 c -0.1721,0 -1.6346,-1.4625 -3.25,-3.25 z m 42.646242,1.989343 C 75.3125,47.595982 76.625,46.583482 78,45.489343 L 80.5,43.5 78.595012,45.75 C 77.547269,46.9875 76.234769,48 75.678346,48 75.121922,48 74.854167,47.882704 75.083333,47.739343 Z M 70,44.5 C 69.315311,43.675 68.980111,43 69.255111,43 c 0.275,0 1.0602,0.675 1.744889,1.5 0.684689,0.825 1.019889,1.5 0.744889,1.5 -0.275,0 -1.0602,-0.675 -1.744889,-1.5 z M 26.5,43 c 0.995486,-1.1 2.034975,-2 2.309975,-2 0.275,0 -0.314489,0.9 -1.309975,2 -0.995486,1.1 -2.034975,2 -2.309975,2 -0.275,0 0.314489,-0.9 1.309975,-2 z M 32.924314,42.25 30.5,39.5 l 2.690377,2.368301 2.690378,2.368302 0.379374,-4.868302 0.379375,-4.868301 0.180248,5.25 c 0.09914,2.8875 -0.191311,5.25 -0.645438,5.25 -0.454127,0 -1.916627,-1.2375 -3.25,-2.75 z M 23.437091,36.75 20.5,33.5 l 3.25,2.937091 c 1.7875,1.6154 3.25,3.0779 3.25,3.25 0,0.772561 -0.825128,0.09236 -3.562909,-2.937091 z M 23.946167,34.25 20.5,30.5 l 3.75,3.446167 c 2.0625,1.895392 3.75,3.582892 3.75,3.75 0,0.76362 -0.846216,0.04425 -4.053833,-3.446167 z m 8.46291,0.04493 3.909077,-4.205072 L 28.409077,29.746172 20.5,29.402488 28.75,29.201244 c 4.5375,-0.110684 8.25,0.15743 8.25,0.595808 0,0.438379 -1.9125,2.575879 -4.25,4.75 L 28.5,38.5 32.409077,34.294928 Z m 39.936,1.161944 c -0.325685,-0.848721 -0.368713,-1.766569 -0.09562,-2.039663 0.273094,-0.273095 0.736558,0.421313 1.029919,1.543128 0.62315,2.382929 -0.06922,2.750891 -0.934299,0.496535 z m -2.67841,-3.123539 C 68.752539,31.419206 68.821585,24.2283 69.75,23.654508 70.1625,23.399569 70.5,25.398012 70.5,28.095492 70.5,30.792971 70.4625,33 70.416667,33 c -0.04583,0 -0.383334,-0.3 -0.75,-0.666667 z m 6.897626,-0.626461 c 0.375531,-0.986221 0.934692,-1.541221 1.242579,-1.233333 0.307887,0.307887 6.34e-4,1.114794 -0.682784,1.793128 -0.987616,0.980267 -1.10248,0.865403 -0.559795,-0.559795 z M 4.8125,27.316886 c 0.721875,-0.288871 1.584375,-0.253344 1.9166667,0.07895 0.3322916,0.332292 -0.2583334,0.568641 -1.3125,0.52522 C 4.2517237,27.873069 4.0147673,27.636112 4.8125,27.316886 Z M 3.0789474,21.416667 c 0.047984,-1.164943 0.2849403,-1.4019 0.6041666,-0.604167 0.2888706,0.721875 0.2533443,1.584375 -0.078947,1.916667 -0.3322917,0.332291 -0.5686404,-0.258334 -0.5252196,-1.3125 z M 72.299664,18 c 0,-3.025 0.187466,-4.2625 0.41659,-2.75 0.229125,1.5125 0.229125,3.9875 0,5.5 -0.229124,1.5125 -0.41659,0.275 -0.41659,-2.75 z M 1.0789474,20.416667 c 0.047984,-1.164943 0.2849403,-1.4019 0.6041666,-0.604167 0.2888706,0.721875 0.2533443,1.584375 -0.078947,1.916667 -0.3322917,0.332291 -0.5686404,-0.258334 -0.5252196,-1.3125 z m 72.9999996,-2.10765 c -0.04342,-2.305041 0.277008,-4.410975 0.712063,-4.679854 0.435056,-0.268879 0.627442,1.167063 0.427525,3.190983 -0.54665,5.534173 -1.050973,6.193071 -1.139588,1.488871 z M 2.0789474,16.416667 c 0.047984,-1.164943 0.2849403,-1.4019 0.6041666,-0.604167 0.2888706,0.721875 0.2533443,1.584375 -0.078947,1.916667 -0.3322917,0.332291 -0.5686404,-0.258334 -0.5252196,-1.3125 z M 0.15789474,15 c 0,-1.375 0.22697368,-1.9375 0.50438596,-1.25 0.27741228,0.6875 0.27741228,1.8125 0,2.5 C 0.38486842,16.9375 0.15789474,16.375 0.15789474,15 Z M 3.7309681,13.344063 c 0.6770325,-0.273923 2.0270325,-0.290597 3,-0.03705 C 7.7039356,13.560553 7.15,13.784672 5.5,13.805051 3.85,13.825431 3.0539356,13.617986 3.7309681,13.344063 Z M 3.75,11.337719 c 0.6875,-0.277412 1.8125,-0.277412 2.5,0 0.6875,0.277413 0.125,0.504386 -1.25,0.504386 -1.375,0 -1.9375,-0.226973 -1.25,-0.504386 z M 12.252183,7.5 c -0.0111,-2.2 0.184605,-3.2177466 0.434897,-2.2616592 0.250293,0.9560875 0.259374,2.7560875 0.02018,4 C 12.468068,10.482253 12.263283,9.7 12.252183,7.5 Z M 40,9.9063804 C 40,9.4078712 40.9,9 42,9 c 1.1,0 2,0.1725159 2,0.3833686 0,0.2108528 -0.9,0.6187244 -2,0.9063804 -1.1,0.287656 -2,0.115141 -2,-0.3833686 z m 8.730968,-1.5623171 c 0.677033,-0.2739231 2.027033,-0.2905974 3,-0.037054 C 52.703936,8.5605527 52.15,8.7846716 50.5,8.8050513 48.85,8.825431 48.053936,8.6179864 48.730968,8.3440633 Z M 39.75,7.3377193 c 0.6875,-0.2774123 1.8125,-0.2774123 2.5,0 0.6875,0.2774123 0.125,0.504386 -1.25,0.504386 -1.375,0 -1.9375,-0.2269737 -1.25,-0.504386 z m 17.980968,0.00634 c 0.677033,-0.2739231 2.027033,-0.2905974 3,-0.037054 C 61.703936,7.5605527 61.15,7.7846716 59.5,7.8050513 57.85,7.825431 57.053936,7.6179864 57.730968,7.3440633 Z M 48.75,6.3377193 c 0.6875,-0.2774123 1.8125,-0.2774123 2.5,0 0.6875,0.2774123 0.125,0.504386 -1.25,0.504386 -1.375,0 -1.9375,-0.2269737 -1.25,-0.504386 z m 7.980968,-0.993656 c 0.677033,-0.2739231 2.027033,-0.2905974 3,-0.037054 C 60.703936,5.5605527 60.15,5.7846716 58.5,5.8050513 56.85,5.825431 56.053936,5.6179864 56.730968,5.3440633 Z M 19.783522,1.2615955 c 2.905937,-0.2026419 7.405937,-0.2005115 10,0.00473 C 32.377585,1.4715753 30,1.6373732 24.5,1.6347694 19,1.6321657 16.877585,1.4642374 19.783522,1.2615955 Z M 72.8125,0.31688596 c 0.721875,-0.28887061 1.584375,-0.25334429 1.916667,0.0789474 0.332291,0.33229167 -0.258334,0.56864035 -1.3125,0.5252193 -1.164943,-0.0479839 -1.4019,-0.2849403 -0.604167,-0.6041667 z"
       style="fill:#a9aed1" />
    <path
       id="path32"
       d="M 20,50 V 29 h -3.031385 c -1.789161,0 -3.27029,-0.622577 -3.614383,-1.519269 -0.458151,-1.193924 -1.597359,-1.38471 -5.3197664,-0.890915 -5.4870897,0.727888 -5.5720593,0.619505 -6.5936973,-8.410582 L 0.76694485,12.223423 6.8304717,11.519676 12.893999,10.815929 13.196999,6.6579645 13.5,2.5 23.896617,2.2133982 34.293235,1.9267964 36.896617,4.9714335 39.5,8.0160706 52.947584,6.4251957 C 62.940327,5.2430352 67.021333,4.3417799 68.832443,2.9171604 71.973497,0.44640724 75.478075,0.4780752 78,3 c 2.81412,2.8141198 2.488927,5.7408541 -1,9 -3.658773,3.417805 -4.116334,8.679757 -1,11.5 2.41076,2.181708 2.561313,5.253601 0.408138,8.327688 -1.50254,2.145177 -1.446428,2.407484 1,4.674758 3.36031,3.11423 3.343673,6.761019 -0.043,9.424974 C 75.915969,47.067339 74.095514,48 73.319687,48 c -1.748225,0 -6.765422,-4.887598 -5.902747,-5.750274 0.345984,-0.345984 1.319228,0.356289 2.162765,1.560606 C 71.253435,46.199916 74.900227,46.699773 76.8,44.8 78.815695,42.784305 78.178883,39.163315 75.5,37.408043 74.125,36.507108 73,35.19488 73,34.491979 73,33.789078 72.325,32.954956 71.5,32.638374 69.436235,31.846433 69.436235,24.153567 71.5,23.361626 72.543629,22.961148 73,21.332823 73,18.009643 73,11.916048 71.702573,11.50541 60.711033,14.120164 43.995525,18.096581 45,17.595553 45,21.956757 45,27.609481 44.189174,29 40.893011,29 H 38 v 21 21 h -9 -9 z m 16.12124,17.25 c -0.52202,-0.9625 -2.341541,-3.075225 -4.04338,-4.694944 l -3.094253,-2.944944 -3.991804,3.897892 C 22.796312,65.651844 21,67.764569 21,68.202948 21,68.641326 24.615833,69 29.035184,69 c 7.347461,0 7.953949,-0.14978 7.086056,-1.75 z M 24.317,55.808989 C 22.83685,54.264045 21.485009,53 21.312909,53 21.140809,53 21,55.559191 21,58.687091 v 5.687091 l 3.004091,-2.878102 3.004091,-2.878102 z M 37,58 C 37,55.25 36.628441,53 36.174314,53 35.720187,53 34.291745,54.125 33,55.5 L 30.651372,58 33,60.5 C 34.291745,61.875 35.720187,63 36.174314,63 36.628441,63 37,60.75 37,58 Z M 32.874184,52.901313 36.248368,48.838677 32.374184,44.869267 28.5,40.899856 24.812513,45.199928 21.125026,49.5 l 3.640435,3.75 c 2.002239,2.0625 3.886608,3.741888 4.187487,3.731974 0.300878,-0.0099 2.065435,-1.846212 3.921236,-4.080661 z M 24.317,36.808989 C 22.83685,35.264045 21.485009,34 21.312909,34 21.140809,34 21,36.559191 21,39.687091 v 5.687091 l 3.004091,-2.878102 3.004091,-2.878102 z M 37,40 C 37,37.25 36.628441,35 36.174314,35 35.720187,35 34.291745,36.125 33,37.5 L 30.651372,40 33,42.5 C 34.291745,43.875 35.720187,45 36.174314,45 36.628441,45 37,42.75 37,40 Z M 33.207837,34.297052 C 35.293527,32.260431 37,30.235431 37,29.797052 37,29.358674 33.4,29 29,29 23.4356,29 21,29.366068 21,30.202393 21,31.677013 27.003819,38 28.404004,38 c 0.556419,0 2.718144,-1.666326 4.803833,-3.702948 z M 10,24.432612 c 1.684941,-0.478007 2,-1.423183 2,-6 V 13 H 7.559017 c -2.4425407,0 -4.7231004,0.456475 -5.0679105,1.01439 -0.3448101,0.557914 -0.1105297,3.501864 0.520623,6.542111 0.9817856,4.729235 1.4249486,5.449412 3.0679105,4.98561 C 7.135838,25.24395 8.9,24.744676 10,24.432612 Z M 56.75,13.367933 C 62.9375,11.91087 67.993109,10.444514 67.984687,10.109364 67.976265,9.7742136 67.564609,8.8604843 67.069896,8.078854 66.298528,6.8601178 64.300975,6.8428571 53.044812,7.9576639 45.825729,8.6726396 40.064324,9.5371553 40.241691,9.8788099 40.419057,10.220464 41.184467,11.7375 41.942602,13.25 c 0.758136,1.5125 1.868696,2.753856 2.467913,2.75857 0.599217,0.0047 6.151985,-1.183573 12.339485,-2.640637 z"
       style="fill:#8990c0" />
  </g>
</svg>
