<?xml version="1.0" encoding="UTF-8" standalone="no"?>
<!-- Created with Inkscape (http://www.inkscape.org/) -->

<svg
   xmlns:dc="http://purl.org/dc/elements/1.1/"
   xmlns:cc="http://creativecommons.org/ns#"
   xmlns:rdf="http://www.w3.org/1999/02/22-rdf-syntax-ns#"
   xmlns:svg="http://www.w3.org/2000/svg"
   xmlns="http://www.w3.org/2000/svg"
   xmlns:sodipodi="http://sodipodi.sourceforge.net/DTD/sodipodi-0.dtd"
   xmlns:inkscape="http://www.inkscape.org/namespaces/inkscape"
   version="1.1"
   id="svg2"
   width="55.348637"
   height="54.668781"
   viewBox="0 0 55.348637 54.668781"
   sodipodi:docname="constr.svg"
   inkscape:version="0.92.1 r15371">
  <metadata
     id="metadata8">
    <rdf:RDF>
      <cc:Work
         rdf:about="">
        <dc:format>image/svg+xml</dc:format>
        <dc:type
           rdf:resource="http://purl.org/dc/dcmitype/StillImage" />
        <dc:title></dc:title>
      </cc:Work>
    </rdf:RDF>
  </metadata>
  <defs
     id="defs6" />
  <sodipodi:namedview
     pagecolor="#ffffff"
     bordercolor="#666666"
     borderopacity="1"
     objecttolerance="10"
     gridtolerance="10"
     guidetolerance="10"
     inkscape:pageopacity="0"
     inkscape:pageshadow="2"
     inkscape:window-width="1366"
     inkscape:window-height="705"
     id="namedview4"
     showgrid="false"
     inkscape:zoom="4.2142857"
     inkscape:cx="104.9782"
     inkscape:cy="24.809531"
     inkscape:window-x="1272"
     inkscape:window-y="49"
     inkscape:window-maximized="1"
     inkscape:current-layer="svg2" />
  <path
     style="fill:#8a91c0"
     d="M 14.755812,53.104639 C 12.873274,51.786058 12.55621,50.889316 13.047186,48.272188 13.818053,44.163114 11.582279,41.989756 6.1293714,41.547499 2.8810744,41.284046 1.8831354,40.692602 0.77795339,38.3759 c -1.275993,-2.674757 -1.170114,-3.042143 1.74289701,-6.047607 3.864131,-3.986772 3.901562,-6.177035 0.171872,-10.057031 -2.82250901,-2.936255 -2.87708501,-3.171097 -1.49369,-6.427425 1.347466,-3.171755 1.663498,-3.342878 5.133675,-2.779746 5.0450836,0.818705 7.2895616,-1.297853 7.2895616,-6.8741032 0,-3.7668088 0.330367,-4.3605345 3.054101,-5.48874229 2.857387,-1.1835685 3.263015,-1.062563 6.297607,1.87867969 3.882611,3.7631739 7.032785,4.0127457 9.185231,0.7276974 2.048696,-3.12670439 4.080361,-3.85447989 6.785503,-2.43067751 3.083588,1.62299041 3.518209,2.61585301 2.961611,6.76560151 -0.610604,4.5523934 0.770386,5.8377874 6.728097,6.2623534 3.821416,0.272327 4.677616,0.747679 5.878318,3.263567 1.345157,2.81857 1.270456,3.057473 -1.742531,5.572826 -3.922219,3.274414 -4.170613,7.032765 -0.647937,9.803702 2.68964,2.115671 3.10644,4.177 1.464816,7.244401 -0.775036,1.448169 -2.106957,1.934259 -5.3,1.934259 -5.360332,0 -6.664816,1.304484 -6.664816,6.664816 0,3.193043 -0.48609,4.524964 -1.934259,5.3 -3.151557,1.686663 -5.79419,1.195864 -7.887081,-1.464816 -1.134418,-1.442179 -2.995449,-2.5 -4.398266,-2.5 -1.337471,0 -3.488649,1.125 -4.780394,2.5 -2.734393,2.910628 -4.660729,3.126363 -7.866457,0.880984 z M 35.222269,35.323655 c 5.584593,-5.584593 4.377636,-13.491724 -2.611044,-17.105711 -3.661293,-1.893328 -5.377339,-1.878355 -9.510554,0.08298 -10.433829,4.951176 -6.368177,20.405889 5.371598,20.418989 2.479421,0.0028 4.233573,-0.879835 6.75,-3.396262 z"
     id="path12"
     inkscape:connector-curvature="0" />
</svg>
