<?xml version="1.0" encoding="utf-8"?>
<!-- Generator: Adobe Illustrator 21.0.2, SVG Export Plug-In . SVG Version: 6.00 Build 0)  -->
<svg version="1.1" id="Слой_1" xmlns="http://www.w3.org/2000/svg" xmlns:xlink="http://www.w3.org/1999/xlink" x="0px" y="0px"
	 viewBox="0 0 55.4 55.4" style="enable-background:new 0 0 55.4 55.4;" xml:space="preserve">
<style type="text/css">
	.st0{fill:#8A91C1;}
</style>
<path class="st0" d="M54,34c-1.1-1-2.3-2-3.5-2.9c-0.8-0.5-1.2-1.4-1.1-2.3c0.1-0.7,0.1-1.4,0-2.1c-0.1-0.6,0.2-1.2,0.7-1.5
	c1.3-1,2.6-2,3.9-3.1c1.2-0.8,1.6-2.4,1-3.8c-0.3-0.9-0.7-1.8-1-2.7c-0.5-1.4-1.9-2.3-3.4-2.1c-1.6,0.1-3.1,0.2-4.7,0.4
	c-0.8,0.2-1.6-0.1-2-0.8c-0.4-0.6-1.2-1.1-1.7-1.7c-0.3-0.3-0.4-0.7-0.4-1.1c0.2-1.8,0.4-3.7,0.6-5.5c0.2-1.3-0.6-2.6-1.8-3.1
	c-1-0.4-1.9-0.9-2.9-1.3c-1.3-0.6-2.9-0.3-3.7,0.9c-1.1,1.2-2.2,2.5-3.1,3.8c-0.4,0.7-1.3,1.1-2.1,0.9c-0.7-0.1-1.5,0-2.2-0.1
	c-0.4,0-0.8-0.2-1.1-0.5C24.2,4,23.1,2.6,22,1.2c-0.8-1.1-2.3-1.5-3.6-1c-0.8,0.3-1.6,0.6-2.4,0.9c-2,0.8-2.6,1.8-2.4,3.9
	c0.2,1.6,0.3,3.3,0.4,4.9c0,0.3-0.1,0.7-0.4,0.9c-0.7,0.7-1.5,1.3-2.1,2.1c-0.4,0.5-1,0.7-1.6,0.6C8.2,13.3,6.6,13.2,5,13
	c-1.5-0.3-2.9,0.6-3.4,2c-0.4,0.9-0.8,1.7-1.1,2.6c-0.7,1.3-0.3,2.9,0.9,3.8c1.2,1.1,2.5,2.1,3.7,3.1c0.4,0.3,0.7,0.8,0.6,1.3
	c-0.1,1-0.1,2,0,2.9c0.1,0.6-0.2,1.3-0.8,1.6c-1.3,1-2.5,2-3.8,3c-1.1,0.8-1.5,2.3-1,3.6c0.3,0.9,0.7,1.7,1,2.6
	C2,41.4,2.9,42,5,41.8c1.5-0.1,3.1-0.3,4.6-0.4c0.4,0,0.8,0.2,1.2,0.5c0.8,0.7,1.6,1.5,2.3,2.4c0.3,0.3,0.5,0.7,0.5,1.2
	c-0.1,1.6-0.3,3.2-0.5,4.9c-0.3,1.5,0.5,2.9,1.9,3.4c0.9,0.4,1.8,0.8,2.6,1.1c1.3,0.7,3,0.3,3.9-0.9c1-1.2,2.1-2.4,3.1-3.7
	c0.3-0.4,0.8-0.6,1.3-0.6c1,0.1,2.1,0.1,3.1,0c0.5-0.1,1,0.2,1.3,0.6c1,1.3,2,2.6,3,3.8c0.8,1.1,2.2,1.5,3.5,1
	c1-0.3,1.9-0.7,2.8-1.1c1.6-0.4,2.5-2,2.2-3.6c-0.2-1.6-0.3-3.3-0.4-4.9c0-0.3,0.1-0.7,0.4-0.9c0.7-0.7,1.5-1.4,2.2-2.1
	c0.4-0.5,1.1-0.8,1.8-0.6c1.7,0.2,3.3,0.4,5,0.5c1.3,0.2,2.5-0.5,3-1.8c0.4-0.9,0.8-1.9,1.2-2.9C55.6,36.5,55.2,34.9,54,34z
	 M38.9,28.1c-0.1,6-5,10.8-11,10.8c-6,0-10.9-4.9-10.9-11c0-6,4.9-10.9,11-10.9C34.1,17.1,39,22,38.9,28.1
	C38.9,28,38.9,28.1,38.9,28.1z"/>
</svg>
