<?xml version="1.0" encoding="utf-8"?>
<!-- Generator: Adobe Illustrator 21.0.2, SVG Export Plug-In . SVG Version: 6.00 Build 0)  -->
<svg version="1.1" id="Слой_1" xmlns="http://www.w3.org/2000/svg" xmlns:xlink="http://www.w3.org/1999/xlink" x="0px" y="0px"
	 viewBox="0 0 65 54.6" style="enable-background:new 0 0 65 54.6;" xml:space="preserve">
<style type="text/css">
	.st0{fill:#8A91C1;}
</style>
<path class="st0" d="M62.5,1.7c-6.6-2.3-13.8-2.2-20.4,0.3c-3.4,1.3-6.6,3.2-9.3,5.7l-0.5-0.4C23.6-0.1,13.7-1.9,2.7,2
	C0.5,2.8,0,3.5,0,5.6C0,19.3,0.1,32.9,0,46.6c0,2.9,1.2,4.8,5.1,3.6c7.7-2.4,16.1-1.3,23,2.9c0.7,0.4,1.5,0.8,2.3,1.1
	c2.8,1,5.2,0.1,7.6-1.3c6.9-4,15.2-5.1,22.8-2.9c2.6,0.7,4.2-0.4,4.2-2.9c0-14.1,0-28.2,0-42.3C65.1,3.4,64.1,2,62.5,1.7z
	 M28.5,43.8c0,0.2,0,0.5-0.1,0.7c-6.3-2.8-13.3-3.8-20.2-2.8V8.2c5.1-1.3,10.6-0.6,15.2,2.1c1.9,0.9,3.5,2.3,4.7,4
	c0.2,0.4,0.4,0.8,0.4,1.3C28.5,25.1,28.5,34.5,28.5,43.8z M56.8,41.6c-6.9-0.7-13.9,0.4-20.2,3.3v-1.3c0-9.1,0-18.3,0-27.4
	c0-0.6,0.2-1.2,0.6-1.7c5-5.5,11.3-7.7,19-6.7c0.2,0,0.4,0.1,0.6,0.2V41.6z"/>
</svg>
