<?xml version="1.0" encoding="UTF-8" standalone="no"?>
<!-- Created with Inkscape (http://www.inkscape.org/) -->

<svg
   xmlns:dc="http://purl.org/dc/elements/1.1/"
   xmlns:cc="http://creativecommons.org/ns#"
   xmlns:rdf="http://www.w3.org/1999/02/22-rdf-syntax-ns#"
   xmlns:svg="http://www.w3.org/2000/svg"
   xmlns="http://www.w3.org/2000/svg"
   xmlns:sodipodi="http://sodipodi.sourceforge.net/DTD/sodipodi-0.dtd"
   xmlns:inkscape="http://www.inkscape.org/namespaces/inkscape"
   version="1.1"
   id="svg2"
   width="64.985107"
   height="53.689289"
   viewBox="0 0 64.985107 53.689289"
   sodipodi:docname="ed.svg"
   inkscape:version="0.92.1 r15371">
  <metadata
     id="metadata8">
    <rdf:RDF>
      <cc:Work
         rdf:about="">
        <dc:format>image/svg+xml</dc:format>
        <dc:type
           rdf:resource="http://purl.org/dc/dcmitype/StillImage" />
        <dc:title></dc:title>
      </cc:Work>
    </rdf:RDF>
  </metadata>
  <defs
     id="defs6" />
  <sodipodi:namedview
     pagecolor="#ffffff"
     bordercolor="#666666"
     borderopacity="1"
     objecttolerance="10"
     gridtolerance="10"
     guidetolerance="10"
     inkscape:pageopacity="0"
     inkscape:pageshadow="2"
     inkscape:window-width="1366"
     inkscape:window-height="705"
     id="namedview4"
     showgrid="false"
     inkscape:zoom="4.2142857"
     inkscape:cx="120.04439"
     inkscape:cy="20.862514"
     inkscape:window-x="1272"
     inkscape:window-y="49"
     inkscape:window-maximized="1"
     inkscape:current-layer="svg2" />
  <g
     id="g12"
     transform="translate(-0.014933,-1.1054262)">
    <path
       style="fill:#b0b4d4"
       d="m 11.761659,49.292739 c 1.243913,-0.239193 3.043913,-0.230112 4,0.02018 C 16.717747,49.563212 15.7,49.758916 13.5,49.747817 c -2.2,-0.0111 -2.982253,-0.215885 -1.738341,-0.455078 z m 39,0 c 1.243913,-0.239193 3.043913,-0.230112 4,0.02018 C 55.717747,49.563212 54.7,49.758916 52.5,49.747817 50.3,49.736717 49.517747,49.531932 50.761659,49.292739 Z M 36.184982,30.75 c 0.187513,-15.458585 0.570779,-13.634271 1.050898,5.002179 0.145266,5.638698 -0.07338,10.251198 -0.48588,10.25 C 36.3375,46.000981 36.083242,39.1375 36.184982,30.75 Z m -8.188155,-0.952888 c -0.273255,-8.636589 -0.146853,-15.351615 0.280893,-14.922281 0.427746,0.429335 0.651318,7.495635 0.496826,15.702889 L 28.493653,45.5 Z M 8.75,42.337719 c 0.6875,-0.277412 1.8125,-0.277412 2.5,0 0.6875,0.277413 0.125,0.504386 -1.25,0.504386 -1.375,0 -1.9375,-0.226973 -1.25,-0.504386 z m 6.980968,0.0063 c 0.677033,-0.273923 2.027033,-0.290597 3,-0.03705 C 19.703936,42.560553 19.15,42.784672 17.5,42.805051 15.85,42.825431 15.053936,42.617986 15.730968,42.344063 Z M 47.75,42.337719 c 0.6875,-0.277412 1.8125,-0.277412 2.5,0 0.6875,0.277413 0.125,0.504386 -1.25,0.504386 -1.375,0 -1.9375,-0.226973 -1.25,-0.504386 z m 7.0625,-0.02083 c 0.721875,-0.288871 1.584375,-0.253344 1.916667,0.07895 0.332291,0.332292 -0.258334,0.568641 -1.3125,0.52522 -1.164943,-0.04798 -1.4019,-0.284941 -0.604167,-0.604167 z M 9.75,8.3377193 c 0.6875,-0.2774123 1.8125,-0.2774123 2.5,0 0.6875,0.2774123 0.125,0.504386 -1.25,0.504386 -1.375,0 -1.9375,-0.2269737 -1.25,-0.504386 z m 6.0625,-0.020833 c 0.721875,-0.2888706 1.584375,-0.2533443 1.916667,0.078947 0.332291,0.3322917 -0.258334,0.5686404 -1.3125,0.5252193 C 15.251724,8.8730687 15.014767,8.6361123 15.8125,8.3168863 Z M 48.75,8.3377193 c 0.6875,-0.2774123 1.8125,-0.2774123 2.5,0 0.6875,0.2774123 0.125,0.504386 -1.25,0.504386 -1.375,0 -1.9375,-0.2269737 -1.25,-0.504386 z m 5,0 c 0.6875,-0.2774123 1.8125,-0.2774123 2.5,0 0.6875,0.2774123 0.125,0.504386 -1.25,0.504386 -1.375,0 -1.9375,-0.2269737 -1.25,-0.504386 z M 6.8125,1.316886 C 7.534375,1.0280154 8.396875,1.0635417 8.7291667,1.3958333 9.0614583,1.728125 8.4708333,1.9644737 7.4166667,1.9210526 6.2517237,1.8730687 6.0147673,1.6361123 6.8125,1.316886 Z m 12,0 c 0.721875,-0.2888706 1.584375,-0.2533443 1.916667,0.078947 0.332291,0.3322917 -0.258334,0.5686404 -1.3125,0.5252193 -1.164943,-0.047984 -1.4019,-0.28494 -0.604167,-0.6041663 z"
       id="path16"
       inkscape:connector-curvature="0" />
    <path
       style="fill:#8990c0"
       d="M 26,52.573567 C 19.863707,49.391817 14.188831,48.611404 7.414716,50.017705 2.775439,50.980815 1.5831597,50.949824 0.88488176,49.847975 0.41504084,49.106589 0.0237348,38.7676 0.01531277,26.872445 0.0031059,9.6316231 0.28146778,5.0112919 1.3876976,4.0932027 2.1509313,3.459775 5.2518305,2.4220781 8.2785847,1.7872097 15.085888,0.35936285 22.824075,1.8368998 28.406904,5.6305303 l 3.784425,2.5715832 6.154336,-3.082733 C 45.461254,1.5551511 51.042903,0.47942756 57.442018,1.4390343 65.084173,2.5850462 65,2.3009412 65,26.948984 c 0,16.524993 -0.310749,22.064026 -1.283103,22.871007 -0.890786,0.739287 -2.648885,0.75571 -5.75,0.05371 C 52.325162,48.59659 46.157934,49.49746 39.408874,52.584547 32.961189,55.533781 31.70706,55.532754 26,52.573567 Z m 16.5,-8.706858 c 1.65,-0.508747 5.5875,-1.008051 8.75,-1.109564 L 57,42.572575 V 25.286287 8 H 52.967881 C 47.987363,8 42.378844,10.264309 38.75,13.740139 L 36,16.374182 V 31.29408 c 0,13.813669 0.129753,14.867171 1.75,14.20876 0.9625,-0.391126 3.1,-1.127385 4.75,-1.636131 z M 29,30.088894 V 15.177787 L 25.954934,12.615533 C 22.242481,9.4917103 16.689342,7.7216212 12,8.1673328 L 8.5,8.5 8.2271317,25.576317 7.9542633,42.652633 14.227132,42.756324 C 17.677209,42.813354 21.625,43.312987 23,43.866621 c 6.045757,2.434279 6,2.539352 6,-13.777727 z"
       id="path14"
       inkscape:connector-curvature="0" />
  </g>
</svg>
