<?xml version="1.0" encoding="utf-8"?>
<!-- Generator: Adobe Illustrator 21.0.2, SVG Export Plug-In . SVG Version: 6.00 Build 0)  -->
<svg version="1.1" id="Слой_1" xmlns="http://www.w3.org/2000/svg" xmlns:xlink="http://www.w3.org/1999/xlink" x="0px" y="0px"
	 viewBox="0 0 76.8 80.4" style="enable-background:new 0 0 76.8 80.4;" xml:space="preserve">
<style type="text/css">
	.st0{fill:#F46267;}
</style>
<path class="st0" d="M76.7,64.9c-0.5-7.4-3.9-13.1-9.8-16.4c-2.3-1.3-4.7-2.5-7-3.7c-1.1-0.6-2.3-1.1-3.4-1.7
	c-0.4-0.2-0.9-0.5-1.4-0.7c-0.9-0.4-1.8-0.9-2.6-1.4c-0.6-0.8-0.7-1.8-0.2-2.6l0.6-1.2c1.6-2.5,2.8-5.3,3.6-8.1
	c1-3.9,1.4-7.9,1.2-11.9C57.4,9.7,54,4.5,47.9,2c-5.7-2.4-12-2.6-17.8-0.5c-4,1.3-7.4,4.2-9.4,8C18,14.5,18.6,19.5,19.1,24
	c0.1,1,0.2,2,0.3,3c0.3,2,0.9,4,1.9,5.7c0.2,0.4,0.4,0.7,0.5,1.1c0.7,1.4,1.4,2.7,2.1,3.9l0.7,1.2c-0.3,2.1-0.7,2.4-1.6,2.7
	c-1.2,0.4-2.3,1-3.4,1.6l-2.4,1.3c-3.1,1.6-6.2,3.3-9.3,5.2C4.1,52.1,1.4,56,0.6,60.5c-0.4,2.4-0.6,4.9-0.6,7.4c0,0.9,0,1.7-0.1,2.6
	c-0.2,2.8,1.7,5.2,4.4,5.8l3.4,0.9c2.3,0.6,4.7,1.3,7,1.8c0.2,0.1,0.4,0.1,0.7,0.2c3,0.7,6.1,1,9.3,1L50,80.4h0.4
	c4,0,8-0.5,11.8-1.5c4.6-1.2,8.1-2.1,10.3-2.8c2.1-0.8,3.6-2.6,3.9-4.9C76.8,69.1,76.8,67,76.7,64.9z M69.6,69.5
	c-2.2,0.6-5.3,1.4-9.2,2.4c-3.4,0.9-6.9,1.3-10.4,1.3L24.7,73c-2.6,0-5.2-0.3-7.8-0.8c-0.2,0-0.3-0.1-0.5-0.1
	c-2.3-0.6-4.6-1.2-6.9-1.8c-0.8-0.2-1.6-0.4-2.5-0.7h0c0-0.5,0-1,0-1.5c0-2.1,0.2-4.2,0.5-6.3c0.4-2.5,1.8-4.7,4-6
	c2.9-1.8,6-3.4,9-5l2.5-1.3c0.7-0.4,1.5-0.8,2.3-1.1c5.5-1.9,6.1-6.8,6.4-9.4c0.1-1-0.1-2-0.6-2.8c-0.3-0.6-0.7-1.2-1-1.9
	c-0.7-1.2-1.3-2.3-1.9-3.5c-0.2-0.4-0.4-0.8-0.6-1.2c-0.6-0.9-1-2-1.2-3c-0.1-1.1-0.2-2.2-0.3-3.3c-0.5-3.9-0.8-7.3,0.8-10.4
	c1.1-2.2,3.1-3.8,5.4-4.6c4.2-1.5,8.8-1.4,12.9,0.4c3.6,1.5,5.4,4.3,5.7,8.9c0.2,3.3-0.2,6.6-1,9.7c-0.7,2.2-1.7,4.4-2.9,6.4
	l-0.7,1.2c-2.2,4.1-1.3,9.3,2.2,11.8c1.2,0.8,2.4,1.5,3.7,2.1c0.4,0.2,0.8,0.4,1.2,0.6c1.1,0.6,2.3,1.2,3.4,1.8
	c2.2,1.1,4.5,2.3,6.7,3.5c3.8,2.2,5.9,5.7,6.2,10.7C69.8,66.7,69.7,68.1,69.6,69.5z"/>
</svg>
