<?xml version="1.0" encoding="UTF-8" standalone="no"?>
<!-- Created with Inkscape (http://www.inkscape.org/) -->

<svg
   xmlns:dc="http://purl.org/dc/elements/1.1/"
   xmlns:cc="http://creativecommons.org/ns#"
   xmlns:rdf="http://www.w3.org/1999/02/22-rdf-syntax-ns#"
   xmlns:svg="http://www.w3.org/2000/svg"
   xmlns="http://www.w3.org/2000/svg"
   xmlns:sodipodi="http://sodipodi.sourceforge.net/DTD/sodipodi-0.dtd"
   xmlns:inkscape="http://www.inkscape.org/namespaces/inkscape"
   version="1.1"
   id="svg2"
   width="76.626816"
   height="80.720657"
   viewBox="0 0 76.626816 80.720657"
   sodipodi:docname="expert.svg"
   inkscape:version="0.92.1 r15371">
  <metadata
     id="metadata8">
    <rdf:RDF>
      <cc:Work
         rdf:about="">
        <dc:format>image/svg+xml</dc:format>
        <dc:type
           rdf:resource="http://purl.org/dc/dcmitype/StillImage" />
        <dc:title></dc:title>
      </cc:Work>
    </rdf:RDF>
  </metadata>
  <defs
     id="defs6" />
  <sodipodi:namedview
     pagecolor="#ffffff"
     bordercolor="#666666"
     borderopacity="1"
     objecttolerance="10"
     gridtolerance="10"
     guidetolerance="10"
     inkscape:pageopacity="0"
     inkscape:pageshadow="2"
     inkscape:window-width="1366"
     inkscape:window-height="705"
     id="namedview4"
     showgrid="false"
     inkscape:zoom="2.9135802"
     inkscape:cx="140.87115"
     inkscape:cy="35.1938"
     inkscape:window-x="1272"
     inkscape:window-y="49"
     inkscape:window-maximized="1"
     inkscape:current-layer="svg2" />
  <g
     id="g12"
     transform="translate(-0.25173362,-0.12144871)">
    <path
       style="fill:#f79da0"
       d="m 22.223567,80.273107 c 2.047962,-0.214877 5.647962,-0.217849 8,-0.0066 C 32.575605,80.477749 30.9,80.653557 26.5,80.65719 22.1,80.66079 20.175605,80.487985 22.223567,80.273107 Z M 54.75,80.337719 c 0.6875,-0.277412 1.8125,-0.277412 2.5,0 0.6875,0.277413 0.125,0.504386 -1.25,0.504386 -1.375,0 -1.9375,-0.226973 -1.25,-0.504386 z M 72.083333,76.717032 C 72.3125,76.5614 73.4,75.7739 74.5,74.967032 76.350006,73.610023 76.397071,73.631245 75.127555,75.25 74.372711,76.2125 73.285211,77 72.710889,77 72.136567,77 71.854167,76.872665 72.083333,76.717032 Z M 22.75,73.276604 c 1.7875,-0.221826 4.7125,-0.221826 6.5,0 1.7875,0.221827 0.325,0.403322 -3.25,0.403322 -3.575,0 -5.0375,-0.181495 -3.25,-0.403322 z m 32,0.06112 c 0.6875,-0.277412 1.8125,-0.277412 2.5,0 0.6875,0.277413 0.125,0.504386 -1.25,0.504386 -1.375,0 -1.9375,-0.226973 -1.25,-0.504386 z m 21.328947,-1.921052 c 0.04798,-1.164943 0.284941,-1.4019 0.604167,-0.604167 0.288871,0.721875 0.253344,1.584375 -0.07895,1.916667 -0.332292,0.332291 -0.568641,-0.258334 -0.52522,-1.3125 z M 0.2521834,65.5 c -0.0110994,-2.2 0.18460416,-3.217747 0.43489676,-2.261659 0.25029261,0.956087 0.25937392,2.756087 0.0201807,4 C 0.46806765,68.482253 0.26328279,67.7 0.2521834,65.5 Z m 6.9427653,-1 c 0.02038,-1.65 0.2444986,-2.203936 0.498042,-1.230968 0.2535434,0.972967 0.2368691,2.322967 -0.037054,3 C 7.3820136,66.946064 7.174569,66.15 7.1949487,64.5 Z M 69.078947,63.416667 c 0.04798,-1.164943 0.284941,-1.4019 0.604167,-0.604167 0.288871,0.721875 0.253344,1.584375 -0.07895,1.916667 -0.332292,0.332291 -0.568641,-0.258334 -0.52522,-1.3125 z m 7,0 c 0.04798,-1.164943 0.284941,-1.4019 0.604167,-0.604167 0.288871,0.721875 0.253344,1.584375 -0.07895,1.916667 -0.332292,0.332291 -0.568641,-0.258334 -0.52522,-1.3125 z M 9.5,58 c 0.995486,-1.1 2.034975,-2 2.309975,-2 0.275,0 -0.314489,0.9 -1.309975,2 C 9.5045137,59.1 8.4650249,60 8.1900249,60 7.9150249,60 8.5045137,59.1 9.5,58 Z M 65.404988,56.75 63.5,54.5 l 2.25,1.904988 c 1.2375,1.047743 2.25,2.060243 2.25,2.25 0,0.800253 -0.804794,0.209457 -2.595012,-1.904988 z M 5,52.5 C 6.2917454,51.125 7.5736281,50 7.8486281,50 8.1236281,50 7.2917454,51.125 6,52.5 4.7082546,53.875 3.4263719,55 3.1513719,55 2.8763719,55 3.7082546,53.875 5,52.5 Z M 70.404988,51.75 68.5,49.5 70.75,51.404988 C 72.864445,53.195206 73.455241,54 72.654988,54 c -0.189757,0 -1.202257,-1.0125 -2.25,-2.25 z M 45.232003,40 c 0,-1.925 0.205795,-2.7125 0.457323,-1.75 0.251527,0.9625 0.251527,2.5375 0,3.5 -0.251528,0.9625 -0.457323,0.175 -0.457323,-1.75 z m -21.50079,-0.919841 c -0.434974,-1.663345 -0.304831,-2.053777 0.437237,-1.311709 0.581102,0.581102 0.859794,1.646819 0.619313,2.36826 -0.249648,0.748946 -0.702941,0.295653 -1.05655,-1.056551 z M 52,39.059017 c 0,-0.517541 0.444846,-1.215913 0.988546,-1.551938 0.56686,-0.350339 0.734507,0.05106 0.393011,0.940983 C 52.716766,40.180479 52,40.497449 52,39.059017 Z M 19.194949,26.5 c 0.02038,-1.65 0.244498,-2.203936 0.498042,-1.230968 0.253543,0.972967 0.236869,2.322967 -0.03705,3 C 19.382014,28.946064 19.174569,28.15 19.194949,26.5 Z m 6.883998,-0.08333 c 0.04798,-1.164943 0.284941,-1.4019 0.604167,-0.604167 0.288871,0.721875 0.253344,1.584375 -0.07895,1.916667 -0.332292,0.332291 -0.568641,-0.258334 -0.52522,-1.3125 z m 24,-1 c 0.04798,-1.164943 0.284941,-1.4019 0.604167,-0.604167 0.288871,0.721875 0.253344,1.584375 -0.07895,1.916667 -0.332292,0.332291 -0.568641,-0.258334 -0.52522,-1.3125 z m 7,0 c 0.04798,-1.164943 0.284941,-1.4019 0.604167,-0.604167 0.288871,0.721875 0.253344,1.584375 -0.07895,1.916667 -0.332292,0.332291 -0.568641,-0.258334 -0.52522,-1.3125 z m 0,-11 c 0.04798,-1.164943 0.284941,-1.4019 0.604167,-0.604167 0.288871,0.721875 0.253344,1.584375 -0.07895,1.916667 -0.332292,0.332291 -0.568641,-0.258334 -0.52522,-1.3125 z M 28.5,11 c 0.995486,-1.1 2.034975,-2 2.309975,-2 0.275,0 -0.314489,0.9 -1.309975,2 -0.995486,1.1 -2.034975,2 -2.309975,2 -0.275,0 0.314489,-0.9 1.309975,-2 z M 47.404988,10.75 45.5,8.5 47.75,10.404988 C 49.864445,12.195206 50.455241,13 49.654988,13 c -0.189757,0 -1.202257,-1.0125 -2.25,-2.25 z m 8.159305,-0.456872 c -0.542685,-1.4251984 -0.427821,-1.5400619 0.559795,-0.5597947 0.683418,0.6783337 0.990671,1.4852407 0.682784,1.7931277 -0.307887,0.307888 -0.867048,-0.247112 -1.242579,-1.233333 z M 23.5,6 C 24.495486,4.9 25.534975,4 25.809975,4 26.084975,4 25.495486,4.9 24.5,6 23.504514,7.1 22.465025,8 22.190025,8 21.915025,8 22.504514,7.1 23.5,6 Z m 14.3125,1.316886 c 0.721875,-0.2888706 1.584375,-0.2533443 1.916667,0.078947 0.332291,0.3322917 -0.258334,0.5686404 -1.3125,0.5252193 -1.164943,-0.047984 -1.4019,-0.28494 -0.604167,-0.6041663 z M 52.404988,5.75 50.5,3.5 52.75,5.4049876 C 54.864445,7.1952058 55.455241,8 54.654988,8 54.465231,8 53.452731,6.9875 52.404988,5.75 Z M 37.8125,0.31688596 c 0.721875,-0.28887061 1.584375,-0.25334429 1.916667,0.0789474 0.332291,0.33229167 -0.258334,0.56864035 -1.3125,0.5252193 -1.164943,-0.0479839 -1.4019,-0.2849403 -0.604167,-0.6041667 z"
       id="path16"
       inkscape:connector-curvature="0" />
    <path
       style="fill:#f36267"
       d="M 24,80.004263 C 13.352684,79.183071 3.6062054,77.006205 1.6016067,75.001607 0.10227212,73.502272 0.71708515,60.443413 2.4431693,57.126502 4.5006392,53.172787 7.7081978,50.585835 16.242003,45.997503 c 4.258102,-2.289434 8.00081,-4.581365 8.317128,-5.093179 0.316319,-0.511815 -0.559777,-3.287166 -1.94688,-6.167448 -4.909303,-10.194035 -4.408558,-22.684285 1.1218,-27.9814569 8.188245,-7.8429895 23.634941,-7.4582498 30.091156,0.7494976 4.904237,6.2347273 5.158396,18.2474993 0.577107,27.2768263 -1.316669,2.595041 -2.395827,5.193821 -2.398129,5.775066 -0.0023,0.581244 3.250495,2.606244 7.228438,4.5 9.880513,4.703756 15.210629,10.11993 16.67395,16.94316 1.23431,5.755386 0.629704,11.310071 -1.415838,13.007721 C 69.103362,79.478812 46.363883,81.729115 24,80.004263 Z M 63.5,72.169907 C 69.471109,70.507901 69.501312,70.480599 69.772405,66.49993 70.213716,60.019823 67.427122,56.736815 57.07072,51.535518 52.126673,49.052468 47.613196,46.145767 47.040772,45.076183 45.354434,41.925232 45.833115,37.557081 48.490231,31.849297 51.721896,24.907316 51.972592,15.506167 49.025939,11.760105 44.817127,6.4094681 32.772881,6.2606575 28.25,11.503412 c -3.518806,4.078868 -3.187414,13.696615 0.740012,21.476802 2.764649,5.476739 2.896449,6.209467 1.748661,9.721483 -1.104101,3.378341 -2.233799,4.324066 -10.217443,8.553511 C 8.9058597,57.408611 7.7810567,58.595026 7.2268714,65.277772 l -0.4475295,5.396618 6.8603291,1.565062 c 9.938402,2.267271 41.6236,2.223076 49.860329,-0.06955 z"
       id="path14"
       inkscape:connector-curvature="0" />
  </g>
</svg>
