<?xml version="1.0" encoding="utf-8"?>
<!-- Generator: Adobe Illustrator 21.0.2, SVG Export Plug-In . SVG Version: 6.00 Build 0)  -->
<svg version="1.1" id="Слой_1" xmlns="http://www.w3.org/2000/svg" xmlns:xlink="http://www.w3.org/1999/xlink" x="0px" y="0px"
	 viewBox="0 0 53 70" style="enable-background:new 0 0 53 70;" xml:space="preserve">
<style type="text/css">
	.st0{fill:#8A91C1;}
</style>
<path class="st0" d="M31.2,34.4c0.4-0.7,0.8-1.4,1.2-2.2c0.6-2,2.5-3.4,4.6-3.5c2.4-0.3,4.5-1.7,5.6-3.9c0.7-1.1,1.4-2.3,2-3.4
	c2.7-4.7,5.5-9.4,8.3-14.1c-0.2-0.2-0.4-0.4-0.5-0.5c-1.6-1.1-1.6-1.1-2.7,0.5c-2.8,4.3-5.5,8.6-8.3,12.9c-0.4,0.6-0.7,1.3-1.7,0.8
	c-1-0.6-0.6-1.3-0.2-1.9c0.2-0.3,0.4-0.7,0.6-1c2.5-4.3,5-8.7,7.5-13c0.4-0.7,0.4-1.2-0.4-1.6c-0.5-0.2-0.9-0.5-1.4-0.8
	c-0.3,0.5-0.6,0.8-0.8,1.2c-2.9,4.5-5.8,8.9-8.6,13.4c-0.5,0.8-0.9,1.1-1.8,0.5c-0.7-0.5-0.5-1-0.2-1.6c2.6-4.4,5.1-8.8,7.7-13.2
	c1.3-2.2,1.3-2.2-1-3.2c0,0-0.1,0-0.2,0c-0.2,0.2-0.4,0.4-0.5,0.7c-3.4,5.3-6.8,10.6-10.2,16c-1.6,2.3-2,5.2-1.1,7.8
	c0.6,1.7,0.7,3.3-0.7,4.7c-0.2,0.3-0.3,0.7-0.2,1.1C29.2,31.6,30.2,32.9,31.2,34.4z"/>
<path class="st0" d="M19.5,42.4c-5,7.2-9.8,14.3-14.7,21.4c-0.7,1.1-0.5,2.5,0.6,3.3c0.1,0,0.1,0.1,0.2,0.1C6.8,68,8,68.7,9.2,69.4
	c1.7,1,2.9,0.7,3.8-1c3.3-6.1,6.6-12.2,9.9-18.3c0.2-0.4,0.2-0.8,0.1-1.1C21.9,46.8,20.7,44.7,19.5,42.4z"/>
<path class="st0" d="M25.5,32.8c-1.7-2.4-3.3-4.9-5-7.3c2.5-2,4.1-4.4,3.2-7.7c-0.5-1.6-1.1-3.1-2-4.6C19.6,9.9,17,7,14,4.6
	c-2.3-2.1-5-3.5-8-4.3C3.4-0.3,1.3,0.8,0.6,3.4C0.1,5-0.1,6.7,0,8.3c0.2,4.3,1.3,8.5,3.2,12.4c0.7,1.4,1.4,2.8,2.3,4
	c2.9,4.4,5.7,5.2,10.8,3.4c2.6,4.8,5.2,9.5,7.7,14.3c4.7,8.6,9.3,17.2,14,25.8c1,1.8,2.3,2.1,4,1.1c1.1-0.6,2.1-1.3,3.2-1.9
	c2.1-1.3,2.4-2.5,0.9-4.6C39.2,52.8,32.3,42.8,25.5,32.8z"/>
</svg>
