<?xml version="1.0" encoding="UTF-8" standalone="no"?>
<!-- Created with Inkscape (http://www.inkscape.org/) -->

<svg
   xmlns:dc="http://purl.org/dc/elements/1.1/"
   xmlns:cc="http://creativecommons.org/ns#"
   xmlns:rdf="http://www.w3.org/1999/02/22-rdf-syntax-ns#"
   xmlns:svg="http://www.w3.org/2000/svg"
   xmlns="http://www.w3.org/2000/svg"
   xmlns:sodipodi="http://sodipodi.sourceforge.net/DTD/sodipodi-0.dtd"
   xmlns:inkscape="http://www.inkscape.org/namespaces/inkscape"
   version="1.1"
   id="svg2"
   width="52.596378"
   height="69.049797"
   viewBox="0 0 52.596378 69.049797"
   sodipodi:docname="food.svg"
   inkscape:version="0.92.1 r15371">
  <metadata
     id="metadata8">
    <rdf:RDF>
      <cc:Work
         rdf:about="">
        <dc:format>image/svg+xml</dc:format>
        <dc:type
           rdf:resource="http://purl.org/dc/dcmitype/StillImage" />
        <dc:title></dc:title>
      </cc:Work>
    </rdf:RDF>
  </metadata>
  <defs
     id="defs6" />
  <sodipodi:namedview
     pagecolor="#ffffff"
     bordercolor="#666666"
     borderopacity="1"
     objecttolerance="10"
     gridtolerance="10"
     guidetolerance="10"
     inkscape:pageopacity="0"
     inkscape:pageshadow="2"
     inkscape:window-width="1366"
     inkscape:window-height="705"
     id="namedview4"
     showgrid="false"
     inkscape:zoom="3.3714286"
     inkscape:cx="115.11264"
     inkscape:cy="31.457116"
     inkscape:window-x="1272"
     inkscape:window-y="49"
     inkscape:window-maximized="1"
     inkscape:current-layer="svg2" />
  <g
     id="g12"
     transform="translate(-0.07380369,-0.670029)">
    <path
       style="fill:#adb2d3"
       d="m 28.458881,30.933469 c -0.362533,-0.586592 -0.444683,-1.281 -0.182555,-1.543128 0.262128,-0.262129 0.743066,0.21781 1.068751,1.066531 0.676184,1.762107 0.09985,2.072058 -0.886196,0.476597 z M 32,31.622445 c 0,-0.207656 0.7875,-0.995156 1.75,-1.75 C 35.336056,28.628574 35.371426,28.663944 34.127555,30.25 32.821186,31.915748 32,32.445479 32,31.622445 Z M 14.8125,28.316886 c 0.721875,-0.288871 1.584375,-0.253344 1.916667,0.07895 0.332291,0.332292 -0.258334,0.568641 -1.3125,0.52522 -1.164943,-0.04798 -1.4019,-0.284941 -0.604167,-0.604167 z M 20,25.622445 c 0,-0.207656 0.7875,-0.995156 1.75,-1.75 C 23.336056,22.628574 23.371426,22.663944 22.127555,24.25 20.821186,25.915748 20,26.445479 20,25.622445 Z M 34.458881,17.933469 C 34.096348,17.346877 34.06979,16.596877 34.399864,16.266802 34.729939,15.936728 35,16.246767 35,16.955778 c 0,1.020403 0.364779,1.003032 1.75,-0.08333 1.586056,-1.243871 1.621426,-1.208501 0.377555,0.377555 -1.60691,2.048967 -1.794981,2.097133 -2.668674,0.683469 z M 0.07894737,11.416667 c 0.04798392,-1.164943 0.2849403,-1.4019 0.60416667,-0.604167 0.28887061,0.721875 0.25334429,1.584375 -0.0789474,1.916667 -0.33229167,0.332291 -0.56864035,-0.258334 -0.52521927,-1.3125 z M 51.481411,9.1381966 C 51.940308,8.3316504 51.694322,7.4204864 50.878115,6.9035094 49.972049,6.3296167 49.90795,6.0253804 50.690983,6.0153128 c 1.871895,-0.024068 2.664078,2.0395551 1.27518,3.3218195 -0.974383,0.8995737 -1.084139,0.8545317 -0.484752,-0.1989357 z"
       id="path16"
       inkscape:connector-curvature="0" />
    <path
       style="fill:#8990c0"
       d="M 7.75,68.240142 C 6.2375,67.303285 5,65.984477 5,65.309458 5,64.634438 8.2473457,59.331707 12.216324,53.525612 L 19.432647,42.969074 21.131184,46.234537 22.829721,49.5 17.471436,59.481141 C 14.52438,64.970769 11.750193,69.570561 11.306576,69.7029 10.862959,69.83524 9.2625,69.176999 7.75,68.240142 Z m 31.627867,0.940083 C 38.819964,68.806101 33.444211,59.388277 27.431749,48.251726 L 16.5,28.003452 13.2544,28.612192 C 10.500342,29.128738 9.5644193,28.74522 7.0746016,26.079861 1.4229086,20.029704 -1.6200732,4.3925944 2.296476,1.5262883 4.5820492,-0.14639662 7.4126835,0.57579255 12.72154,4.1860698 c 8.264026,5.619934 12.762849,15.4112292 8.994338,19.5753882 -1.475612,1.630532 -0.621176,3.170575 12.00796,21.643248 12.916729,18.893337 13.501095,19.959162 11.686388,21.314824 -3.322788,2.482262 -4.987538,3.16134 -6.032359,2.460695 z M 29.898229,32.25 c -0.05597,-0.4125 -0.248567,-3.532622 -0.427984,-6.933605 -0.319219,-6.05104 -0.200869,-6.379087 5.520568,-15.302067 3.21573,-5.0151549 6.220822,-8.9825328 6.677984,-8.8163956 1.123916,0.4084425 0.839246,1.0832322 -3.829033,9.0764296 -2.715815,4.650118 -3.712162,7.25324 -3.035264,7.930138 0.676897,0.676897 2.597721,-1.488439 5.851586,-6.596467 2.664153,-4.1822765 5.443116,-7.6050154 6.175473,-7.6060862 0.981603,-0.00144 0.819083,0.8522093 -0.618375,3.2480532 -6.317512,10.529535 -7.434938,12.928246 -6.471407,13.891777 0.679199,0.679199 2.579258,-1.468768 5.808348,-6.566189 C 49.764665,7.9225441 52,5.5229423 52,7.6517357 52,8.6328645 42.960643,24.249269 41.26744,26.193319 c -0.811154,0.931326 -2.799623,1.984294 -4.41882,2.33993 -1.619198,0.355635 -3.480782,1.506141 -4.136855,2.55668 -1.211366,1.939706 -2.628458,2.523998 -2.813536,1.160071 z"
       id="path14"
       inkscape:connector-curvature="0" />
  </g>
</svg>
