<?xml version="1.0" encoding="utf-8"?>
<!-- Generator: Adobe Illustrator 21.0.2, SVG Export Plug-In . SVG Version: 6.00 Build 0)  -->
<svg version="1.1" id="Слой_1" xmlns="http://www.w3.org/2000/svg" xmlns:xlink="http://www.w3.org/1999/xlink" x="0px" y="0px"
	 viewBox="0 0 84.9 77" style="enable-background:new 0 0 84.9 77;" xml:space="preserve">
<style type="text/css">
	.st0{fill:#F46267;}
</style>
<path class="st0" d="M83.6,49.8C83.6,49.8,83.6,49.8,83.6,49.8L83.6,49.8c-1.2-1.4-3.4-1.6-4.8-0.4c-0.1,0.1-0.3,0.2-0.4,0.4
	c-1.5,1.4-2.9,3-4.4,4.4c-4.1,3.9-8.2,7.8-12.4,11.7c-2.2-2.1-4.8-4.6-7.4-7.1c-1.4-1.5-3.7-1.7-5.3-0.4c-1.5,1.4-1.7,3.7-0.4,5.3
	c0.1,0.2,0.3,0.3,0.5,0.4c4.3,4.2,8.6,8.3,13.2,12.8c0.4-0.6,0.8-1.1,1.3-1.6C70,69,76.4,62.5,82.9,56.1c0.4-0.4,0.7-0.7,1.1-1.1
	C85.3,53.5,85.1,51.1,83.6,49.8z"/>
<path class="st0" d="M54.6,40.1L54.6,40.1c-0.3-1.8-1.5-2.8-3.8-2.8c-6.5,0-13.1,0-19.6,0c-4.8,0-22.3,0-27.2,0
	c-2.3,0-3.7,1.2-3.9,3c-0.3,2.2,1.2,3.9,3.7,3.9c5.7,0,24.1,0,29.8,0c5.8,0,11.6,0,17.4,0C53.6,44.1,55,42.5,54.6,40.1z"/>
<path class="st0" d="M4.4,25.6h0.6c10.7,0,34,0,44.8,0c0.8,0,1.5,0,2.3-0.1c1.7-0.2,2.9-1.6,2.7-3.3c0-2.3-1.3-3.5-3.9-3.5
	c-5.7,0-11.3,0-17,0c-5.5,0-23.7,0-29.3,0c-2.9,0-4.4,1.2-4.5,3.5C0,24.4,1.4,25.6,4.4,25.6z"/>
<path class="st0" d="M4.4,7h0.6c10.7,0,34,0,44.8,0c0.8,0,1.5,0,2.3-0.1c1.7-0.2,2.9-1.6,2.7-3.3c0-2.3-1.3-3.5-3.9-3.5
	c-5.7,0-11.3,0-17,0C28.2,0,10,0,4.5,0C1.6,0,0,1.2,0,3.5C0,5.8,1.4,6.9,4.4,7z"/>
<path class="st0" d="M36.8,55.9L36.8,55.9c-6.7-0.1-26.1,0-32.8,0c-0.6,0-1.1,0.1-1.7,0.3c-1.7,0.5-2.7,2.3-2.2,4
	c0,0.1,0.1,0.2,0.1,0.4c0.6,1.9,2.2,2.3,3.9,2.3c3.3,0.1,19.2,0,22.5,0c3.3,0,6.7,0.2,10-0.1c1.3-0.1,2.6-0.7,3.5-1.7
	C41.7,58.7,40,55.9,36.8,55.9z"/>
</svg>
