<?xml version="1.0" encoding="UTF-8" standalone="no"?>
<!-- Created with Inkscape (http://www.inkscape.org/) -->

<svg
   xmlns:dc="http://purl.org/dc/elements/1.1/"
   xmlns:cc="http://creativecommons.org/ns#"
   xmlns:rdf="http://www.w3.org/1999/02/22-rdf-syntax-ns#"
   xmlns:svg="http://www.w3.org/2000/svg"
   xmlns="http://www.w3.org/2000/svg"
   xmlns:sodipodi="http://sodipodi.sourceforge.net/DTD/sodipodi-0.dtd"
   xmlns:inkscape="http://www.inkscape.org/namespaces/inkscape"
   version="1.1"
   id="svg2"
   width="84.65052"
   height="76.984589"
   viewBox="0 0 84.65052 76.984589"
   sodipodi:docname="garant.svg"
   inkscape:version="0.92.1 r15371">
  <metadata
     id="metadata8">
    <rdf:RDF>
      <cc:Work
         rdf:about="">
        <dc:format>image/svg+xml</dc:format>
        <dc:type
           rdf:resource="http://purl.org/dc/dcmitype/StillImage" />
        <dc:title></dc:title>
      </cc:Work>
    </rdf:RDF>
  </metadata>
  <defs
     id="defs6" />
  <sodipodi:namedview
     pagecolor="#ffffff"
     bordercolor="#666666"
     borderopacity="1"
     objecttolerance="10"
     gridtolerance="10"
     guidetolerance="10"
     inkscape:pageopacity="0"
     inkscape:pageshadow="2"
     inkscape:window-width="1366"
     inkscape:window-height="705"
     id="namedview4"
     showgrid="false"
     inkscape:zoom="3.025641"
     inkscape:cx="159.26709"
     inkscape:cy="39.252232"
     inkscape:window-x="1272"
     inkscape:window-y="49"
     inkscape:window-maximized="1"
     inkscape:current-layer="svg2" />
  <g
     id="g12"
     transform="translate(-0.19053827,-0.12357768)">
    <path
       style="fill:#f7a4a6"
       d="M 59.404988,74.75 57.5,72.5 59.75,74.404988 C 61.864445,76.195206 62.455241,77 61.654988,77 c -0.189757,0 -1.202257,-1.0125 -2.25,-2.25 z M 56.946167,62.25 53.5,58.5 l 3.75,3.446167 c 2.0625,1.895392 3.75,3.582892 3.75,3.75 0,0.76362 -0.846216,0.04425 -4.053833,-3.446167 z M 11.25,63.255432 c 4.8125,-0.183314 12.6875,-0.183314 17.5,0 4.8125,0.183314 0.875,0.333298 -8.75,0.333298 -9.625,0 -13.5625,-0.149984 -8.75,-0.333298 z m 28.481213,-4.175273 c -0.434974,-1.663345 -0.304831,-2.053777 0.437237,-1.311709 0.581102,0.581102 0.859794,1.646819 0.619313,2.36826 -0.249648,0.748946 -0.702941,0.295653 -1.05655,-1.056551 z m 9.00212,-0.204247 c 0.678334,-0.683418 1.485241,-0.990671 1.793128,-0.682784 0.307888,0.307887 -0.247112,0.867048 -1.233333,1.242579 -1.425198,0.542685 -1.540062,0.427821 -0.559795,-0.559795 z M 10.75,56.254932 c 5.0875,-0.181491 13.4125,-0.181491 18.5,0 5.0875,0.181491 0.925,0.329984 -9.25,0.329984 -10.175,0 -14.3375,-0.148493 -9.25,-0.329984 z M 75.5,53 c 2.148243,-2.2 4.130896,-4 4.405896,-4 0.275,0 -1.257653,1.8 -3.405896,4 -2.148243,2.2 -4.130896,4 -4.405896,4 -0.275,0 1.257653,-1.8 3.405896,-4 z M 83,50.5 C 82.315311,49.675 81.980111,49 82.255111,49 c 0.275,0 1.0602,0.675 1.744889,1.5 0.684689,0.825 1.019889,1.5 0.744889,1.5 -0.275,0 -1.0602,-0.675 -1.744889,-1.5 z M 14.809027,44.252193 c 7.319964,-0.171086 19.019964,-0.170619 26,0.001 C 47.789062,44.424889 41.8,44.564868 27.5,44.564297 13.2,44.563725 7.4890619,44.423278 14.809027,44.252193 Z m 39.26992,-2.835526 c 0.04798,-1.164943 0.284941,-1.4019 0.604167,-0.604167 0.288871,0.721875 0.253344,1.584375 -0.07895,1.916667 -0.332292,0.332291 -0.568641,-0.258334 -0.52522,-1.3125 z m 0,-19 c 0.04798,-1.164943 0.284941,-1.4019 0.604167,-0.604167 0.288871,0.721875 0.253344,1.584375 -0.07895,1.916667 -0.332292,0.332291 -0.568641,-0.258334 -0.52522,-1.3125 z M 15.308215,7.2523564 c 7.044519,-0.1721388 18.294519,-0.1716392 25,0.00111 C 47.013697,7.426216 41.25,7.5670569 27.5,7.5664462 13.75,7.5658356 8.2636969,7.4244951 15.308215,7.2523564 Z M 53.5,4 C 53.5,2.4550407 53.8375,1.3995695 54.25,1.6545085 54.6625,1.9094475 55,2.9649187 55,4 55,5.0350813 54.6625,6.0905525 54.25,6.3454915 53.8375,6.6004305 53.5,5.5449593 53.5,4 Z M 15.308215,0.25235636 c 7.044519,-0.17213878 18.294519,-0.17163916 25,0.00111 C 47.013697,0.42621604 41.25,0.56705686 27.5,0.56644622 13.75,0.56583558 8.2636969,0.42449514 15.308215,0.25235636 Z"
       id="path16"
       inkscape:connector-curvature="0" />
    <path
       style="fill:#f36267"
       d="m 55.178659,70.303683 c -7.4518,-7.063385 -8.566471,-9.490581 -5.188672,-11.298324 1.677148,-0.897582 2.677269,-0.431494 6.361831,2.964816 C 58.756332,64.186579 61.058502,66 61.467752,66 c 0.40925,0 4.994672,-3.901754 10.189827,-8.670565 l 9.445736,-8.670565 2.04873,2.04873 c 2.74519,2.74519 2.192679,3.599817 -10.406291,16.096482 L 62.357318,77.108164 Z M 1.123076,61.648297 C 0.48640583,60.881157 0.2500618,59.511924 0.59786702,58.605558 1.1598753,57.140988 3.3593996,56.987796 20.36512,57.22881 L 39.5,57.5 V 60 62.5 L 20.890329,62.771549 C 5.9429008,62.98966 2.0528546,62.768612 1.123076,61.648297 Z M 0.58973575,42.373252 C -0.99119058,38.253424 0.98699455,37.953407 27.886227,38.233394 L 53.5,38.5 53.816422,41.25 54.132845,44 H 27.673411 C 4.1601437,44 1.1444704,43.818867 0.58973575,42.373252 Z M 1.1189738,24.643355 c -1.5485789,-1.865924 -0.47855429,-4.312729 2.200201,-5.031159 2.9126181,-0.78115 45.5536612,-0.752865 48.4846352,0.03216 1.779142,0.476522 2.234621,1.213565 2,3.236345 L 53.5,25.5 27.886227,25.766606 C 6.9980576,25.984026 2.0596429,25.776792 1.1189738,24.643355 Z M 0.59602217,5.3896339 C -0.99190675,1.2515575 0.96713062,0.95320026 27.886227,1.2333935 L 53.5,1.5 V 4 6.5 L 27.363275,6.7663822 C 3.888679,7.0056322 1.1623287,6.865405 0.59602217,5.3896339 Z"
       id="path14"
       inkscape:connector-curvature="0" />
  </g>
</svg>
