<?xml version="1.0" encoding="utf-8"?>
<!-- Generator: Adobe Illustrator 21.0.2, SVG Export Plug-In . SVG Version: 6.00 Build 0)  -->
<svg version="1.1" id="Слой_1" xmlns="http://www.w3.org/2000/svg" xmlns:xlink="http://www.w3.org/1999/xlink" x="0px" y="0px"
	 viewBox="0 0 63.6 69.9" style="enable-background:new 0 0 63.6 69.9;" xml:space="preserve">
<style type="text/css">
	.st0{fill:#8A91C1;}
</style>
<path class="st0" d="M62.4,18.8C52.5,12.7,42.6,6.5,32.7,0.3c-0.6-0.4-1.3-0.4-1.9,0c-5.1,3.2-10.2,6.4-15.3,9.6l-14.5,9
	c-0.7,0.4-1.3,0.9-1.1,1.8c0.3,0.8,1.1,1.2,1.9,1.1c0.3,0,0.5,0,0.8,0h31c9.3,0,18.5,0,27.8,0c0.8,0,1.7,0,2-1
	C63.8,19.8,63.1,19.3,62.4,18.8z"/>
<path class="st0" d="M51.7,26c-0.1,0-0.3,0-0.4,0c-1.2,0-2.4,0-3.6,0c-2.1,0-2.8,0.7-2.8,2.8c0,4.5,0,9,0,13.6c0,4.4,0,8.8,0,13.2
	c0,2.7,0.6,3.3,3.2,3.3c1.1,0,2.1,0,3.2,0c1.2,0.1,2.2-0.8,2.3-2c0-0.1,0-0.2,0-0.3c0-9.4,0-18.8,0-28.2
	C53.8,27.1,52.9,26.1,51.7,26z"/>
<path class="st0" d="M30,58.9c1.2,0,2.4,0,3.6,0c1.9,0,2.6-0.8,2.6-2.6c0-4.6,0-9.1,0-13.7c0-4.7,0-9.3,0-14c0-1.8-0.8-2.6-2.6-2.6
	c-1.2,0-2.5,0-3.7,0c-1.2-0.2-2.3,0.7-2.5,1.9c0,0.2,0,0.4,0,0.6c0,9.3,0,18.6,0,27.9C27.4,58.1,28.2,58.9,30,58.9z"/>
<path class="st0" d="M12.3,58.9c1.3,0,2.6,0,3.9,0c1.2,0.1,2.3-0.7,2.4-1.9c0-0.1,0-0.3,0-0.4c0-9.4,0-18.8,0-28.2
	c0.1-1.2-0.8-2.2-1.9-2.3c-0.1,0-0.3,0-0.4,0c-1.2,0-2.5,0-3.7,0c-1.9,0-2.7,0.8-2.7,2.7c0,4.6,0,9.1,0,13.7c0,4.7,0,9.3,0,14
	c-0.2,1.2,0.7,2.3,1.9,2.5C11.9,58.9,12.1,58.9,12.3,58.9z"/>
<path class="st0" d="M61.4,63.6c-0.6-0.3-1.3-0.4-2-0.3c-18.2,0-36.4,0-54.6,0c-3.3,0-3.7,0.4-3.7,3.7c0,2.2,0.7,2.9,2.9,2.9h27.9
	c9.3,0,18.7,0,28,0c0.6,0,1.1-0.1,1.6-0.3c0.9-0.4,1.3-1.4,1.1-2.4C62.4,65.9,62.9,64.4,61.4,63.6z"/>
</svg>
