<?xml version="1.0" encoding="UTF-8" standalone="no"?>
<!-- Created with Inkscape (http://www.inkscape.org/) -->

<svg
   xmlns:dc="http://purl.org/dc/elements/1.1/"
   xmlns:cc="http://creativecommons.org/ns#"
   xmlns:rdf="http://www.w3.org/1999/02/22-rdf-syntax-ns#"
   xmlns:svg="http://www.w3.org/2000/svg"
   xmlns="http://www.w3.org/2000/svg"
   xmlns:sodipodi="http://sodipodi.sourceforge.net/DTD/sodipodi-0.dtd"
   xmlns:inkscape="http://www.inkscape.org/namespaces/inkscape"
   version="1.1"
   id="svg2"
   width="61.805386"
   height="68.962692"
   viewBox="0 0 61.805386 68.962692"
   sodipodi:docname="gov.svg"
   inkscape:version="0.92.1 r15371">
  <metadata
     id="metadata8">
    <rdf:RDF>
      <cc:Work
         rdf:about="">
        <dc:format>image/svg+xml</dc:format>
        <dc:type
           rdf:resource="http://purl.org/dc/dcmitype/StillImage" />
        <dc:title></dc:title>
      </cc:Work>
    </rdf:RDF>
  </metadata>
  <defs
     id="defs6" />
  <sodipodi:namedview
     pagecolor="#ffffff"
     bordercolor="#666666"
     borderopacity="1"
     objecttolerance="10"
     gridtolerance="10"
     guidetolerance="10"
     inkscape:pageopacity="0"
     inkscape:pageshadow="2"
     inkscape:window-width="1366"
     inkscape:window-height="705"
     id="namedview4"
     showgrid="false"
     inkscape:zoom="3.3714286"
     inkscape:cx="131.78329"
     inkscape:cy="33.77625"
     inkscape:window-x="1272"
     inkscape:window-y="49"
     inkscape:window-maximized="1"
     inkscape:current-layer="svg2" />
  <g
     id="g12"
     transform="translate(-1.0641728,-1)">
    <path
       style="fill:#b1b5d5"
       d="M 1.3840417,68.558413 C 1.0797879,67.765541 1.0070956,66.303041 1.2225034,65.308413 1.4670584,64.179201 1.8093532,64.72063 2.1338841,66.75 2.678483,70.15551 2.3245023,71.009214 1.3840417,68.558413 Z M 61.881162,66.781418 c 0.460363,-2.776922 0.601205,-2.917763 0.916083,-0.916083 0.204647,1.300934 -0.04015,2.777573 -0.543999,3.281419 -0.554777,0.554777 -0.701528,-0.378117 -0.372084,-2.365336 z M 17.25,63.252143 c 8.1125,-0.168085 21.3875,-0.168085 29.5,0 8.1125,0.168084 1.475,0.305608 -14.75,0.305608 -16.225,0 -22.8625,-0.137524 -14.75,-0.305608 z m 0.550488,-19.959035 c 0.230018,-11.951252 -0.0045,-15.827567 -1,-16.529019 C 15.793741,26.054714 15.838805,25.939961 17,26.256039 c 1.234606,0.336061 1.549006,3.122546 1.776978,15.749153 0.152338,8.437468 -0.07266,15.691791 -0.5,16.120718 -0.427338,0.428927 -0.641759,-6.245834 -0.47649,-14.832802 z m 27.640214,14.41296 C 45.167611,56.994405 45.069234,49.718853 45.222087,41.538174 45.450242,29.327253 45.768561,26.591123 47,26.255976 c 1.161202,-0.316031 1.206265,-0.201266 0.199512,0.508113 -0.995722,0.701607 -1.230069,4.586508 -1,16.57757 0.165269,8.613671 0.173865,15.660572 0.0191,15.65978 -0.154761,-7.91e-4 -0.504822,-0.583709 -0.777913,-1.295371 z M 27.399941,42.5 c 0.0014,-8.25 0.156287,-11.491932 0.34419,-7.204294 0.187904,4.287638 0.186758,11.037638 -0.0025,15 C 27.55228,54.258068 27.39854,50.75 27.399941,42.5 Z m 9,0 c 0.0014,-8.25 0.156287,-11.491932 0.34419,-7.204294 0.187904,4.287638 0.186758,11.037638 -0.0025,15 C 36.55228,54.258068 36.39854,50.75 36.399941,42.5 Z M 10.733333,26.875912 c 0.678334,-0.683418 1.485241,-0.990671 1.793128,-0.682784 0.307888,0.307887 -0.247112,0.867048 -1.233333,1.242579 -1.4251984,0.542685 -1.5400619,0.427821 -0.559795,-0.559795 z"
       id="path16"
       inkscape:connector-curvature="0" />
    <path
       style="fill:#8990c0"
       d="M 2.6814827,69.348149 C 2.3066672,68.973334 2,67.616667 2,66.333333 V 64 H 32.066422 62.132845 L 61.816422,66.75 61.5,69.5 32.431483,69.764816 C 16.443798,69.910465 3.0562982,69.722965 2.6814827,69.348149 Z M 10.627648,57.472051 C 10.282442,56.572457 10,49.589062 10,41.953396 c 0,-12.945352 0.137634,-13.956688 2.037773,-14.973611 1.120775,-0.599821 2.932029,-0.806757 4.02501,-0.459858 1.887578,0.599094 1.973446,1.416806 1.712227,16.305399 L 17.5,58.5 14.377648,58.803838 c -2.166404,0.210814 -3.314514,-0.196929 -3.75,-1.331787 z M 28.71406,58.380727 C 28.321327,57.987994 28,50.796991 28,42.400721 28,28.013034 28.115061,27.098256 30,26.5 c 1.1,-0.349126 2.911255,-0.345554 4.02501,0.0079 1.935838,0.614411 2.012901,1.332964 1.75,16.317388 L 35.5,58.5 32.46406,58.797393 c -1.669767,0.163567 -3.357267,-0.02393 -3.75,-0.416666 z m 17.952607,-0.04739 C 46.3,57.966667 46,50.77524 46,42.352385 V 27.038104 l 2.512986,-0.630719 C 53.379187,25.186046 54,26.954831 54,42.040657 c 0,7.587673 -0.273145,14.507572 -0.606989,15.377556 -0.602997,1.571385 -5.415357,2.226108 -6.726344,0.91512 z M 1.4678811,20.948031 C 1.1003974,20.353429 0.95728996,19.731011 1.1498645,19.564879 3.2568643,17.747192 31.068711,1 31.980322,1 34.013093,1 62.989548,19.42359 62.649744,20.5 62.193586,21.944987 2.3548535,22.383182 1.4678811,20.948031 Z"
       id="path14"
       inkscape:connector-curvature="0" />
  </g>
</svg>
