<?xml version="1.0" encoding="utf-8"?>
<!-- Generator: Adobe Illustrator 21.0.2, SVG Export Plug-In . SVG Version: 6.00 Build 0)  -->
<svg version="1.1" id="Слой_1" xmlns="http://www.w3.org/2000/svg" xmlns:xlink="http://www.w3.org/1999/xlink" x="0px" y="0px"
	 viewBox="0 0 72 45" style="enable-background:new 0 0 72 45;" xml:space="preserve">
<style type="text/css">
	.st0{fill:#8A91C1;}
</style>
<path class="st0" d="M72,39.3L72,39.3c0-0.6-0.5-1.1-1.1-1.1H1.1c-0.6,0-1.1,0.5-1.1,1.1c0,0,0,0,0,0v4.5C0,44.5,0.5,45,1.1,45h69.7
	c0.6,0,1.1-0.5,1.1-1.1C72,42.3,72,40.8,72,39.3z"/>
<path class="st0" d="M50.3,9.7c-10.8-5.6-21.7-4.9-31.8,1.8c-8.8,5.9-13,14.3-13.4,24.9h61.6C66.2,24.5,61,15.3,50.3,9.7z"/>
<path class="st0" d="M39.4,4.4c0.4-1.5-0.3-3.1-1.7-3.9c-1.2-0.7-2.7-0.6-3.8,0.2c-1.2,0.8-1.7,2.3-1.3,3.7H39.4z"/>
</svg>
