<?xml version="1.0" encoding="UTF-8" standalone="no"?>
<!-- Created with Inkscape (http://www.inkscape.org/) -->

<svg
   xmlns:dc="http://purl.org/dc/elements/1.1/"
   xmlns:cc="http://creativecommons.org/ns#"
   xmlns:rdf="http://www.w3.org/1999/02/22-rdf-syntax-ns#"
   xmlns:svg="http://www.w3.org/2000/svg"
   xmlns="http://www.w3.org/2000/svg"
   xmlns:sodipodi="http://sodipodi.sourceforge.net/DTD/sodipodi-0.dtd"
   xmlns:inkscape="http://www.inkscape.org/namespaces/inkscape"
   version="1.1"
   id="svg2"
   width="72.132843"
   height="44.556236"
   viewBox="0 0 72.132843 44.556236"
   sodipodi:docname="horeca.svg"
   inkscape:version="0.92.1 r15371">
  <metadata
     id="metadata8">
    <rdf:RDF>
      <cc:Work
         rdf:about="">
        <dc:format>image/svg+xml</dc:format>
        <dc:type
           rdf:resource="http://purl.org/dc/dcmitype/StillImage" />
        <dc:title></dc:title>
      </cc:Work>
    </rdf:RDF>
  </metadata>
  <defs
     id="defs6" />
  <sodipodi:namedview
     pagecolor="#ffffff"
     bordercolor="#666666"
     borderopacity="1"
     objecttolerance="10"
     gridtolerance="10"
     guidetolerance="10"
     inkscape:pageopacity="0"
     inkscape:pageshadow="2"
     inkscape:window-width="1366"
     inkscape:window-height="705"
     id="namedview4"
     showgrid="false"
     inkscape:zoom="5.2444444"
     inkscape:cx="113.60593"
     inkscape:cy="17.544396"
     inkscape:window-x="1272"
     inkscape:window-y="49"
     inkscape:window-maximized="1"
     inkscape:current-layer="svg2" />
  <g
     id="g12"
     transform="translate(0,-0.25511057)">
    <path
       style="fill:#a9aed1"
       d="m 17.75,38.251448 c 10.0375,-0.163111 26.4625,-0.163111 36.5,0 10.0375,0.163111 1.825,0.296565 -18.25,0.296565 -20.075,0 -28.2875,-0.133454 -18.25,-0.296565 z M 5.1949487,33.5 c 0.02038,-1.65 0.2444986,-2.203936 0.498042,-1.230968 0.2535434,0.972967 0.2368691,2.322967 -0.037054,3 C 5.3820136,35.946064 5.174569,35.15 5.1949487,33.5 Z m 60.8839983,0.916667 c 0.04798,-1.164943 0.284941,-1.4019 0.604167,-0.604167 0.288871,0.721875 0.253344,1.584375 -0.07895,1.916667 -0.332292,0.332291 -0.568641,-0.258334 -0.52522,-1.3125 z M 30.8125,6.316886 c 0.721875,-0.2888706 1.584375,-0.2533443 1.916667,0.078947 0.332291,0.3322917 -0.258334,0.5686404 -1.3125,0.5252193 -1.164943,-0.047984 -1.4019,-0.28494 -0.604167,-0.6041663 z m 9,0 c 0.721875,-0.2888706 1.584375,-0.2533443 1.916667,0.078947 0.332291,0.3322917 -0.258334,0.5686404 -1.3125,0.5252193 -1.164943,-0.047984 -1.4019,-0.28494 -0.604167,-0.6041663 z M 32.440693,3.9040387 c -0.372538,-0.6027788 0.0493,-1.7293859 0.937411,-2.5035715 0.888114,-0.77418552 1.16636,-0.86600291 0.618325,-0.2040386 -1.814303,2.1914695 -1.038573,3.0273035 2.433425,2.6219673 1.88642,-0.2202289 3.209862,-0.044462 2.940983,0.390594 -0.735017,1.1892827 -6.154031,0.9508266 -6.930144,-0.3049512 z"
       id="path16"
       inkscape:connector-curvature="0" />
    <path
       style="fill:#8990c0"
       d="M 0.67925986,44.345927 C 0.30566693,43.972334 0,42.616667 0,41.333333 V 39 H 36.066422 72.132845 L 71.816422,41.75 71.5,44.5 36.42926,44.762593 C 17.140353,44.907019 1.0528528,44.719519 0.67925986,44.345927 Z M 6,33.178139 C 6,24.107312 12.680329,14.759593 22.681331,9.8361162 28.116993,7.1601484 30.442769,6.5896794 35.889357,6.5964366 c 7.252627,0.009 15.015027,2.8878612 20.656693,7.6610064 4.060424,3.435333 8.315441,11.452884 9.094436,17.136267 L 66.271848,36 H 36.135924 6 Z M 33,3.1224447 C 33,2.6397893 33.675,1.6846892 34.5,1 35.696716,0.00681409 36.303284,0.00681409 37.5,1 39.822907,2.9278415 39.286828,4 36,4 34.35,4 33,3.6051001 33,3.1224447 Z"
       id="path14"
       inkscape:connector-curvature="0" />
  </g>
</svg>
