<?xml version="1.0" encoding="UTF-8" standalone="no"?>
<!-- Created with Inkscape (http://www.inkscape.org/) -->

<svg
   xmlns:dc="http://purl.org/dc/elements/1.1/"
   xmlns:cc="http://creativecommons.org/ns#"
   xmlns:rdf="http://www.w3.org/1999/02/22-rdf-syntax-ns#"
   xmlns:svg="http://www.w3.org/2000/svg"
   xmlns="http://www.w3.org/2000/svg"
   xmlns:sodipodi="http://sodipodi.sourceforge.net/DTD/sodipodi-0.dtd"
   xmlns:inkscape="http://www.inkscape.org/namespaces/inkscape"
   version="1.1"
   id="svg2"
   width="67.37825"
   height="56.922546"
   viewBox="0 0 67.37825 56.922546"
   sodipodi:docname="hoz.svg"
   inkscape:version="0.92.1 r15371">
  <metadata
     id="metadata8">
    <rdf:RDF>
      <cc:Work
         rdf:about="">
        <dc:format>image/svg+xml</dc:format>
        <dc:type
           rdf:resource="http://purl.org/dc/dcmitype/StillImage" />
        <dc:title></dc:title>
      </cc:Work>
    </rdf:RDF>
  </metadata>
  <defs
     id="defs6" />
  <sodipodi:namedview
     pagecolor="#ffffff"
     bordercolor="#666666"
     borderopacity="1"
     objecttolerance="10"
     gridtolerance="10"
     guidetolerance="10"
     inkscape:pageopacity="0"
     inkscape:pageshadow="2"
     inkscape:window-width="1366"
     inkscape:window-height="705"
     id="namedview4"
     showgrid="false"
     inkscape:zoom="4.1403509"
     inkscape:cx="112.46652"
     inkscape:cy="25.76942"
     inkscape:window-x="1272"
     inkscape:window-y="49"
     inkscape:window-maximized="1"
     inkscape:current-layer="svg2" />
  <g
     id="g12"
     transform="translate(-0.02923816,-0.00365229)">
    <path
       style="fill:#aeb2d3"
       d="m 16.8125,56.316886 c 0.721875,-0.288871 1.584375,-0.253344 1.916667,0.07895 0.332291,0.332292 -0.258334,0.568641 -1.3125,0.52522 -1.164943,-0.04798 -1.4019,-0.284941 -0.604167,-0.604167 z m 42,-1 c 0.721875,-0.288871 1.584375,-0.253344 1.916667,0.07895 0.332291,0.332292 -0.258334,0.568641 -1.3125,0.52522 -1.164943,-0.04798 -1.4019,-0.284941 -0.604167,-0.604167 z M 8.4049876,51.75 6.5,49.5 8.75,51.404988 C 10.864445,53.195206 11.455241,54 10.654988,54 10.465231,54 9.4527307,52.9875 8.4049876,51.75 Z M 57.654508,49.25 C 57.399569,48.8375 58.230041,48.5 59.5,48.5 c 1.269959,0 2.100431,0.3375 1.845492,0.75 C 61.090552,49.6625 60.260081,50 59.5,50 58.739919,50 57.909448,49.6625 57.654508,49.25 Z M 4.2320027,41 c 0,-1.925 0.2057953,-2.7125 0.4573228,-1.75 0.2515276,0.9625 0.2515276,2.5375 0,3.5 C 4.437798,43.7125 4.2320027,42.925 4.2320027,41 Z m 35.0000003,0 c 0,-1.925 0.205795,-2.7125 0.457323,-1.75 0.251527,0.9625 0.251527,2.5375 0,3.5 -0.251528,0.9625 -0.457323,0.175 -0.457323,-1.75 z m -26.074108,0 c 0,-1.375 0.226973,-1.9375 0.504386,-1.25 0.277412,0.6875 0.277412,1.8125 0,2.5 -0.277413,0.6875 -0.504386,0.125 -0.504386,-1.25 z m 14,0 c 0,-1.375 0.226973,-1.9375 0.504386,-1.25 0.277412,0.6875 0.277412,1.8125 0,2.5 -0.277413,0.6875 -0.504386,0.125 -0.504386,-1.25 z M 52,42.622445 c 0,-0.207656 0.7875,-0.995156 1.75,-1.75 C 55.336056,39.628574 55.371426,39.663944 54.127555,41.25 52.821186,42.915748 52,43.445479 52,42.622445 Z M 65,41.5 C 64.315311,40.675 63.980111,40 64.255111,40 c 0.275,0 1.0602,0.675 1.744889,1.5 0.684689,0.825 1.019889,1.5 0.744889,1.5 -0.275,0 -1.0602,-0.675 -1.744889,-1.5 z M 0.03040869,35.45 c 0.02665772,-2.586113 0.16279156,-2.722247 1.10362451,-1.103625 0.7691523,1.323261 0.7605369,2.159055 -0.030409,2.95 C 0.29879182,38.101208 0.00823275,37.601326 0.03040869,35.45 Z M 57.730968,35.344063 c 0.677033,-0.273923 2.027033,-0.290597 3,-0.03705 0.972968,0.25354 0.419032,0.477659 -1.230968,0.498038 -1.65,0.02038 -2.446064,-0.187065 -1.769032,-0.460988 z M 64.286014,31.5 c 0.0075,-2.75 0.201713,-3.756313 0.431567,-2.23625 0.229855,1.520062 0.223712,3.770062 -0.01365,5 C 64.466569,35.493687 64.278507,34.25 64.286014,31.5 Z M 8.5,30 c 0.9954863,-1.1 2.034975,-2 2.309975,-2 0.275,0 -0.314489,0.9 -1.309975,2 C 8.5045137,31.1 7.4650249,32 7.1900249,32 6.9150249,32 7.5045137,31.1 8.5,30 Z M 5,28.622445 c 0,-0.207656 0.7875,-0.995156 1.75,-1.75 C 8.3360556,25.628574 8.3714259,25.663944 7.1275553,27.25 5.8211855,28.915748 5,29.445479 5,28.622445 Z m 11.8125,-3.305559 c 0.721875,-0.288871 1.584375,-0.253344 1.916667,0.07895 0.332291,0.332292 -0.258334,0.568641 -1.3125,0.52522 -1.164943,-0.04798 -1.4019,-0.284941 -0.604167,-0.604167 z m 35.561786,-5.783897 c -0.30962,-0.806856 -0.369962,-2.044356 -0.134093,-2.75 0.235869,-0.705644 0.665915,-0.04549 0.955658,1.467011 0.565736,2.953223 0.09904,3.682039 -0.821565,1.282989 z M 44.272364,13 c 0,-2.475 0.195016,-3.4875 0.433369,-2.25 0.238353,1.2375 0.238353,3.2625 0,4.5 -0.238353,1.2375 -0.433369,0.225 -0.433369,-2.25 z m 5.111678,0.558413 c -0.304254,-0.792872 -0.376946,-2.255372 -0.161539,-3.25 0.244555,-1.1292122 0.58685,-0.5877835 0.911381,1.441587 0.544599,3.40551 0.190618,4.259214 -0.749842,1.808413 z M 34.309869,8.5 c 0.0056,-3.3 0.192301,-4.5294409 0.414862,-2.7320909 0.222562,1.79735 0.217969,4.4973499 -0.0102,5.9999999 C 34.486352,13.270559 34.304256,11.8 34.309869,8.5 Z"
       id="path16"
       inkscape:connector-curvature="0" />
    <path
       style="fill:#8990c0"
       d="M 16,55.838501 C 9.4052501,53.951465 5,48.008982 5,41 5,26.897469 21.952902,20.30845 31.685666,30.628186 42.380634,41.968156 31.067976,60.150086 16,55.838501 Z m 9.92742,-10.47336 c 2.614607,-3.323934 2.614607,-5.406348 0,-8.730282 C 24.424207,34.723833 22.933218,34 20.5,34 16.906396,34 13,37.64597 13,41 c 0,3.35403 3.906396,7 7.5,7 2.433218,0 3.924207,-0.723833 5.42742,-2.634859 z m 29.30154,8.965565 C 53.075938,53.464444 50.910684,48.204044 51.59116,45.492813 52.361099,42.425131 56.486985,39 59.412352,39 c 2.883092,0 6.509054,2.663082 7.626015,5.600914 1.067741,2.80837 -0.273901,7.095555 -2.827682,9.035788 -1.702521,1.293489 -6.559081,1.668748 -8.981725,0.694004 z m 6.60795,-6.722362 c 0.406742,-2.112043 -1.480605,-3.682302 -3.496226,-2.908835 -1.418449,0.54431 -1.821439,3.486403 -0.639448,4.668394 1.240529,1.240529 3.764732,0.166585 4.135674,-1.759559 z m -23.502534,0.96267 C 42.000554,39.017106 37.255529,27.093847 28.297742,23.351044 19.442443,19.651064 8.4015792,23.182338 3.5579474,31.263739 1.6381708,34.466807 1.0166136,34.985276 1.0094605,33.389547 1.0042572,32.228798 2.125,29.621314 3.5,27.595138 5.707932,24.341568 6,22.861259 6,14.924206 6,7.8582739 5.6793621,5.8141901 4.5,5.3616264 2.5197124,4.6017188 2.5751829,1.3769952 4.5817875,0.6069888 7.1531206,-0.37972429 28.646315,-0.08496922 31.4349,0.97524915 33.790401,1.870809 34,2.4351102 34,7.881247 v 5.930749 l 4.678139,1.594002 C 41.251115,16.282699 43.726115,17 44.178139,17 44.630162,17 45,14.975 45,12.5 45,8.6666667 45.296296,8 47,8 c 1.54807,0 2,0.6666667 2,2.95031 0,1.62267 0.631708,3.31017 1.403795,3.75 0.772087,0.439829 1.559587,1.867816 1.75,3.173303 0.261872,1.795418 1.561387,2.849446 5.334782,4.327008 6.034771,2.363058 6.476614,2.983148 6.49611,9.116767 0.01393,4.383144 -0.166994,4.759525 -2.007158,4.17548 C 55.889204,33.560509 48,39.534366 48,46.076923 V 50 h -5.106989 c -4.015906,0 -4.989836,-0.305296 -4.558635,-1.428986 z M 26,9.5 V 6 H 20 14 V 9.5 13 h 6 6 z"
       id="path14"
       inkscape:connector-curvature="0" />
  </g>
</svg>
