<?xml version="1.0" encoding="utf-8"?>
<!-- Generator: Adobe Illustrator 21.0.2, SVG Export Plug-In . SVG Version: 6.00 Build 0)  -->
<svg version="1.1" id="Слой_1" xmlns="http://www.w3.org/2000/svg" xmlns:xlink="http://www.w3.org/1999/xlink" x="0px" y="0px"
	 viewBox="0 0 67.7 56.9" style="enable-background:new 0 0 67.7 56.9;" xml:space="preserve">
<style type="text/css">
	.st0{fill:#8A91C1;}
</style>
<path class="st0" d="M59.3,38.7L59.3,38.7c-4.6-0.1-8.5,3.6-8.6,8.3c0,0,0,0,0,0c0,4.7,3.8,8.5,8.5,8.5c4.7,0,8.5-3.8,8.5-8.5
	C67.6,42.4,63.9,38.8,59.3,38.7z M59.3,49.5L59.3,49.5c-1.3,0-2.4-1-2.4-2.3c0-1.3,1-2.4,2.3-2.4c1.3,0,2.3,1,2.4,2.3
	C61.6,48.4,60.6,49.5,59.3,49.5z"/>
<path class="st0" d="M51.8,38.3c3.7-3.1,7.9-3.4,12.4-1.7c0-2.7-0.1-5.3,0-7.9c0.3-2.5-1.2-4.8-3.5-5.6c-1.7-0.8-3.5-1.3-5.3-2
	c-1-0.4-2.4-0.5-2.9-1.2c-0.5-0.8-0.2-2.1-0.3-3.3c0.1-1.1-0.7-2.1-1.8-2.3c0,0,0,0-0.1,0c-0.4-0.1-0.8-0.1-1.1-0.1
	c0-0.1-0.1-0.1-0.1-0.2c0-1.4,0-2.7,0-4.1c0-1.6-0.9-2.3-2.6-2.3s-2.5,0.8-2.5,2.4V17c-0.4-0.1-0.8-0.2-1.2-0.4
	c-2.6-0.9-5.2-1.9-7.8-2.8c-0.7-0.1-1.2-0.8-1-1.5c0,0,0,0,0,0c0.1-2.9,0-5.7,0-8.6c0.1-1.5-0.8-2.8-2.2-3.3C30.9,0.2,29.8,0,28.7,0
	C21.1,0,13.6,0,6.1,0C5.7,0,5.2,0,4.8,0C3.4,0.2,2.3,1.4,2.3,2.8c0,1.4,1,2.6,2.3,2.9C5,5.8,5.4,5.8,5.8,5.9c0,5.8,0,11.4,0,17.1
	c0,0.8-0.3,1.5-0.9,2c-3.5,3-5.3,7.5-4.8,12.1c0.1,0.6,0.3,1.3,0.5,1.9C2,28.2,11.9,20.7,22.7,22.1c0.6,0.1,1.1,0.2,1.7,0.3
	c4.9,1.1,9.1,4.1,11.8,8.3c4,6.3,4,12.8,0.8,19.5h11C47,45.4,48,41.3,51.8,38.3z M25.6,7.6c0,1,0,2.1,0,3.1h0c0,1.4-0.5,1.9-2,2
	c-1.3,0-2.6,0-3.9,0c-1.4,0-2.8,0-4.1,0c-1.3,0-1.8-0.5-1.8-1.9c0-1.1,0-2.2,0-3.4C13.7,6.7,14.2,6,15,5.9c0.1,0,0.2,0,0.3,0
	c2.9-0.1,5.8-0.1,8.6,0c0.8-0.1,1.6,0.6,1.6,1.4C25.6,7.4,25.6,7.5,25.6,7.6z"/>
<path class="st0" d="M20,25c-8.8,0-15.9,7.2-15.8,16s7.2,15.9,16,15.8C28.9,56.8,36,49.7,36,41C36,32.1,28.8,25,20,25z M27.1,41
	c0,3.9-3.2,7-7.1,6.9c-3.9-0.1-6.9-3.2-7-7.1c0.1-3.9,3.2-6.9,7.1-6.9c0,0,0,0,0,0c3.8,0,6.9,3,6.9,6.8C27.1,40.9,27.1,41,27.1,41z"
	/>
</svg>
