<?xml version="1.0" encoding="utf-8"?>
<!-- Generator: Adobe Illustrator 21.0.2, SVG Export Plug-In . SVG Version: 6.00 Build 0)  -->
<svg version="1.1" id="Слой_1" xmlns="http://www.w3.org/2000/svg" xmlns:xlink="http://www.w3.org/1999/xlink" x="0px" y="0px"
	 viewBox="0 0 65 80" style="enable-background:new 0 0 65 80;" xml:space="preserve">
<style type="text/css">
	.st0{fill:#F46267;}
</style>
<path class="st0" d="M65,33.9c0.4-8.5-2.5-16.9-8.1-23.4c-1.9-2.3-4.2-4.3-6.7-5.8c0,2.1,0.1,4,0,5.9c-0.1,1.1,0.4,2.1,1.2,2.9
	c5.4,5.4,8.2,12.8,7.8,20.4c-0.2,6.8-3.3,13.2-8.5,17.7c-0.5,0.4-0.7,1-0.6,1.6c0.8,4.3,1.5,8.5,2.3,12.8c0.2,1.1,0.4,2.2,0.6,3.3
	c-9.1,1.5-18,2.9-26.9,4.3c-0.6-3.1-1.1-6-1.6-9c0-0.8-0.6-1.4-1.4-1.4c0,0,0,0-0.1,0c-3.4-0.4-6.8-0.9-10.2-1.4
	c-2.2-0.3-2.6-0.9-2.4-3.3c0.2-2.8,0.5-5.6,0.7-8.5c0.3-2.1-0.8-4.1-2.7-5c-0.7-0.4-1.4-0.8-2.2-1.2c0.2-0.4,0.3-0.7,0.5-1.1
	c1.1-2.1,2.1-4.2,3.3-6.2c1.7-3,2.8-6.4,3.1-9.8c0.3-3.3,1.4-6.4,3.1-9.2c2.7-4.8,7-8.4,12.2-10.2c0.4-0.1,0.7-0.3,0.8-0.6
	c0-2-0.1-4.1-0.1-6.2C17.6,3,8.6,13.5,7.2,25.9c-0.2,2.5-1,4.9-2.1,7.1c-1.5,2.7-2.9,5.4-4.3,8.1c-1.2,2.2-1,4.9,0.7,6.8
	c0.8,0.8,1.7,1.4,2.7,1.9c0.6,0.2,1,0.9,0.9,1.6c-0.2,1.8-0.3,3.7-0.5,5.6c-0.1,1.2-0.2,2.4-0.1,3.6c0.4,3.9,3.4,7,7.2,7.5
	c2.5,0.4,4.9,0.7,7.5,1.1c0.3,1.8,0.6,3.4,0.8,5c0.8,4.4,3.4,6.4,7.4,5.8c4.7-0.8,9.5-1.5,14.2-2.3c4.1-0.7,8.1-1.4,12.2-2
	c3.8-0.5,5.6-4.1,4.9-7.4c-0.8-3.7-1.2-7.4-2-11.1c-0.4-1.4,0-2.9,1-3.9C62.3,47.8,64.9,41,65,33.9z"/>
<path class="st0" d="M31.3,42.2L31.3,42.2c-1.4,2.5-3.5,4.5-5.9,5.9c-0.4,0.3-1,0.3-1.4,0c-1.8-1.1-4.1-0.6-5.3,1.1
	c-0.2,0.3-0.3,0.5-0.4,0.8c-1,2.3-0.1,5,2.1,6.3c1.9,1.1,4.3,0.4,5.4-1.6c0.1-0.2,0.2-0.4,0.3-0.6c0.2-0.7,0.8-1.3,1.4-1.6
	c3-1.6,5.5-4,7.3-6.9c0.2-0.5,0.8-0.8,1.4-0.6c4.2,1,8.6-1.1,10.4-5.1c1.9-4.2,1.2-9.1-1.8-12.5c-0.3-0.5-0.5-1-0.5-1.6
	c0.1-3.5,0.4-7,0.5-10.4c0.1-4.3,0-8.5-0.1-12.8c0-0.4-0.2-0.7-0.5-1c-3.1-1.2-6.4-1.7-9.7-1.7c0,0.5,0,0.8,0,1.1
	c0.3,7.6,0.3,15.2-0.3,22.8c0,0.7-0.4,1.3-1,1.6c-2.9,1.7-4.8,4.7-4.9,8.1C28,36.7,29.1,39.9,31.3,42.2z"/>
</svg>
