<?xml version="1.0" encoding="UTF-8" standalone="no"?>
<!-- Created with Inkscape (http://www.inkscape.org/) -->

<svg
   xmlns:dc="http://purl.org/dc/elements/1.1/"
   xmlns:cc="http://creativecommons.org/ns#"
   xmlns:rdf="http://www.w3.org/1999/02/22-rdf-syntax-ns#"
   xmlns:svg="http://www.w3.org/2000/svg"
   xmlns="http://www.w3.org/2000/svg"
   xmlns:sodipodi="http://sodipodi.sourceforge.net/DTD/sodipodi-0.dtd"
   xmlns:inkscape="http://www.inkscape.org/namespaces/inkscape"
   version="1.1"
   id="svg2"
   width="64.280853"
   height="80.059784"
   viewBox="0 0 64.280853 80.059784"
   sodipodi:docname="kons.svg"
   inkscape:version="0.92.1 r15371">
  <metadata
     id="metadata8">
    <rdf:RDF>
      <cc:Work
         rdf:about="">
        <dc:format>image/svg+xml</dc:format>
        <dc:type
           rdf:resource="http://purl.org/dc/dcmitype/StillImage" />
        <dc:title></dc:title>
      </cc:Work>
    </rdf:RDF>
  </metadata>
  <defs
     id="defs6" />
  <sodipodi:namedview
     pagecolor="#ffffff"
     bordercolor="#666666"
     borderopacity="1"
     objecttolerance="10"
     gridtolerance="10"
     guidetolerance="10"
     inkscape:pageopacity="0"
     inkscape:pageshadow="2"
     inkscape:window-width="1366"
     inkscape:window-height="705"
     id="namedview4"
     showgrid="false"
     inkscape:zoom="2.9135802"
     inkscape:cx="133.1523"
     inkscape:cy="36.754237"
     inkscape:window-x="1272"
     inkscape:window-y="49"
     inkscape:window-maximized="1"
     inkscape:current-layer="svg2" />
  <g
     id="g12"
     transform="translate(-0.59769808,0.05978728)">
    <path
       style="fill:#f79ea1"
       d="M 22,78.5 C 21.315311,77.675 20.980111,77 21.255111,77 c 0.275,0 1.0602,0.675 1.744889,1.5 0.684689,0.825 1.019889,1.5 0.744889,1.5 -0.275,0 -1.0602,-0.675 -1.744889,-1.5 z m 6.8125,0.816886 c 0.721875,-0.288871 1.584375,-0.253344 1.916667,0.07895 0.332291,0.332292 -0.258334,0.568641 -1.3125,0.52522 -1.164943,-0.04798 -1.4019,-0.284941 -0.604167,-0.604167 z m 6,-1 c 0.721875,-0.288871 1.584375,-0.253344 1.916667,0.07895 0.332291,0.332292 -0.258334,0.568641 -1.3125,0.52522 -1.164943,-0.04798 -1.4019,-0.284941 -0.604167,-0.604167 z m 6,-1 c 0.721875,-0.288871 1.584375,-0.253344 1.916667,0.07895 0.332291,0.332292 -0.258334,0.568641 -1.3125,0.52522 -1.164943,-0.04798 -1.4019,-0.284941 -0.604167,-0.604167 z m 7,-1 c 0.721875,-0.288871 1.584375,-0.253344 1.916667,0.07895 0.332291,0.332292 -0.258334,0.568641 -1.3125,0.52522 -1.164943,-0.04798 -1.4019,-0.284941 -0.604167,-0.604167 z M 25.345077,72.456872 C 25.019392,71.608151 25.033515,70.633151 25.376461,70.290205 25.719408,69.947259 26,70.383671 26,71.260009 c 0,0.876339 0.7875,1.799138 1.75,2.050665 1.640089,0.428601 1.638118,0.464609 -0.03139,0.573325 -0.979761,0.0638 -2.047854,-0.578407 -2.373538,-1.427127 z M 32.8125,72.316886 c 0.721875,-0.288871 1.584375,-0.253344 1.916667,0.07895 0.332291,0.332292 -0.258334,0.568641 -1.3125,0.52522 -1.164943,-0.04798 -1.4019,-0.284941 -0.604167,-0.604167 z M 19.078947,70.416667 c 0.04798,-1.164943 0.284941,-1.4019 0.604167,-0.604167 0.288871,0.721875 0.253344,1.584375 -0.07895,1.916667 -0.332292,0.332291 -0.568641,-0.258334 -0.52522,-1.3125 z M 38.8125,71.316886 c 0.721875,-0.288871 1.584375,-0.253344 1.916667,0.07895 0.332291,0.332292 -0.258334,0.568641 -1.3125,0.52522 -1.164943,-0.04798 -1.4019,-0.284941 -0.604167,-0.604167 z m 6,-1 c 0.721875,-0.288871 1.584375,-0.253344 1.916667,0.07895 0.332291,0.332292 -0.258334,0.568641 -1.3125,0.52522 -1.164943,-0.04798 -1.4019,-0.284941 -0.604167,-0.604167 z m -30,-2 c 0.721875,-0.288871 1.584375,-0.253344 1.916667,0.07895 0.332291,0.332292 -0.258334,0.568641 -1.3125,0.52522 -1.164943,-0.04798 -1.4019,-0.284941 -0.604167,-0.604167 z m 43.266447,-0.900219 c 0.04798,-1.164943 0.284941,-1.4019 0.604167,-0.604167 0.288871,0.721875 0.253344,1.584375 -0.07895,1.916667 -0.332292,0.332291 -0.568641,-0.258334 -0.52522,-1.3125 z m -6,-1 c 0.04798,-1.164943 0.284941,-1.4019 0.604167,-0.604167 0.288871,0.721875 0.253344,1.584375 -0.07895,1.916667 -0.332292,0.332291 -0.568641,-0.258334 -0.52522,-1.3125 z M 23.731213,65.080159 c -0.434974,-1.663345 -0.304831,-2.053777 0.437237,-1.311709 0.581102,0.581102 0.859794,1.646819 0.619313,2.36826 -0.249648,0.748946 -0.702941,0.295653 -1.05655,-1.056551 z M 15.75,62.337719 c 0.6875,-0.277412 1.8125,-0.277412 2.5,0 0.6875,0.277413 0.125,0.504386 -1.25,0.504386 -1.375,0 -1.9375,-0.226973 -1.25,-0.504386 z m 41.328947,-0.921052 c 0.04798,-1.164943 0.284941,-1.4019 0.604167,-0.604167 0.288871,0.721875 0.253344,1.584375 -0.07895,1.916667 -0.332292,0.332291 -0.568641,-0.258334 -0.52522,-1.3125 z M 10.394042,60.584473 c -0.298754,-0.77854 -0.381363,-2.69104 -0.183574,-4.25 0.293471,-2.313129 0.449995,-2.052772 0.850999,1.415527 0.50555,4.37252 0.283937,5.313684 -0.667425,2.834473 z m 40.684905,-0.167806 c 0.04798,-1.164943 0.284941,-1.4019 0.604167,-0.604167 0.288871,0.721875 0.253344,1.584375 -0.07895,1.916667 -0.332292,0.332291 -0.568641,-0.258334 -0.52522,-1.3125 z M 4.1949487,58.5 c 0.02038,-1.65 0.2444986,-2.203936 0.498042,-1.230968 0.2535434,0.972967 0.2368691,2.322967 -0.037054,3 C 4.3820136,60.946064 4.174569,60.15 4.1949487,58.5 Z M 18.872445,55.25 C 17.602929,53.631245 17.649994,53.610023 19.5,54.967032 c 1.1,0.806868 2.1875,1.594368 2.416667,1.75 C 22.145833,56.872665 21.863433,57 21.289111,57 20.714789,57 19.627289,56.2125 18.872445,55.25 Z M 31.5,49 c 0.995486,-1.1 2.034975,-2 2.309975,-2 0.275,0 -0.314489,0.9 -1.309975,2 -0.995486,1.1 -2.034975,2 -2.309975,2 -0.275,0 0.314489,-0.9 1.309975,-2 z M 41,44.606989 c 0,-0.216156 0.698372,-0.661002 1.551938,-0.988546 0.889925,-0.341496 1.291322,-0.173849 0.940983,0.393011 C 42.905663,44.961658 41,45.416902 41,44.606989 Z m 23.078947,-6.190322 c 0.04798,-1.164943 0.284941,-1.4019 0.604167,-0.604167 0.288871,0.721875 0.253344,1.584375 -0.07895,1.916667 -0.332292,0.332291 -0.568641,-0.258334 -0.52522,-1.3125 z M 28.252183,34.5 c -0.0111,-2.2 0.184605,-3.217747 0.434897,-2.261659 0.250293,0.956087 0.259374,2.756087 0.02018,4 C 28.468068,37.482253 28.263283,36.7 28.252183,34.5 Z m 18.97982,0.5 c 0,-1.925 0.205795,-2.7125 0.457323,-1.75 0.251527,0.9625 0.251527,2.5375 0,3.5 -0.251528,0.9625 -0.457323,0.175 -0.457323,-1.75 z m -2.773122,-7.066531 c -0.362533,-0.586592 -0.444683,-1.281 -0.182555,-1.543128 0.262128,-0.262129 0.743066,0.21781 1.068751,1.066531 0.676184,1.762107 0.09985,2.072058 -0.886196,0.476597 z m 19.620066,-0.516802 c 0.04798,-1.164943 0.284941,-1.4019 0.604167,-0.604167 0.288871,0.721875 0.253344,1.584375 -0.07895,1.916667 -0.332292,0.332291 -0.568641,-0.258334 -0.52522,-1.3125 z m -56.9999996,-3 c 0.047984,-1.164943 0.2849403,-1.4019 0.6041666,-0.604167 0.2888706,0.721875 0.2533443,1.584375 -0.078947,1.916667 -0.3322917,0.332291 -0.5686404,-0.258334 -0.5252196,-1.3125 z m 5.9999996,0 c 0.04798,-1.164943 0.284941,-1.4019 0.604167,-0.604167 0.288871,0.721875 0.253344,1.584375 -0.07895,1.916667 -0.332292,0.332291 -0.568641,-0.258334 -0.52522,-1.3125 z M 44.32814,18.5 c -0.0044,-3.85 0.17268,-5.547537 0.393592,-3.772304 0.220912,1.775232 0.224542,4.925232 0.0081,7 C 44.513323,23.802463 44.332577,22.35 44.32814,18.5 Z m -9.946376,-7 c -0.002,-6.6 0.158247,-9.4301345 0.356055,-6.2891878 0.197808,3.1409467 0.199425,8.5409468 0.0036,11.9999998 C 34.545584,20.669866 34.383741,18.1 34.381764,11.5 Z m 17.112688,2.493869 c -0.998538,-1.103372 -1.630783,-2.184298 -1.404988,-2.402059 0.225795,-0.217761 1.219044,0.684998 2.207221,2.006131 2.182386,2.917718 1.696826,3.157357 -0.802233,0.395928 z M 13,10.874182 c 0,-0.275 1.35,-1.7933817 3,-3.374182 1.65,-1.5808003 3,-2.6491824 3,-2.3741824 0,0.275 -1.35,1.7933821 -3,3.3741824 -1.65,1.5808 -3,2.649182 -3,2.374182 z M 43.98173,6.2983136 C 43.716779,3.4373861 43.866361,1.4637475 44.314136,1.9124501 44.761912,2.3611527 44.97869,4.7019115 44.795867,7.1141365 L 44.46346,11.5 Z M 51,6 C 50.098708,5.4175404 49.975367,5.0245136 50.690983,5.0153128 51.346024,5.0068907 52.160081,5.45 52.5,6 53.267305,7.2415252 52.921123,7.2415252 51,6 Z M 38.8125,0.31688596 c 0.721875,-0.28887061 1.584375,-0.25334429 1.916667,0.0789474 0.332291,0.33229167 -0.258334,0.56864035 -1.3125,0.5252193 -1.164943,-0.0479839 -1.4019,-0.2849403 -0.604167,-0.6041667 z"
       id="path16"
       inkscape:connector-curvature="0" />
    <path
       style="fill:#f36166"
       d="M 22.07258,77.365141 C 20.932661,75.915969 20,73.476724 20,71.944597 20,69.644824 19.476703,69.057835 17,68.579455 15.35,68.260755 12.650559,67.739368 11.001242,67.420818 6.6215113,66.574913 5,63.579353 5,56.334198 5,51.409532 4.6131831,49.841151 3.1434593,48.806704 -0.22251833,46.437601 -0.24619841,43.671122 3.0459305,37.412685 4.745313,34.182107 6.8058244,28.64946 7.6248447,25.117913 9.6015086,16.594705 11.990648,12.144613 17.03802,7.5846166 20.554509,4.4076798 26.469707,1 28.467881,1 28.760547,1 29,2.3196755 29,3.9326123 c 0,2.0854473 -0.596735,3.1220088 -2.065706,3.5882419 -2.898967,0.9200965 -8.475299,6.0004078 -10.909586,9.9391678 -1.128587,1.826092 -2.535568,5.936156 -3.126625,9.133477 -0.591057,3.19732 -2.341992,8.323901 -3.8909662,11.392403 l -2.8163175,5.579093 2.4846608,2.213147 c 2.3214079,2.067733 2.4397589,2.632437 1.8012629,8.594619 -0.7934451,7.409081 -0.6777485,7.544579 7.130111,8.350421 C 23.516608,63.333124 25,64.894714 25,70.506083 c 0,1.306736 0.363828,2.600741 0.808506,2.875567 0.444679,0.274827 6.744679,-0.467928 14,-1.650566 C 50.135,70.047837 52.992017,69.246278 52.963245,68.040417 52.943029,67.193188 52.317904,63.352602 51.574079,59.505782 L 50.221668,52.511564 53.23593,49.078509 C 57.545681,44.169975 59,39.987089 59,32.5 59,25.380144 57.414975,20.543909 53.323425,15.179611 50.565453,11.563723 49.249029,6 51.151452,6 53.091256,6 58.745907,12.77723 61.360605,18.235906 66.363669,28.680748 65.727907,39.90487 59.56141,50 l -3.359614,5.5 1.31661,7.5 c 1.51926,8.654384 0.574391,11.418334 -4.234522,12.386921 C 50.424101,75.962924 25.278763,80 24.550854,80 24.327722,80 23.212499,78.814314 22.07258,77.365141 Z M 20.222506,55.443296 c -3.97432,-2.783722 -1.762234,-8.340713 2.841019,-7.136935 1.391443,0.363871 3.10909,-0.382285 5.218292,-2.266857 2.874719,-2.568561 3.040185,-3.03737 1.93115,-5.471439 -2.17629,-4.776436 -1.536268,-10.341016 1.537033,-13.36352 2.659034,-2.615083 2.760988,-3.110744 3.082193,-14.984439 l 0.332192,-12.27989328 3.667808,0.65118475 c 2.017294,0.35815161 4.035226,0.98652283 4.484294,1.39638053 0.449068,0.4098577 0.789505,6.2459008 0.756527,12.968985 -0.04561,9.299159 0.297365,12.73394 1.433514,14.356019 1.789067,2.554252 1.914934,9.555434 0.211669,11.773875 -1.681819,2.190509 -5.137688,3.90982 -7.902456,3.931511 -1.44422,0.01133 -4.689881,2.269409 -8.624128,6 C 25.722,54.308175 22.784628,57 22.664119,57 22.543611,57 21.444885,56.299483 20.222506,55.443296 Z"
       id="path14"
       inkscape:connector-curvature="0" />
  </g>
</svg>
