<?xml version="1.0" encoding="utf-8"?>
<!-- Generator: Adobe Illustrator 21.0.2, SVG Export Plug-In . SVG Version: 6.00 Build 0)  -->
<svg version="1.1" id="Слой_1" xmlns="http://www.w3.org/2000/svg" xmlns:xlink="http://www.w3.org/1999/xlink" x="0px" y="0px"
	 viewBox="0 0 61.2 79.9" style="enable-background:new 0 0 61.2 79.9;" xml:space="preserve">
<style type="text/css">
	.st0{fill:#F46267;}
</style>
<path class="st0" d="M59.6,62.3C54.3,52.6,49,43,43.7,33.4c-0.3-0.5-0.6-1.1-0.7-1.7c-0.1-5.1,0-10.3,0-15.4c0.4-0.2,0.7-0.3,1-0.4
	c3.6-1.4,5.7-5,5.2-8.8c-0.6-3.8-3.6-6.9-7.2-6.9c-7.7-0.1-15.3-0.2-23,0c-4.6,0.1-8,4.8-7.2,9.3c0.6,3.6,2.8,5.8,6.2,6.9
	c0,4.8,0,9.6,0,14.4c0,0.9-0.3,1.9-0.7,2.7C12.2,42.9,7,52.3,1.9,61.8c-1,1.7-1.6,3.7-1.8,5.7c-0.5,6.3,4.1,11.9,10.5,12.4
	c0.4,0,0.8,0,1.3,0c12.5,0.1,25.1,0,37.7,0c0.8,0,1.5-0.1,2.3-0.2C59.7,78,63.6,69.6,59.6,62.3z M6.5,63.8c0.5-0.9,2.1-3.6,3.7-6.4
	h17.8c1.2,0,2.1-1,2.1-2.1s-1-2.1-2.1-2.1H12.8l1.8-3.1l2-3.7h11.9c1.2,0,2.1-1,2.1-2.1s-1-2.1-2.1-2.1h-9.5l0.6-1l2.6-5.7h6.4
	c1.2,0,2.1-1,2.1-2.1s-1-2.1-2.1-2.1h-4.8c0.1-0.5,0.1-1,0.1-1.5l-0.1-3.5v-1.7h4.8c1.2,0,2.1-1,2.1-2.1s-1-2.1-2.1-2.1h-4.9l0-3.1
	c0,0,0-2,0-2.9c0-2-1-3-2.9-3.2c-0.4,0-0.8-0.1-1.1-0.1c-1.4-0.3-2.3-1.5-2.2-2.9c0.2-1.3,1.2-2.4,2.6-2.5c0.5-0.1,1-0.1,1.4-0.1
	c6.2,0,12.5,0,18.7,0c0.3,0,0.6,0,0.9,0c1.8,0.1,3.1,1.2,3.1,2.7c0,1.6-1.2,2.7-3.1,2.9c-2.4,0.2-3.2,1.1-3.2,3.5
	c0,5.8,0,11.6,0,17.4c0,1,0.3,2,0.8,2.9c3.5,6.5,7.1,12.9,10.6,19.3c0.3,0.5,4.6,8.9,5,9.6H6.5z"/>
</svg>
