<?xml version="1.0" encoding="UTF-8" standalone="no"?>
<!-- Created with Inkscape (http://www.inkscape.org/) -->

<svg
   xmlns:dc="http://purl.org/dc/elements/1.1/"
   xmlns:cc="http://creativecommons.org/ns#"
   xmlns:rdf="http://www.w3.org/1999/02/22-rdf-syntax-ns#"
   xmlns:svg="http://www.w3.org/2000/svg"
   xmlns="http://www.w3.org/2000/svg"
   xmlns:sodipodi="http://sodipodi.sourceforge.net/DTD/sodipodi-0.dtd"
   xmlns:inkscape="http://www.inkscape.org/namespaces/inkscape"
   version="1.1"
   id="svg2"
   width="61.679211"
   height="79.841354"
   viewBox="0 0 61.679211 79.841354"
   sodipodi:docname="labs.svg"
   inkscape:version="0.92.1 r15371">
  <metadata
     id="metadata8">
    <rdf:RDF>
      <cc:Work
         rdf:about="">
        <dc:format>image/svg+xml</dc:format>
        <dc:type
           rdf:resource="http://purl.org/dc/dcmitype/StillImage" />
        <dc:title></dc:title>
      </cc:Work>
    </rdf:RDF>
  </metadata>
  <defs
     id="defs6" />
  <sodipodi:namedview
     pagecolor="#ffffff"
     bordercolor="#666666"
     borderopacity="1"
     objecttolerance="10"
     gridtolerance="10"
     guidetolerance="10"
     inkscape:pageopacity="0"
     inkscape:pageshadow="2"
     inkscape:window-width="1366"
     inkscape:window-height="705"
     id="namedview4"
     showgrid="false"
     inkscape:zoom="2.95"
     inkscape:cx="107.07762"
     inkscape:cy="37.928904"
     inkscape:window-x="1272"
     inkscape:window-y="49"
     inkscape:window-maximized="1"
     inkscape:current-layer="svg2" />
  <g
     id="g12"
     transform="translate(-1.5494988,0.21753435)">
    <path
       style="fill:#f7a1a4"
       d="m 1.5508809,68.161017 c 0.02038,-1.65 0.2444986,-2.203936 0.498042,-1.230968 0.2535434,0.972967 0.2368691,2.322967 -0.037054,3 -0.2739231,0.677032 -0.4813677,-0.119032 -0.460988,-1.769032 z m 61.0000001,0 c 0.02038,-1.65 0.244498,-2.203936 0.498042,-1.230968 0.253543,0.972967 0.236869,2.322967 -0.03705,3 -0.273927,0.677032 -0.481372,-0.119032 -0.460992,-1.769032 z M 8.3559322,62.720034 c 0,-0.517541 0.4448455,-1.215913 0.9885456,-1.551938 0.5668601,-0.350339 0.7345072,0.05106 0.3930112,0.940983 -0.6647909,1.732417 -1.3815568,2.049387 -1.3815568,0.610955 z m 7.7835218,-5.797421 c 2.905937,-0.202642 7.405937,-0.200512 10,0.0047 2.594063,0.205279 0.216478,0.371077 -5.283522,0.368473 -5.5,-0.0026 -7.622415,-0.170532 -4.716478,-0.373173 z m 14.780771,-2.968468 c -0.542685,-1.425198 -0.427821,-1.540062 0.559795,-0.559795 0.683418,0.678334 0.990671,1.485241 0.682784,1.793128 -0.307887,0.307888 -0.867048,-0.247112 -1.242579,-1.233333 z M 18.255802,46.356764 c 0.44475,-0.442339 3.461722,-0.661687 6.704383,-0.487441 l 5.895747,0.316812 -6.704382,0.487441 c -3.68741,0.268092 -6.340497,0.125527 -5.895748,-0.316812 z m 6.861789,-11.403008 c 1.243913,-0.239193 3.043913,-0.230112 4,0.02018 0.956088,0.250293 -0.06166,0.445997 -2.261659,0.434898 -2.2,-0.0111 -2.982253,-0.215885 -1.738341,-0.455078 z M 19.710887,24.161017 c 0.003,-4.95 0.17464,-6.848922 0.381317,-4.219827 0.206676,2.629095 0.204183,6.679095 -0.0055,9 -0.209765,2.320905 -0.378864,0.169827 -0.375817,-4.780173 z m 25,0 c 0.003,-4.95 0.17464,-6.848922 0.381317,-4.219827 0.206676,2.629095 0.204183,6.679095 -0.0055,9 -0.209765,2.320905 -0.378864,0.169827 -0.375817,-4.780173 z M 26.0869,24.00508 c 0.677033,-0.273923 2.027033,-0.290597 3,-0.03705 0.972968,0.25354 0.419032,0.477659 -1.230968,0.498038 -1.65,0.02038 -2.446064,-0.187065 -1.769032,-0.460988 z M 13.587935,7.6610169 c 0,-1.925 0.205795,-2.7125 0.457323,-1.75 0.251527,0.9625 0.251527,2.5375 0,3.5 -0.251528,0.9625001 -0.457323,0.175 -0.457323,-1.75 z m 36.962946,0.5 c 0.02038,-1.65 0.244498,-2.2039356 0.498042,-1.2309681 0.253543,0.9729675 0.236869,2.3229675 -0.03705,3.0000001 -0.273927,0.6770321 -0.481372,-0.119032 -0.460992,-1.769032 z m -5.56201,-1.014162 C 44.462365,5.774801 42.603026,5.5902841 31.95828,5.8537269 c -6.829049,0.1690095 -12.206722,-0.03021 -11.950383,-0.44271 0.256338,-0.4125 5.784411,-0.75 12.284607,-0.75 9.368699,0 12.080746,0.3159411 13.083484,1.524166 0.69572,0.8382913 1.031412,1.7576989 0.745983,2.043128 -0.285429,0.2854292 -0.795324,-0.201226 -1.1331,-1.081456 z m -25.820439,-7.168952 c 0.721875,-0.28887061 1.584375,-0.25334429 1.916667,0.0789474 0.332291,0.33229167 -0.258334,0.56864035 -1.3125,0.5252193 -1.164943,-0.0479839 -1.4019,-0.2849403 -0.604167,-0.6041667 z"
       id="path16"
       inkscape:connector-curvature="0" />
    <path
       style="fill:#f36267"
       d="M 8.7342345,78.224096 C 4.5309772,76.394738 2.3559322,73.018217 2.3559322,68.322472 c 0,-3.019193 2.0210577,-7.583296 8.9999998,-20.324474 l 9,-16.430942 v -7.953019 c 0,-4.374161 -0.365147,-7.95302 -0.811439,-7.95302 -2.351212,0 -5.188561,-4.311324 -5.188561,-7.8839677 0,-6.78237776 1.969962,-7.61603236 17.997016,-7.61603236 16.029262,0 18.002984,0.834969 18.002984,7.61603236 0,3.5726437 -2.837349,7.8839677 -5.188561,7.8839677 -0.446292,0 -0.811439,3.584002 -0.811439,7.964449 v 7.964448 l 9,16.354399 c 9.634023,17.506516 10.667018,21.24288 7.295596,26.388319 -3.085362,4.708859 -6.443727,5.331835 -28.513477,5.289243 C 17.319269,79.593277 11.015049,79.216761 8.7342345,78.224096 Z M 55.355932,62.815833 c 0,-0.46485 -3.466764,-7.10235 -7.70392,-14.75 L 39.948091,34.161017 39.902012,23.19574 c -0.04417,-10.509868 0.05086,-11.013825 2.288104,-12.134184 3.854783,-1.9303887 4.640786,-3.123309 3.20099,-4.8581575 -1.0216,-1.2309525 -3.671209,-1.5423816 -13.122435,-1.5423816 -10.695385,0 -11.942896,0.187831 -12.88026,1.9393116 -1.083534,2.0246026 -0.799249,2.4003734 3.467521,4.5834035 1.347492,0.689425 2.101258,2.239221 2.310365,4.750278 0.261575,3.141105 0.674638,3.727007 2.627556,3.727007 2.434191,0 5.012117,2.216629 3.886736,3.342009 -0.361895,0.361895 -1.93299,0.657991 -3.491324,0.657991 -2.571428,0 -2.833333,0.323529 -2.833333,3.5 0,3.0186 0.327016,3.5 2.377555,3.5 2.482191,0 5.085171,2.203941 3.947102,3.342009 -0.361895,0.361895 -2.299645,0.657991 -4.306111,0.657991 -3.184704,0 -3.860137,0.444602 -5.317155,3.5 l -1.669034,3.5 h 4.861377 c 4.565752,0 7.992255,1.780678 6.430923,3.342009 -0.361895,0.361895 -3.4638,0.657991 -6.893122,0.657991 -5.94461,0 -6.331269,0.151432 -8.298388,3.25 l -2.063256,3.25 8.205177,0.5 c 6.782133,0.413284 8.262965,0.803507 8.538378,2.25 0.299193,1.571383 -0.678569,1.75 -9.579607,1.75 -10.800352,0 -9.74287,-0.507037 -13.0350847,6.25 -0.2009814,0.4125 10.2470787,0.75 23.2179127,0.75 12.970833,0 23.583333,-0.380333 23.583333,-0.845184 z"
       id="path14"
       inkscape:connector-curvature="0" />
  </g>
</svg>
