<?xml version="1.0" encoding="utf-8"?>
<!-- Generator: Adobe Illustrator 21.0.2, SVG Export Plug-In . SVG Version: 6.00 Build 0)  -->
<svg version="1.1" id="Слой_1" xmlns="http://www.w3.org/2000/svg" xmlns:xlink="http://www.w3.org/1999/xlink" x="0px" y="0px"
	 viewBox="0 0 88.8 79.7" style="enable-background:new 0 0 88.8 79.7;" xml:space="preserve">
<style type="text/css">
	.st0{fill:#F46267;}
</style>
<path class="st0" d="M86.1,39.5c-0.4-0.7-0.2-1.6,0.4-2.1c1.7-1.7,2.5-4.1,2.2-6.5c-0.5-4.9-4.1-8.1-9.1-8.1H59.5
	c0.4-3.3,0.6-6.7,0.6-10C59.9,7.7,58,3.3,53,0.9c-4.5-2.2-9-0.3-10.5,4.5c-0.5,1.4-0.7,2.9-0.7,4.4c0.1,2.6-1,5.2-2.9,6.9
	c-3.1,2.6-6.4,4.9-9.7,7.2c-0.6,0.3-1.3,0.4-2,0.4c-7.8,0-15.7,0-23.5,0c-2.7,0-3.8,1.2-3.8,3.8C0,42,0,55.9,0,69.8
	c0,0.1,0,0.1,0,0.2c0,5.3,4.3,9.6,9.6,9.6c5.8,0.1,11.6,0.1,17.4,0c2.4,0,3.7-1.4,3.8-3.8c0-1.2,0-2.4,0-3.4
	c2.6,0.5,5.1,1.3,7.6,1.4c11,0.2,22,0.2,33,0.2c4.6,0,8-2.3,9-6.1c0.5-1.9,0.3-4,0.4-6.4c4.1-3.2,4.9-5.8,3.3-11.3
	c0-0.5,0.1-1,0.5-1.4C86.8,46.3,87.5,42.6,86.1,39.5z M24.1,72.9h-4.1c-3.3,0-6.6,0-9.8,0c-2.5,0-3.7-1.1-3.7-3.5
	c-0.1-12.6,0-25.3,0-37.9c0-0.2,0.1-0.4,0.2-0.7h17.5V72.9z M79.9,33.9c-3.1,0-6.2,0-9.3,0c-0.3,0-0.7,0-1,0.1
	c-1.7,0.4-2.7,2.2-2.2,3.8c0.3,1.6,1.6,2.5,3.6,2.6c2.2,0.1,4.4,0,6.6,0c1.8,0,2.9,0.8,2.9,2.2c0,1.3-1.1,2.3-2.9,2.3
	c-2.6,0-5.2,0-7.8,0c-2.2,0-3.6,1.3-3.6,3.3c0,0.1,0,0.2,0,0.3c0.2,1.8,1.7,3.1,3.5,3c2,0,3.9,0,5.9,0c1.7,0,2.8,0.9,2.8,2.2
	c0,1.4-1.1,2.3-2.8,2.3c-2.3,0-4.5,0-6.7,0c-2.3,0-3.6,1.3-3.6,3.3c0,1.9,1.3,3.1,3.5,3.2c1.1,0,2.2,0,3.3,0c1.2,0,2.3,1,2.3,2.2
	s-1,2.3-2.2,2.3c-1.1,0.1-2.2,0-3.3,0c-9.8,0-19.7,0.1-29.5-0.2c-2.5-0.1-5-1.2-7.4-2.1c-0.7-0.5-1.2-1.3-1.2-2.1
	c-0.1-10.4,0-20.8-0.1-31.1c-0.1-0.9,0.5-1.7,1.3-1.9c4.5-2.2,8.6-5.2,12.1-8.8c2.9-2.9,4.5-6.8,4.5-10.9c0.1-1.2,0.3-2.4,0.6-3.6
	c2,0.4,3.6,1.9,4.2,3.9c1.3,3.5,0.6,6.9-0.1,10.4c-0.3,1.3-0.7,2.5-1.1,3.8c-0.8,3,0.5,4.7,3.6,4.8c7.6,0,15.2,0,22.8,0
	c0.6,0,1.2,0,1.7,0c1.5,0.1,2.5,0.8,2.4,2.3C82.5,33.2,81.4,33.9,79.9,33.9z"/>
</svg>
