<?xml version="1.0" encoding="UTF-8" standalone="no"?>
<!-- Created with Inkscape (http://www.inkscape.org/) -->

<svg
   xmlns:dc="http://purl.org/dc/elements/1.1/"
   xmlns:cc="http://creativecommons.org/ns#"
   xmlns:rdf="http://www.w3.org/1999/02/22-rdf-syntax-ns#"
   xmlns:svg="http://www.w3.org/2000/svg"
   xmlns="http://www.w3.org/2000/svg"
   xmlns:sodipodi="http://sodipodi.sourceforge.net/DTD/sodipodi-0.dtd"
   xmlns:inkscape="http://www.inkscape.org/namespaces/inkscape"
   version="1.1"
   id="svg2"
   width="88.759544"
   height="79.807053"
   viewBox="0 0 88.759544 79.807053"
   sodipodi:docname="ok.svg"
   inkscape:version="0.92.1 r15371">
  <metadata
     id="metadata8">
    <rdf:RDF>
      <cc:Work
         rdf:about="">
        <dc:format>image/svg+xml</dc:format>
        <dc:type
           rdf:resource="http://purl.org/dc/dcmitype/StillImage" />
        <dc:title></dc:title>
      </cc:Work>
    </rdf:RDF>
  </metadata>
  <defs
     id="defs6" />
  <sodipodi:namedview
     pagecolor="#ffffff"
     bordercolor="#666666"
     borderopacity="1"
     objecttolerance="10"
     gridtolerance="10"
     guidetolerance="10"
     inkscape:pageopacity="0"
     inkscape:pageshadow="2"
     inkscape:window-width="1366"
     inkscape:window-height="705"
     id="namedview4"
     showgrid="false"
     inkscape:zoom="2.95"
     inkscape:cx="150.14428"
     inkscape:cy="41.629188"
     inkscape:window-x="1272"
     inkscape:window-y="49"
     inkscape:window-maximized="1"
     inkscape:current-layer="svg2" />
  <g
     id="g12"
     transform="translate(-0.11842793,-0.12722346)">
    <path
       style="fill:#f79ea1"
       d="M 2.4049876,76.75 0.5,74.5 2.75,76.404988 C 4.8644448,78.195206 5.4552408,79 4.6549876,79 c -0.1897569,0 -1.2022569,-1.0125 -2.25,-2.25 z M 30.194949,75.5 c 0.02038,-1.65 0.244498,-2.203936 0.498042,-1.230968 0.253543,0.972967 0.236869,2.322967 -0.03705,3 C 30.382014,77.946064 30.174569,77.15 30.194949,75.5 Z M 13.25,73.271532 c 2.0625,-0.215745 5.4375,-0.215745 7.5,0 2.0625,0.215744 0.375,0.392262 -3.75,0.392262 -4.125,0 -5.8125,-0.176518 -3.75,-0.392262 z M 6.4217949,51 c 0,-11.275 0.1458385,-15.8875 0.3240856,-10.25 0.1782471,5.6375 0.1782471,14.8625 0,20.5 C 6.5676334,66.8875 6.4217949,62.275 6.4217949,51 Z M 46.199419,67.25617 c 4.78468,-0.182908 12.88468,-0.183766 18,-0.0019 C 69.314738,67.436122 65.4,67.585774 55.5,67.586823 45.6,67.587871 41.414738,67.439078 46.199419,67.25617 Z M 80.232003,65 c 0,-1.925 0.205795,-2.7125 0.457323,-1.75 0.251527,0.9625 0.251527,2.5375 0,3.5 -0.251528,0.9625 -0.457323,0.175 -0.457323,-1.75 z M 30.189084,47.809017 C 30.085088,38.628976 30.3375,30.908209 30.75,30.651756 c 0.4125,-0.256453 0.632472,4.779489 0.488827,11.190983 -0.466007,20.799874 -0.856554,23.019572 -1.049743,5.966278 z m 34.874302,12.063428 c -0.107851,-2.769279 2.506503,-4.009868 7.60892,-3.610658 L 77.5,56.639504 72.217776,56.819752 c -4.454316,0.151997 -5.423974,0.532901 -6.186614,2.430248 -0.612016,1.522615 -0.924881,1.723841 -0.967776,0.622445 z M 84.194949,54.5 c 0.02038,-1.65 0.244498,-2.203936 0.498042,-1.230968 0.253543,0.972967 0.236869,2.322967 -0.03705,3 C 84.382014,56.946064 84.174569,56.15 84.194949,54.5 Z m -6.630656,-1.206872 c -0.542685,-1.425198 -0.427821,-1.540062 0.559795,-0.559795 0.683418,0.678334 0.990671,1.485241 0.682784,1.793128 -0.307887,0.307888 -0.867048,-0.247112 -1.242579,-1.233333 z M 66.078947,48.416667 c 0.04798,-1.164943 0.284941,-1.4019 0.604167,-0.604167 0.288871,0.721875 0.253344,1.584375 -0.07895,1.916667 -0.332292,0.332291 -0.568641,-0.258334 -0.52522,-1.3125 z m 4.153144,-3.131193 c 1.50265,-0.228174 4.20265,-0.232767 6,-0.0102 C 78.029441,45.49783 76.8,45.684518 73.5,45.690131 c -3.3,0.0056 -4.770559,-0.176483 -3.267909,-0.404657 z m 15.846856,-3.868807 c 0.04798,-1.164943 0.284941,-1.4019 0.604167,-0.604167 0.288871,0.721875 0.253344,1.584375 -0.07895,1.916667 -0.332292,0.332291 -0.568641,-0.258334 -0.52522,-1.3125 z M 71.26375,40.282419 c 1.520062,-0.229855 3.770062,-0.223712 5,0.01365 1.229937,0.237362 -0.01375,0.425424 -2.76375,0.417917 -2.75,-0.0075 -3.756313,-0.201713 -2.23625,-0.431567 z m -4.184803,-2.865752 c 0.04798,-1.164943 0.284941,-1.4019 0.604167,-0.604167 0.288871,0.721875 0.253344,1.584375 -0.07895,1.916667 -0.332292,0.332291 -0.568641,-0.258334 -0.52522,-1.3125 z m 4.153144,-3.131193 c 1.50265,-0.228174 4.20265,-0.232767 6,-0.0102 C 79.029441,34.49783 77.8,34.684518 74.5,34.690131 c -3.3,0.0056 -4.770559,-0.176483 -3.267909,-0.404657 z M 88.232003,32 c 0,-1.925 0.205795,-2.7125 0.457323,-1.75 0.251527,0.9625 0.251527,2.5375 0,3.5 -0.251528,0.9625 -0.457323,0.175 -0.457323,-1.75 z M 60.20625,29.259447 c 3.688437,-0.191858 9.988437,-0.193134 14,-0.0028 C 78.217812,29.446945 75.2,29.603919 67.5,29.60548 59.8,29.60708 56.517812,29.451342 60.20625,29.259484 Z M 42,22.5 C 43.865783,20.575 45.617334,19 45.892334,19 46.167334,19 44.865783,20.575 43,22.5 41.134217,24.425 39.382666,26 39.107666,26 38.832666,26 40.134217,24.425 42,22.5 Z M 9.25,24.25845 c 3.7125,-0.192407 9.7875,-0.192407 13.5,0 3.7125,0.192406 0.675,0.349829 -6.75,0.349829 -7.425,0 -10.4625,-0.157423 -6.75,-0.349829 z m 71.5625,-0.941564 c 0.721875,-0.288871 1.584375,-0.253344 1.916667,0.07895 0.332291,0.332292 -0.258334,0.568641 -1.3125,0.52522 -1.164943,-0.04798 -1.4019,-0.284941 -0.604167,-0.604167 z M 59.078947,21.416667 c 0.04798,-1.164943 0.284941,-1.4019 0.604167,-0.604167 0.288871,0.721875 0.253344,1.584375 -0.07895,1.916667 -0.332292,0.332291 -0.568641,-0.258334 -0.52522,-1.3125 z m -6,-2 c 0.04798,-1.164943 0.284941,-1.4019 0.604167,-0.604167 0.288871,0.721875 0.253344,1.584375 -0.07895,1.916667 -0.332292,0.332291 -0.568641,-0.258334 -0.52522,-1.3125 z M 38,17.622445 c 0,-0.207656 0.7875,-0.995156 1.75,-1.75 C 41.336056,14.628574 41.371426,14.663944 40.127555,16.25 38.821186,17.915748 38,18.445479 38,17.622445 Z M 48.157895,10 c 0,-1.375 0.226973,-1.9375 0.504386,-1.25 0.277412,0.6875 0.277412,1.8125 0,2.5 -0.277413,0.6875 -0.504386,0.125 -0.504386,-1.25 z M 43,3.6224447 c 0,-0.2076554 0.7875,-0.9951554 1.75,-1.75 C 46.336056,0.62857405 46.371426,0.66394438 45.127555,2.25 43.821186,3.915748 43,4.4454789 43,3.6224447 Z m 4.730968,-3.27838144 c 0.677033,-0.2739231 2.027033,-0.29059739 3,-0.037054 C 51.703936,0.56055269 51.15,0.78467159 49.5,0.80505128 47.85,0.82543097 47.053936,0.61798636 47.730968,0.34406326 Z"
       id="path16"
       inkscape:connector-curvature="0" />
    <path
       style="fill:#f36267"
       d="M 6.5,79.054643 C 5.4,78.604422 3.6,77.236743 2.5,76.015357 0.64902671,73.960127 0.47721757,72.147378 0.19425044,51.687519 0.02608818,39.528595 0.14716159,28.549798 0.46330247,27.290192 1.0276272,25.041743 1.2895109,25 14.831311,25 h 13.793207 l 6.194613,-4.603291 c 3.407038,-2.531811 6.386877,-5.569311 6.621866,-6.75 0.234989,-1.18069 0.687241,-3.6921812 1.005004,-5.5810918 C 43.229884,3.4059099 45.638692,1 49.520129,1 56.450319,1 60.69812,7.9469246 59.697302,17.643918 L 59.144506,23 l 9.677747,0.0056 c 11.042096,0.0064 16.706288,1.244977 18.16598,3.972437 1.305144,2.438683 1.309138,8.720167 0.0061,9.525515 -0.553141,0.34186 -0.933951,2.518719 -0.846246,4.837466 0.08771,2.318746 -0.359725,5.186017 -0.99429,6.371712 C 84.51919,48.898403 84,51.637414 84,53.7994 c 0,2.416687 -0.77041,4.9103 -2,6.473471 -1.1,1.398423 -2,3.884257 -2,5.524074 0,1.639818 -0.86167,4.04384 -1.914821,5.342271 C 76.172961,73.49679 76.138972,73.5 53.084733,73.5 H 29.999109 l 4.45e-4,2.643011 c 2.51e-4,1.48791 -0.690859,2.90829 -1.581341,3.25 C 26.107022,80.279898 8.8424052,80.013371 6.5,79.054643 Z M 24,52.5 V 31 H 15 6 l 0.015313,19.75 c 0.00842,10.8625 0.345922,20.245025 0.75,20.850056 C 7.9447161,73.36599 10.072915,73.83711 17.25,73.921053 L 24,74 Z m 49.721855,14.378145 c 1.748815,-1.748815 0.339503,-3.87655 -2.578844,-3.893458 -3.584068,-0.02077 -5.412269,-1.343472 -4.982038,-3.604514 0.285657,-1.50125 1.397529,-1.94052 5.516976,-2.179609 C 79.75306,56.731892 81.886567,52 74.02277,52 68.633712,52 67,51.160904 67,48.393011 67,46.140426 67.344904,46 72.877555,46 77.057869,46 79.140527,45.535602 80.089808,44.391787 82.07619,41.998344 78.76323,40 72.80887,40 68.346075,40 68,39.820085 68,37.5 68,35.120251 68.279409,35 73.80887,35 c 6.867956,0 10.389428,-1.851213 8.303218,-4.364942 -1.06145,-1.278969 -4.018225,-1.634307 -15.462253,-1.858212 L 52.5,28.5 l 0.256632,-3 c 0.141148,-1.65 0.524988,-5.480419 0.852979,-8.512043 0.491795,-4.545676 0.256047,-5.932294 -1.34468,-7.9091088 C 49.891585,6.1478903 48,7.0481613 48,11.108677 48,16.770604 42.769229,23.282492 33.75,28.848778 L 30,31.163119 v 16.295996 c 0,17.617115 0.06396,17.83672 5.686067,19.524317 4.386558,1.316719 36.703238,1.227263 38.035788,-0.105287 z"
       id="path14"
       inkscape:connector-curvature="0" />
  </g>
</svg>
