<?xml version="1.0" encoding="utf-8"?>
<!-- Generator: Adobe Illustrator 21.0.2, SVG Export Plug-In . SVG Version: 6.00 Build 0)  -->
<svg version="1.1" id="Слой_1" xmlns="http://www.w3.org/2000/svg" xmlns:xlink="http://www.w3.org/1999/xlink" x="0px" y="0px"
	 viewBox="0 0 70 70" style="enable-background:new 0 0 70 70;" xml:space="preserve">
<style type="text/css">
	.st0{fill:#8A91C1;}
</style>
<path class="st0" d="M58.4,0v1.6c0,8.6,0,17.2,0,25.8c0.1,0.8-0.3,1.5-1.1,1.9c-2,1-3.9,2.1-5.8,3.1c-1.5,0.8-3.1,1.7-4.8,2.6V23.4
	c-7.8,3.9-15.5,7.7-23.3,11.6V23.4c-0.6,0.3-0.9,0.5-1.3,0.6c-7,3.5-13.9,7-20.9,10.4c-0.8,0.3-1.3,1.1-1.2,1.9
	c0,10.8,0,21.6,0,32.3c0,0.4,0,0.9,0.1,1.3H70V0H58.4z M20.8,55.8H9.3v-8.1h11.5V55.8z M40.8,55.8H29.3v-8.1h11.5V55.8z M60.8,55.8
	H49.3v-8.1h11.5V55.8z"/>
</svg>
