<?xml version="1.0" encoding="utf-8"?>
<!-- Generator: Adobe Illustrator 21.0.2, SVG Export Plug-In . SVG Version: 6.00 Build 0)  -->
<svg version="1.1" id="Слой_1" xmlns="http://www.w3.org/2000/svg" xmlns:xlink="http://www.w3.org/1999/xlink" x="0px" y="0px"
	 viewBox="0 0 74 80" style="enable-background:new 0 0 74 80;" xml:space="preserve">
<style type="text/css">
	.st0{fill:#F46267;}
</style>
<path class="st0" d="M13.6,39.7l3.1,3.9l3.5-2.8c0.4-0.3,1.2-1,2.2-2.1l-0.1,3.2l-0.1,2.9v17.8h6.5V31.8h-5.3L13.6,39.7z"/>
<rect x="51.4" y="43.1" class="st0" width="8.2" height="8.2"/>
<path class="st0" d="M58.6,6.5h-4.1V4.4C54.5,2,52.5,0,50.1,0c-2.4,0-4.4,1.9-4.4,4.3c0,0,0,0,0,0v2.1H28.2V4.4
	C28.2,2,26.3,0,23.9,0c-2.4,0-4.4,1.9-4.4,4.3c0,0,0,0,0,0v2.1h-4.1C6.9,6.5,0,13.5,0,22v42.5C0,73,6.9,80,15.4,80h43.1
	C67.1,80,74,73,74,64.5V22C74,13.5,67.1,6.5,58.6,6.5z M58.6,72.9H15.4c-4.6,0-8.4-3.8-8.4-8.4V22c0-4.6,3.8-8.4,8.4-8.4h4.1v2.1
	c0,2.4,1.9,4.3,4.3,4.3c2.4,0,4.3-1.9,4.3-4.3v-2.1h17.5v2.1c0,2.4,1.9,4.3,4.3,4.3c2.4,0,4.3-1.9,4.3-4.3v-2.1h4.1
	c4.6,0,8.4,3.8,8.4,8.4v42.5h0C67,69.1,63.2,72.9,58.6,72.9z"/>
<rect x="51.4" y="56.8" class="st0" width="8.2" height="8.2"/>
<rect x="51.4" y="29.3" class="st0" width="8.2" height="8.2"/>
<rect x="38.6" y="29.3" class="st0" width="8.2" height="8.2"/>
<rect x="38.6" y="56.8" class="st0" width="8.2" height="8.2"/>
<rect x="38.6" y="43.1" class="st0" width="8.2" height="8.2"/>
</svg>
