<?xml version="1.0" encoding="UTF-8" standalone="no"?>
<!-- Created with Inkscape (http://www.inkscape.org/) -->

<svg
   xmlns:dc="http://purl.org/dc/elements/1.1/"
   xmlns:cc="http://creativecommons.org/ns#"
   xmlns:rdf="http://www.w3.org/1999/02/22-rdf-syntax-ns#"
   xmlns:svg="http://www.w3.org/2000/svg"
   xmlns="http://www.w3.org/2000/svg"
   xmlns:sodipodi="http://sodipodi.sourceforge.net/DTD/sodipodi-0.dtd"
   xmlns:inkscape="http://www.inkscape.org/namespaces/inkscape"
   version="1.1"
   id="svg2"
   width="73.85141"
   height="79.587852"
   viewBox="0 0 73.85141 79.587852"
   sodipodi:docname="time.svg"
   inkscape:version="0.92.1 r15371">
  <metadata
     id="metadata8">
    <rdf:RDF>
      <cc:Work
         rdf:about="">
        <dc:format>image/svg+xml</dc:format>
        <dc:type
           rdf:resource="http://purl.org/dc/dcmitype/StillImage" />
        <dc:title></dc:title>
      </cc:Work>
    </rdf:RDF>
  </metadata>
  <defs
     id="defs6" />
  <sodipodi:namedview
     pagecolor="#ffffff"
     bordercolor="#666666"
     borderopacity="1"
     objecttolerance="10"
     gridtolerance="10"
     guidetolerance="10"
     inkscape:pageopacity="0"
     inkscape:pageshadow="2"
     inkscape:window-width="1366"
     inkscape:window-height="705"
     id="namedview4"
     showgrid="false"
     inkscape:zoom="2.95"
     inkscape:cx="137.11546"
     inkscape:cy="41.674967"
     inkscape:window-x="1272"
     inkscape:window-y="49"
     inkscape:window-maximized="1"
     inkscape:current-layer="svg2" />
  <g
     id="g12"
     transform="translate(-1.0625065,-0.39219667)">
    <path
       style="fill:#f79da0"
       d="M 8.5070792,78.011454 C 8.1567404,77.444594 8.5581371,77.276947 9.4480622,77.618443 11.180479,78.283234 11.497449,79 10.059017,79 9.5414763,79 8.8431043,78.555154 8.5070792,78.011454 Z M 5,75.5 C 4.3153108,74.675 3.9801106,74 4.2551106,74 4.5301106,74 5.3153108,74.675 6,75.5 6.6846892,76.325 7.0198894,77 6.7448894,77 6.4698894,77 5.6846892,76.325 5,75.5 Z m 5,-5 C 9.3153108,69.675 8.9801106,69 9.2551106,69 9.5301106,69 10.315311,69.675 11,70.5 11.684689,71.325 12.019889,72 11.744889,72 11.469889,72 10.684689,71.325 10,70.5 Z m 54,1.122445 c 0,-0.207656 0.7875,-0.995156 1.75,-1.75 C 67.336056,68.628574 67.371426,68.663944 66.127555,70.25 64.821186,71.915748 64,72.445479 64,71.622445 Z M 39.272364,61 c 0,-2.475 0.195016,-3.4875 0.433369,-2.25 0.238353,1.2375 0.238353,3.2625 0,4.5 -0.238353,1.2375 -0.433369,0.225 -0.433369,-2.25 z m 8,0 c 0,-2.475 0.195016,-3.4875 0.433369,-2.25 0.238353,1.2375 0.238353,3.2625 0,4.5 -0.238353,1.2375 -0.433369,0.225 -0.433369,-2.25 z m 5,0 c 0,-2.475 0.195016,-3.4875 0.433369,-2.25 0.238353,1.2375 0.238353,3.2625 0,4.5 -0.238353,1.2375 -0.433369,0.225 -0.433369,-2.25 z m 8,0 c 0,-2.475 0.195016,-3.4875 0.433369,-2.25 0.238353,1.2375 0.238353,3.2625 0,4.5 C 60.46738,64.4875 60.272364,63.475 60.272364,61 Z M 23,51.377555 C 23,40.452391 22.89501,39.837449 21.25,41.127555 19.663944,42.371426 19.628574,42.336056 20.872445,40.75 21.627289,39.7875 22.639789,39 23.122445,39 23.6051,39 24,44.175 24,50.5 V 62 h 2.473954 2.473954 L 29.252016,46.75 29.556124,31.5 29.778062,47.25 30,63 H 26.5 23 Z m 16.421505,-0.721514 c -0.309332,-0.806107 -0.377732,-2.970987 -0.152001,-4.810845 0.370161,-3.017043 0.426121,-2.928285 0.570459,0.904804 0.156119,4.145963 0.244307,4.25 3.602539,4.25 3.283176,0 3.461274,-0.185472 3.848088,-4.007423 l 0.405586,-4.007423 -0.09809,4.257423 c -0.09629,4.179244 -0.167097,4.263131 -3.856125,4.568267 -2.596847,0.214798 -3.931818,-0.142023 -4.320458,-1.154803 z m 13,0 c -0.309332,-0.806107 -0.377732,-2.970987 -0.152001,-4.810845 0.370161,-3.017043 0.426121,-2.928285 0.570459,0.904804 0.156119,4.145963 0.244307,4.25 3.602539,4.25 3.283176,0 3.461274,-0.185472 3.848088,-4.007423 l 0.405586,-4.007423 -0.09809,4.257423 c -0.09629,4.179244 -0.167097,4.263131 -3.856125,4.568267 -2.596847,0.214798 -3.931818,-0.142023 -4.320458,-1.154803 z M 16,38.622445 c 0,-0.207656 0.7875,-0.995156 1.75,-1.75 C 19.336056,35.628574 19.371426,35.663944 18.127555,37.25 16.821186,38.915748 16,39.445479 16,38.622445 Z m 23.394042,-2.037972 c -0.298754,-0.77854 -0.397131,-2.69104 -0.218616,-4.25 0.293001,-2.558747 0.737997,-2.864385 4.574574,-3.141971 L 48,28.885004 V 33.442502 38 h -4.031385 c -2.55404,0 -4.230442,-0.518735 -4.574573,-1.415527 z M 47,33.5 C 47,30.166667 46.833333,30 43.5,30 40.166667,30 40,30.166667 40,33.5 c 0,3.333333 0.166667,3.5 3.5,3.5 3.333333,0 3.5,-0.166667 3.5,-3.5 z m 5.714259,3.880925 C 52.321416,36.988083 52,34.941667 52,32.833333 V 29 h 4.557498 4.557498 l -0.307498,4.25 c -0.294827,4.074876 -0.453191,4.262262 -3.843239,4.547592 -1.944658,0.163675 -3.857158,-0.02383 -4.25,-0.416667 z M 60,33.5 C 60,30.166667 59.833333,30 56.5,30 53.166667,30 53,30.166667 53,33.5 c 0,3.333333 0.166667,3.5 3.5,3.5 3.333333,0 3.5,-0.166667 3.5,-3.5 z m -39,1.122445 c 0,-0.207656 0.7875,-0.995156 1.75,-1.75 C 24.336056,31.628574 24.371426,31.663944 23.127555,33.25 21.821186,34.915748 21,35.445479 21,34.622445 Z M 20,15.563358 c 0,-0.871427 -1.27864,-1.595319 -3.25,-1.839962 -3.199824,-0.397095 -3.192105,-0.405793 0.5,-0.563359 C 20.386679,13.026174 21,13.327105 21,15 21,16.1 20.775,17 20.5,17 20.225,17 20,16.353511 20,15.563358 Z M 55.015313,14.75 c -0.01212,-1.384583 0.767724,-1.718714 3.734687,-1.600168 3.401005,0.135888 3.471107,0.190818 0.75325,0.590233 -1.648212,0.24222 -3.328821,0.962296 -3.734687,1.600168 C 55.289507,16.093134 55.025254,15.88607 55.015313,14.75 Z M 33.25,13.264961 c 2.6125,-0.205999 6.8875,-0.205999 9.5,0 2.6125,0.205998 0.475,0.374543 -4.75,0.374543 -5.225,0 -7.3625,-0.168545 -4.75,-0.374543 z M 16.687987,6.2812296 C 18.605402,6.0414336 20.053732,5.2084794 20.321985,4.1912666 20.638899,2.9895391 20.801574,3.1512651 20.883999,4.75 20.986088,6.7301629 20.550272,6.9808071 17.25,6.8399629 13.647225,6.6862089 13.625161,6.664273 16.687987,6.2812296 Z M 33.25,6.2649606 c 2.6125,-0.2059987 6.8875,-0.2059987 9.5,0 2.6125,0.2059986 0.475,0.3745429 -4.75,0.3745429 -5.225,0 -7.3625,-0.1685443 -4.75,-0.3745429 z M 55.015313,5.25 c 0.0099,-1.1360702 0.274194,-1.3431339 0.75325,-0.5902326 0.405866,0.637872 2.086475,1.3579476 3.734687,1.6001679 C 62.221107,6.6593498 62.151005,6.71428 58.75,6.8501679 55.783037,6.9687136 55.003197,6.6345829 55.015313,5.25 Z"
       id="path16"
       inkscape:connector-curvature="0" />
    <path
       style="fill:#f36166"
       d="M 10.401069,78.094566 C 8.1466574,77.070735 5.2216574,74.718118 3.9010693,72.866528 1.5427006,69.55987 1.4945678,69.055401 1.1945479,44.5 0.89462614,19.952642 0.93128881,19.420432 3.2194727,15.105336 6.0033314,9.8554879 10.764603,7 16.734398,7 20.60147,7 21,6.7697151 21,4.5351838 c 0,-2.759652 2.961422,-4.87095379 5.477812,-3.90532435 0.892484,0.34247796 1.881333,1.91586425 2.197443,3.49641385 L 29.25,7 h 8.875 C 46.891217,7 47,6.9697882 47,4.5351838 47,1.3736359 50.188188,-0.50483599 53,1 c 1.12562,0.6024135 2,2.0938234 2,3.4113536 0,2.1059903 0.53401,2.3852704 5.319709,2.7821378 5.863808,0.4862726 9.486504,2.6302463 12.345888,7.3065086 1.623652,2.655337 1.867994,5.814751 2.126787,27.5 0.284718,23.857673 0.232283,24.617978 -2,29 -1.673328,3.28478 -3.497312,5.10761 -6.754274,6.75 -4.254534,2.145437 -5.555767,2.248979 -28,2.228038 C 17.247973,79.95864 14.021467,79.738753 10.401069,78.094566 Z M 65.545455,70.545455 68,68.090909 V 43.468531 18.846154 L 65.076923,15.923077 C 62.93576,13.781913 61.197031,13 58.576923,13 55.441821,13 55,13.304454 55,15.464816 55,18.626364 51.811812,20.504836 49,19 47.830452,18.374077 47,16.906177 47,15.464816 47,13.030212 46.891217,13 38.125,13 H 29.25 l -0.574745,2.873727 c -0.31611,1.580549 -1.304959,3.153936 -2.197443,3.496414 C 23.961422,20.33577 21,18.224468 21,15.464816 21,13.325073 20.548521,13 17.576725,13 c -2.223883,0 -4.501248,0.907055 -6.5,2.588894 L 8,18.177787 V 43.134348 68.090909 L 10.454545,70.545455 12.909091,73 H 38 63.090909 Z M 40,61 c 0,-3.904762 0.08333,-4 3.5,-4 3.416667,0 3.5,0.09524 3.5,4 0,3.904762 -0.08333,4 -3.5,4 C 40.083333,65 40,64.90476 40,61 Z m 13,0 c 0,-3.904762 0.08333,-4 3.5,-4 3.416667,0 3.5,0.09524 3.5,4 0,3.904762 -0.08333,4 -3.5,4 C 53.083333,65 53,64.904762 53,61 Z M 24,50.5 C 24,44.175 23.691503,39 23.314451,39 c -0.377052,0 -1.763318,1.0125 -3.080591,2.25 -2.326321,2.18544 -2.434616,2.195882 -3.774188,0.363934 -1.253257,-1.713906 -0.936173,-2.238766 3.473752,-5.75 C 22.602517,33.73877 25.734398,32 26.89316,32 28.941976,32 29,32.413112 29,47 V 62 H 26.5 24 Z M 40,47 c 0,-3.904762 0.08333,-4 3.5,-4 3.416667,0 3.5,0.09524 3.5,4 0,3.904762 -0.08333,4 -3.5,4 C 40.083333,51 40,50.90476 40,47 Z m 13,0 c 0,-3.904762 0.08333,-4 3.5,-4 3.416667,0 3.5,0.09524 3.5,4 0,3.904762 -0.08333,4 -3.5,4 C 53.083333,51 53,50.904762 53,47 Z M 40,33.5 C 40,30.166667 40.166667,30 43.5,30 46.833333,30 47,30.166667 47,33.5 47,36.833333 46.833333,37 43.5,37 40.166667,37 40,36.833333 40,33.5 Z m 13,0 C 53,30.166667 53.166667,30 56.5,30 59.833333,30 60,30.166667 60,33.5 60,36.833333 59.833333,37 56.5,37 53.166667,37 53,36.833333 53,33.5 Z"
       id="path14"
       inkscape:connector-curvature="0" />
  </g>
</svg>
