<?xml version="1.0" encoding="UTF-8" standalone="no"?>
<!-- Created with Inkscape (http://www.inkscape.org/) -->

<svg
   xmlns:dc="http://purl.org/dc/elements/1.1/"
   xmlns:cc="http://creativecommons.org/ns#"
   xmlns:rdf="http://www.w3.org/1999/02/22-rdf-syntax-ns#"
   xmlns:svg="http://www.w3.org/2000/svg"
   xmlns="http://www.w3.org/2000/svg"
   xmlns:sodipodi="http://sodipodi.sourceforge.net/DTD/sodipodi-0.dtd"
   xmlns:inkscape="http://www.inkscape.org/namespaces/inkscape"
   version="1.1"
   id="svg2"
   width="90.587036"
   height="65.826912"
   viewBox="0 0 90.587036 65.826912"
   sodipodi:docname="transp.svg"
   inkscape:version="0.92.1 r15371">
  <metadata
     id="metadata8">
    <rdf:RDF>
      <cc:Work
         rdf:about="">
        <dc:format>image/svg+xml</dc:format>
        <dc:type
           rdf:resource="http://purl.org/dc/dcmitype/StillImage" />
        <dc:title></dc:title>
      </cc:Work>
    </rdf:RDF>
  </metadata>
  <defs
     id="defs6" />
  <sodipodi:namedview
     pagecolor="#ffffff"
     bordercolor="#666666"
     borderopacity="1"
     objecttolerance="10"
     gridtolerance="10"
     guidetolerance="10"
     inkscape:pageopacity="0"
     inkscape:pageshadow="2"
     inkscape:window-width="1366"
     inkscape:window-height="705"
     id="namedview4"
     showgrid="false"
     inkscape:zoom="3.5757576"
     inkscape:cx="144.13172"
     inkscape:cy="30.045495"
     inkscape:window-x="1272"
     inkscape:window-y="49"
     inkscape:window-maximized="1"
     inkscape:current-layer="svg2" />
  <g
     id="g12"
     transform="translate(-0.36827925,-0.01519467)">
    <path
       style="fill:#f6989b"
       d="m 26.75,65.337719 c 0.6875,-0.277412 1.8125,-0.277412 2.5,0 0.6875,0.277413 0.125,0.504386 -1.25,0.504386 -1.375,0 -1.9375,-0.226973 -1.25,-0.504386 z m 40,0 c 0.6875,-0.277412 1.8125,-0.277412 2.5,0 0.6875,0.277413 0.125,0.504386 -1.25,0.504386 -1.375,0 -1.9375,-0.226973 -1.25,-0.504386 z M 21.507079,64.011454 c -0.350339,-0.56686 0.05106,-0.734507 0.940983,-0.393011 C 24.180479,64.283234 24.497449,65 23.059017,65 22.541476,65 21.843104,64.555154 21.507079,64.011454 Z M 58.404988,61.75 56.5,59.5 58.75,61.404988 C 60.864445,63.195206 61.455241,64 60.654988,64 c -0.189757,0 -1.202257,-1.0125 -2.25,-2.25 z M 75.5,62 c 0.995486,-1.1 2.034975,-2 2.309975,-2 0.275,0 -0.314489,0.9 -1.309975,2 -0.995486,1.1 -2.034975,2 -2.309975,2 -0.275,0 0.314489,-0.9 1.309975,-2 z M 23.872445,56.25 C 22.602929,54.631245 22.649994,54.610023 24.5,55.967032 c 1.1,0.806868 2.1875,1.594368 2.416667,1.75 C 27.145833,57.872665 26.863433,58 26.289111,58 25.714789,58 24.627289,57.2125 23.872445,56.25 Z M 9.2,55.8 c -2.8090276,-2.809028 -0.5242518,-6.880002 3.75,-6.681685 2.375607,0.110223 2.345667,0.162042 -0.437789,0.757705 -3.5406871,0.757712 -4.5758449,3.873064 -1.929822,5.807883 C 11.572318,56.407756 11.936251,57 11.39113,57 10.846008,57 9.86,56.46 9.2,55.8 Z m 76.6125,0.516886 c 0.721875,-0.288871 1.584375,-0.253344 1.916667,0.07895 0.332291,0.332292 -0.258334,0.568641 -1.3125,0.52522 -1.164943,-0.04798 -1.4019,-0.284941 -0.604167,-0.604167 z M 32.157895,53 c 0,-1.375 0.226973,-1.9375 0.504386,-1.25 0.277412,0.6875 0.277412,1.8125 0,2.5 -0.277413,0.6875 -0.504386,0.125 -0.504386,-1.25 z M 44.25,49.271532 c 2.0625,-0.215745 5.4375,-0.215745 7.5,0 2.0625,0.215744 0.375,0.392262 -3.75,0.392262 -4.125,0 -5.8125,-0.176518 -3.75,-0.392262 z m 37.186185,0.06187 c 1.045136,-0.327995 1.582819,-2.340822 1.843778,-6.90222 l 0.368388,-6.439198 -0.07418,6.74367 c -0.06262,5.693408 -0.349775,6.768362 -1.843779,6.902219 -1.153048,0.10331 -1.255556,-0.0028 -0.294212,-0.304471 z M 35.924314,44.25 33.5,41.5 36.25,43.924314 C 38.820289,46.190201 39.458588,47 38.674314,47 c -0.179127,0 -1.416627,-1.2375 -2.75,-2.75 z M 76,44.5 C 75.315311,43.675 74.980111,43 75.255111,43 c 0.275,0 1.0602,0.675 1.744889,1.5 0.684689,0.825 1.019889,1.5 0.744889,1.5 -0.275,0 -1.0602,-0.675 -1.744889,-1.5 z M 22.078947,38.416667 c 0.04798,-1.164943 0.284941,-1.4019 0.604167,-0.604167 0.288871,0.721875 0.253344,1.584375 -0.07895,1.916667 -0.332292,0.332291 -0.568641,-0.258334 -0.52522,-1.3125 z M 11.26375,34.282419 c 1.520062,-0.229855 3.770062,-0.223712 5,0.01365 1.229937,0.237362 -0.01375,0.425424 -2.76375,0.417917 -2.75,-0.0075 -3.7563126,-0.201713 -2.23625,-0.431567 z m 78.300543,-1.989291 c -0.542685,-1.425198 -0.427821,-1.540062 0.559795,-0.559795 0.683418,0.678334 0.990671,1.485241 0.682784,1.793128 -0.307887,0.307888 -0.867048,-0.247112 -1.242579,-1.233333 z M 57.789188,30.258586 c 3.459053,-0.19583 8.859053,-0.194213 12,0.0036 3.140946,0.197803 0.310812,0.358027 -6.289188,0.35605 -6.6,-0.002 -9.169866,-0.16382 -5.710812,-0.35965 z M 7.7084118,23.260682 C 11.123038,23.066005 16.973038,23.064574 20.708412,23.257502 24.443785,23.450429 21.65,23.609711 14.5,23.61146 7.35,23.613209 4.2937853,23.455359 7.7084118,23.260682 Z M 57.405527,22.614404 c -0.292436,-0.762078 -0.390813,-3.349578 -0.218615,-5.75 L 57.5,12.5 62.755656,12.4131 68.011313,12.3262 63.005656,12.715357 58,13.104519 v 5.01871 5.018709 l 8.907768,-0.320969 C 71.80704,22.644436 75.605483,22.8375 75.348751,23.25 75.092019,23.6625 71.069401,24 66.409598,24 60.111999,24 57.800748,23.644332 57.405527,22.614404 Z M 13.789188,19.258586 c 3.459053,-0.19583 8.859053,-0.194213 12,0.0036 3.140946,0.197803 0.310812,0.358027 -6.289188,0.35605 -6.6,-0.002 -9.169866,-0.16382 -5.710812,-0.35965 z M 75.404988,8.75 73.5,6.5 75.75,8.4049876 C 77.864445,10.195206 78.455241,11 77.654988,11 c -0.189757,0 -1.202257,-1.0125 -2.25,-2.25 z M 21.25,7.2544982 c 5.3625,-0.1798072 14.1375,-0.1798072 19.5,0 5.3625,0.1798072 0.975,0.3269222 -9.75,0.3269222 -10.725,0 -15.1125,-0.147115 -9.75,-0.3269222 z M 9.3742855,5.5329891 C 9.0646658,4.7261331 9.0043242,3.4886331 9.240193,2.7829891 9.4760619,2.0773451 9.9061079,2.7375 10.195851,4.25 10.761587,7.2032231 10.294887,7.9320393 9.3742855,5.5329891 Z M 55,1 C 54.098708,0.41754043 53.975367,0.02451363 54.690983,0.01531277 55.346024,0.00689075 56.160081,0.45 56.5,1 57.267305,2.2415252 56.921123,2.2415252 55,1 Z"
       id="path16"
       inkscape:connector-curvature="0" />
    <path
       style="fill:#f36166"
       d="M 21.339286,63.065259 C 19.600894,62.005263 17.883069,60.206945 17.521899,59.068997 17.146527,57.886306 16.00918,57 14.866871,57 11.72074,57 9,55.114143 9,52.933431 c 0,-2.031091 0.4422881,-2.317132 5.18335,-3.352232 1.501059,-0.327721 2.972357,-1.496428 3.339286,-2.65252 0.941145,-2.965284 6.341868,-5.920586 10.827647,-5.924941 3.222849,-0.0031 4.594102,0.729573 8.41476,4.496262 4.475076,4.411862 4.692923,4.5 11.122449,4.5 6.474419,0 6.604607,-0.05415 10.218338,-4.25 3.514179,-4.080266 3.889359,-4.25 9.39417,-4.25 5.534416,0 5.865424,0.152821 9.518754,4.394652 C 82.256237,51.975821 84,51.149679 84,42.587148 c 0,-5.383024 -0.402558,-6.943622 -2.385887,-9.249379 -2.357419,-2.740664 -2.551309,-2.778522 -16.25,-3.172909 -8.812158,-0.253703 -14.131826,-0.811952 -14.5988,-1.532005 -0.404078,-0.62307 -0.741578,-5.735842 -0.75,-11.361715 L 50,7.0422799 30.25,6.7711399 10.5,6.5 10.162508,4.1130901 c -0.1856208,-1.3128004 0.264379,-2.7684097 1,-3.23468722 1.950766,-1.23650443 41.56418,-1.09504273 43.903233,0.15678092 C 56.129584,1.6045348 57,2.6787538 57,3.4223371 c 0,0.9689398 1.974131,1.463518 6.968033,1.7456988 9.041693,0.5109014 11.308168,2.2234808 17.08497,12.9096381 C 83.557155,22.709953 86.856307,28.3 88.384451,30.5 c 2.646944,3.810685 2.762757,4.459185 2.446997,13.702047 -0.182297,5.336125 -0.784963,10.154641 -1.339259,10.707811 -0.554297,0.553171 -2.932804,1.247629 -5.285573,1.543241 -3.315833,0.416616 -5.134413,1.438005 -8.087352,4.542189 C 72.704357,64.5851 71.811376,65 67.5,65 63.189567,65 62.295361,64.584804 58.885219,61 L 55.08011,57 h -7.871075 c -7.441622,0 -7.946567,0.141057 -9.254693,2.585314 -2.851593,5.328249 -10.839925,7.001367 -16.615056,3.479945 z m 10.089285,-6.636688 c 2.007028,-2.007027 2.007028,-4.850115 0,-6.857142 C 29.601739,47.744596 27.647288,47.583214 24.934259,49.035184 22.742038,50.208424 22.298531,54.898531 24.2,56.8 c 1.682749,1.682749 5.363524,1.493618 7.228571,-0.371429 z M 71.591957,55.5 c 1.517417,-2.315871 1.517417,-2.684129 0,-5 C 70.581305,48.95755 69.014004,48 67.5,48 c -1.514004,0 -3.081305,0.95755 -4.091957,2.5 -1.517417,2.315871 -1.517417,2.684129 0,5 1.010652,1.54245 2.577953,2.5 4.091957,2.5 1.514004,0 3.081305,-0.95755 4.091957,-2.5 z M 75.409592,23.146283 C 76.350153,21.624424 70.185577,13.084681 67.69524,12.459646 66.383003,12.130296 63.552249,12.004641 61.404677,12.180413 57.566223,12.49458 57.49469,12.57402 57.186912,16.864404 56.686591,23.838819 56.894915,24 66.409598,24 c 4.659803,0 8.7098,-0.384173 8.999994,-0.853717 z M 5.9641758,40.456835 C 4.9822174,39.273647 4.9014825,38.379736 5.6669753,37.166177 6.4931854,35.856362 8.2987645,35.5 14.108986,35.5 H 21.5 v 3 3 l -7.093813,0.290657 C 8.8277162,42.019226 7.0243793,41.734302 5.9641758,40.456835 Z M 2.8351439,30.327072 c -1.99403984,-0.528108 -2.99420911,-2.74898 -2.18623505,-4.854526 0.49348795,-1.286009 2.74103135,-1.483597 14.21861515,-1.25 13.276701,0.270213 13.64081,0.336132 13.951816,2.525842 0.236013,1.661708 -0.368075,2.509742 -2.3151,3.25 -2.555708,0.971678 -20.310328,1.21823 -23.6690961,0.328684 z M 5.9304335,17.416177 c -0.9538821,-1.149357 -1.0261524,-2.040878 -0.2634582,-3.25 1.5693756,-2.487977 26.0966737,-2.487977 27.6660497,0 0.762694,1.209122 0.690424,2.100643 -0.263458,3.25 -1.933103,2.329246 -25.2060314,2.329246 -27.1391335,0 z"
       id="path14"
       inkscape:connector-curvature="0" />
  </g>
</svg>
