<?xml version="1.0" encoding="utf-8"?>
<!-- Generator: Adobe Illustrator 21.0.2, SVG Export Plug-In . SVG Version: 6.00 Build 0)  -->
<svg version="1.1" id="Слой_1" xmlns="http://www.w3.org/2000/svg" xmlns:xlink="http://www.w3.org/1999/xlink" x="0px" y="0px"
	 viewBox="0 0 91 65.5" style="enable-background:new 0 0 91 65.5;" xml:space="preserve">
<style type="text/css">
	.st0{fill:#F46267;}
</style>
<path class="st0" d="M18.9,42.3c0.1,0,0.1,0,0.2,0c2.1,0,3.8-1.7,3.7-3.8c0-2.1-1.7-3.7-3.8-3.7c-1.7,0-3.4,0-5.1,0v0
	c-1.7,0-3.4,0-5.1,0c-0.1,0-0.2,0-0.3,0c-2.1,0.1-3.7,1.8-3.7,3.9c0.1,2.1,1.8,3.7,3.9,3.7C12.1,42.3,15.5,42.3,18.9,42.3z"/>
<path class="st0" d="M91,35.4c0.1-1.5-0.4-3-1.4-4.1c-3.4-4-6.2-8.5-8.2-13.4c-0.7-1.6-1.5-3.2-2.3-4.8c-2.6-5.5-7-8.2-13.1-8.2
	h-8.4C57,0.8,56.2,0,52.1,0C39.5,0,26.9,0,14.4,0c-0.6,0-1.2,0-1.8,0c-0.2,0-0.3,0-0.5,0.1c-2,0.5-3.3,2.5-2.8,4.5
	c0.4,1.9,2,3,4.3,3h36.3c0,6.3,0,12.4,0,18.6c0,3.3,1.4,4.7,4.7,4.7c7.9,0,15.9,0,23.8,0c0.6,0,1.2,0.2,1.7,0.6
	c2.5,2.4,4,5.2,3.3,8.8c0,0.4,0,0.7,0,1.1v7.9c-1,0.1-2,0-3,0c-0.5-0.1-1-0.4-1.3-0.9c-2.3-5-6.2-7.7-11.6-7.6
	c-5.4,0-9.2,2.7-11.4,7.6c-0.3,0.5-0.7,0.8-1.3,0.9c-4.7,0.1-9.3,0.1-14,0c-0.5-0.1-1-0.4-1.3-0.9c-2.3-5-6.1-7.7-11.6-7.7
	c-5.4,0-9.2,2.7-11.5,7.6c-0.3,0.5-0.8,0.8-1.4,0.9c-1.1,0.2-2.3,0-3.5,0.2c-1.9,0.3-3.3,1.9-3.2,3.8c0.1,1.9,1.6,3.5,3.5,3.7
	c1,0.1,1.9,0.1,2.9,0c0.9-0.1,1.7,0.4,1.9,1.2c1.9,4.6,6.3,7.5,11.3,7.4c5,0.1,9.5-2.8,11.4-7.4c0.2-0.8,0.9-1.3,1.7-1.2
	c4.5,0,9,0,13.4,0c0.8-0.1,1.6,0.4,1.8,1.2c1.7,4.1,5.5,7,9.9,7.3c4.9,0.6,9.3-1.2,11.7-5.5c1.5-2.7,3.2-3.4,5.9-3
	c0.2,0,0.5,0,0.8,0c4.4,0,6.5-2.2,6.6-6.6C90.9,45.3,90.9,40.3,91,35.4z M57.5,23.2V12.7c3.6,0,7.1-0.1,10.7,0.1
	c1.2,0.2,2.2,0.9,2.9,1.9c1.6,2.6,2.9,5.4,4.4,8.5H57.5z M28,57.9c-0.1,0-0.2,0-0.3,0c-2.7-0.1-4.8-2.3-4.8-5s2.3-4.8,5-4.8
	c2.7,0.1,4.8,2.3,4.8,5C32.6,55.7,30.6,57.8,28,57.9z M67.7,57.9c-2.7,0.1-5-2.1-5.1-4.8c0-2.6,2-4.8,4.6-4.9c2.7-0.1,5,1.9,5.1,4.6
	S70.4,57.8,67.7,57.9z"/>
<path class="st0" d="M14.7,30.8c3.5,0,7,0,10.5,0c2.6,0,4.3-1.5,4.2-3.8c0-2.2-1.7-3.7-4.2-3.7c-7,0-14.1,0-21.1,0
	c-2.5,0-4.1,1.5-4.1,3.8s1.6,3.8,4.1,3.8C7.6,30.9,11.1,30.9,14.7,30.8L14.7,30.8z"/>
<path class="st0" d="M8.9,19.5c3.5,0,7,0,10.5,0v0c3.5,0,6.9,0,10.4,0c2.7,0,4.3-1.5,4.3-3.8s-1.7-3.8-4.3-3.8c-7,0-14,0-20.9,0
	c-2.6,0-4.3,1.6-4.2,3.9C4.8,18,6.4,19.4,8.9,19.5z"/>
</svg>
